<?xml version="1.0" encoding="UTF-8" standalone="no"?>
<svg
   xmlns:dc="http://purl.org/dc/elements/1.1/"
   xmlns:cc="http://creativecommons.org/ns#"
   xmlns:rdf="http://www.w3.org/1999/02/22-rdf-syntax-ns#"
   xmlns:svg="http://www.w3.org/2000/svg"
   xmlns="http://www.w3.org/2000/svg"
   xmlns:sodipodi="http://sodipodi.sourceforge.net/DTD/sodipodi-0.dtd"
   xmlns:inkscape="http://www.inkscape.org/namespaces/inkscape"
   version="1.1"
   id="svg2"
   xml:space="preserve"
   width="1280"
   height="720"
   viewBox="0 0 1280 720"
   sodipodi:docname="HGIS_dual_bellows_drawing.svg"
   inkscape:version="1.0.2 (1.0.2+r75+1)"><metadata
     id="metadata8"><rdf:RDF><cc:Work
         rdf:about=""><dc:format>image/svg+xml</dc:format><dc:type
           rdf:resource="http://purl.org/dc/dcmitype/StillImage" /><dc:title /></cc:Work></rdf:RDF></metadata><defs
     id="defs6"><clipPath
       clipPathUnits="userSpaceOnUse"
       id="clipPath18"><path
         d="M 0,1.2207e-4 H 960 V 540.00012 H 0 Z"
         id="path16"
         inkscape:connector-curvature="0"
         style="clip-rule:evenodd" /></clipPath><clipPath
       clipPathUnits="userSpaceOnUse"
       id="clipPath56"><path
         d="M 3.0518e-5,540 H 960 V 1.8311e-4 L 6.1035e-5,1.2207e-4"
         id="path54"
         inkscape:connector-curvature="0"
         style="clip-rule:evenodd" /></clipPath><clipPath
       clipPathUnits="userSpaceOnUse"
       id="clipPath66"><path
         d="M 3.0518e-5,540 H 960 V 1.8311e-4 L 6.1035e-5,1.2207e-4"
         id="path64"
         inkscape:connector-curvature="0"
         style="clip-rule:evenodd" /></clipPath><clipPath
       clipPathUnits="userSpaceOnUse"
       id="clipPath76"><path
         d="M 0,540 H 960 V 6.1035e-5 H 0"
         id="path74"
         inkscape:connector-curvature="0"
         style="clip-rule:evenodd" /></clipPath><clipPath
       clipPathUnits="userSpaceOnUse"
       id="clipPath86"><path
         d="M 0,540 H 960 V 6.1035e-5 H 0"
         id="path84"
         inkscape:connector-curvature="0"
         style="clip-rule:evenodd" /></clipPath><clipPath
       clipPathUnits="userSpaceOnUse"
       id="clipPath96"><path
         d="M 6.1035e-5,540 H 960 V 1.8311e-4 H 1.2207e-4"
         id="path94"
         inkscape:connector-curvature="0"
         style="clip-rule:evenodd" /></clipPath><clipPath
       clipPathUnits="userSpaceOnUse"
       id="clipPath106"><path
         d="M 6.1035e-5,540 H 960 V 1.8311e-4 H 1.2207e-4"
         id="path104"
         inkscape:connector-curvature="0"
         style="clip-rule:evenodd" /></clipPath><clipPath
       clipPathUnits="userSpaceOnUse"
       id="clipPath116"><path
         d="M 0,540 H 960 V 1.2207e-4 L 0,6.1035e-5"
         id="path114"
         inkscape:connector-curvature="0"
         style="clip-rule:evenodd" /></clipPath><clipPath
       clipPathUnits="userSpaceOnUse"
       id="clipPath126"><path
         d="M 0,540 H 960 V 1.2207e-4 L 0,6.1035e-5"
         id="path124"
         inkscape:connector-curvature="0"
         style="clip-rule:evenodd" /></clipPath><clipPath
       clipPathUnits="userSpaceOnUse"
       id="clipPath198"><path
         d="M 1.4305e-5,0 H 960.00001 V 540 H 1.4305e-5 Z"
         id="path196"
         inkscape:connector-curvature="0"
         style="clip-rule:evenodd" /></clipPath><clipPath
       clipPathUnits="userSpaceOnUse"
       id="clipPath210"><path
         d="M 1.4305e-5,0 H 960.00001 V 540 H 1.4305e-5 Z"
         id="path208"
         inkscape:connector-curvature="0"
         style="clip-rule:evenodd" /></clipPath><clipPath
       clipPathUnits="userSpaceOnUse"
       id="clipPath222"><path
         d="M 1.4305e-5,0 H 960.00001 V 540 H 1.4305e-5 Z"
         id="path220"
         inkscape:connector-curvature="0"
         style="clip-rule:evenodd" /></clipPath><clipPath
       clipPathUnits="userSpaceOnUse"
       id="clipPath234"><path
         d="M 1.4305e-5,0 H 960.00001 V 540 H 1.4305e-5 Z"
         id="path232"
         inkscape:connector-curvature="0"
         style="clip-rule:evenodd" /></clipPath><clipPath
       clipPathUnits="userSpaceOnUse"
       id="clipPath246"><path
         d="M 1.4305e-5,0 H 960.00001 V 540 H 1.4305e-5 Z"
         id="path244"
         inkscape:connector-curvature="0"
         style="clip-rule:evenodd" /></clipPath><clipPath
       clipPathUnits="userSpaceOnUse"
       id="clipPath258"><path
         d="M 1.4305e-5,0 H 960.00001 V 540 H 1.4305e-5 Z"
         id="path256"
         inkscape:connector-curvature="0"
         style="clip-rule:evenodd" /></clipPath><clipPath
       clipPathUnits="userSpaceOnUse"
       id="clipPath270"><path
         d="M 1.4305e-5,0 H 960.00001 V 540 H 1.4305e-5 Z"
         id="path268"
         inkscape:connector-curvature="0"
         style="clip-rule:evenodd" /></clipPath><clipPath
       clipPathUnits="userSpaceOnUse"
       id="clipPath282"><path
         d="M 1.4305e-5,0 H 960.00001 V 540 H 1.4305e-5 Z"
         id="path280"
         inkscape:connector-curvature="0"
         style="clip-rule:evenodd" /></clipPath><clipPath
       clipPathUnits="userSpaceOnUse"
       id="clipPath294"><path
         d="M 1.4305e-5,0 H 960.00001 V 540 H 1.4305e-5 Z"
         id="path292"
         inkscape:connector-curvature="0"
         style="clip-rule:evenodd" /></clipPath><clipPath
       clipPathUnits="userSpaceOnUse"
       id="clipPath306"><path
         d="M 1.4305e-5,0 H 960.00001 V 540 H 1.4305e-5 Z"
         id="path304"
         inkscape:connector-curvature="0"
         style="clip-rule:evenodd" /></clipPath><clipPath
       clipPathUnits="userSpaceOnUse"
       id="clipPath318"><path
         d="M 1.4305e-5,0 H 960.00001 V 540 H 1.4305e-5 Z"
         id="path316"
         inkscape:connector-curvature="0"
         style="clip-rule:evenodd" /></clipPath><clipPath
       clipPathUnits="userSpaceOnUse"
       id="clipPath330"><path
         d="M 1.4305e-5,0 H 960.00001 V 540 H 1.4305e-5 Z"
         id="path328"
         inkscape:connector-curvature="0"
         style="clip-rule:evenodd" /></clipPath><clipPath
       clipPathUnits="userSpaceOnUse"
       id="clipPath342"><path
         d="M 1.4305e-5,0 H 960.00001 V 540 H 1.4305e-5 Z"
         id="path340"
         inkscape:connector-curvature="0"
         style="clip-rule:evenodd" /></clipPath><clipPath
       clipPathUnits="userSpaceOnUse"
       id="clipPath354"><path
         d="M 1.4305e-5,0 H 960.00001 V 540 H 1.4305e-5 Z"
         id="path352"
         inkscape:connector-curvature="0"
         style="clip-rule:evenodd" /></clipPath><clipPath
       clipPathUnits="userSpaceOnUse"
       id="clipPath366"><path
         d="M 1.4305e-5,0 H 960.00001 V 540 H 1.4305e-5 Z"
         id="path364"
         inkscape:connector-curvature="0"
         style="clip-rule:evenodd" /></clipPath><clipPath
       clipPathUnits="userSpaceOnUse"
       id="clipPath378"><path
         d="M 1.4305e-5,0 H 960.00001 V 540 H 1.4305e-5 Z"
         id="path376"
         inkscape:connector-curvature="0"
         style="clip-rule:evenodd" /></clipPath><clipPath
       clipPathUnits="userSpaceOnUse"
       id="clipPath390"><path
         d="M 1.4305e-5,0 H 960.00001 V 540 H 1.4305e-5 Z"
         id="path388"
         inkscape:connector-curvature="0"
         style="clip-rule:evenodd" /></clipPath><clipPath
       clipPathUnits="userSpaceOnUse"
       id="clipPath402"><path
         d="M 1.4305e-5,0 H 960.00001 V 540 H 1.4305e-5 Z"
         id="path400"
         inkscape:connector-curvature="0"
         style="clip-rule:evenodd" /></clipPath><clipPath
       clipPathUnits="userSpaceOnUse"
       id="clipPath414"><path
         d="M 1.4305e-5,0 H 960.00001 V 540 H 1.4305e-5 Z"
         id="path412"
         inkscape:connector-curvature="0"
         style="clip-rule:evenodd" /></clipPath></defs><sodipodi:namedview
     pagecolor="#ffffff"
     bordercolor="#666666"
     borderopacity="1"
     objecttolerance="10"
     gridtolerance="10"
     guidetolerance="10"
     inkscape:pageopacity="0"
     inkscape:pageshadow="2"
     inkscape:window-width="1920"
     inkscape:window-height="1136"
     id="namedview4"
     showgrid="false"
     inkscape:zoom="1.0354127"
     inkscape:cx="677.27117"
     inkscape:cy="513.2195"
     inkscape:window-x="0"
     inkscape:window-y="27"
     inkscape:window-maximized="1"
     inkscape:current-layer="g10"
     inkscape:document-rotation="0" /><g
     id="g10"
     inkscape:groupmode="layer"
     inkscape:label="HGIS_dual_bellows_drawing"
     transform="matrix(1.3333333,0,0,-1.3333333,0,720)">




<text
   xml:space="preserve"
   style="font-style:normal;font-variant:normal;font-weight:500;font-stretch:normal;font-size:20px;line-height:1.25;font-family:'Red Hat Display';-inkscape-font-specification:'Red Hat Display, Medium';font-variant-ligatures:normal;font-variant-caps:normal;font-variant-numeric:normal;font-feature-settings:normal;text-align:start;letter-spacing:0px;word-spacing:0px;writing-mode:lr-tb;text-anchor:start;fill:#000000;fill-opacity:1;stroke:none;stroke-width:0.75"
   x="768.81366"
   y="-185.91101"
   id="text3984"
   transform="scale(1,-1)" />
<rect
   style="opacity:0.996;fill:#cccccc;fill-opacity:1;stroke:#000000;stroke-width:1.275;stroke-linejoin:round"
   id="rect987"
   width="32.905983"
   height="72.385826"
   x="537.54285"
   y="-210.83577"
   transform="scale(1,-1)" /><path
   d="m 317.87656,364.55385 c 0,15.48303 12.55806,28.04109 28.0411,28.04109 h 370.62589 c 15.48304,0 28.04109,-12.55806 28.04109,-28.04109 V 252.38947 c 0,-15.48303 -12.55805,-28.04109 -28.04109,-28.04109 H 345.91766 c -15.48304,0 -28.0411,12.55806 -28.0411,28.04109 z"
   style="fill:#f2f2f2;fill-opacity:1;stroke:#000000;stroke-width:0.96;stroke-linecap:butt;stroke-linejoin:miter;stroke-miterlimit:10;stroke-dasharray:none;stroke-opacity:1"
   id="path190"
   inkscape:connector-curvature="0" /><path
   d="m 484.09256,282.2194 11.96581,25.6721 11.96581,-25.6721 z"
   style="fill:#d0cece;fill-opacity:1;fill-rule:evenodd;stroke:none;stroke-width:1"
   id="path26"
   inkscape:connector-curvature="0" /><path
   d="m 484.09256,282.2194 11.96581,25.6721 11.96581,-25.6721 z"
   style="fill:#cccccc;stroke:#000000;stroke-width:0.480001;stroke-linecap:butt;stroke-linejoin:miter;stroke-miterlimit:10;stroke-dasharray:none;stroke-opacity:1"
   id="path28"
   inkscape:connector-curvature="0" /><path
   d="m 346.73955,282.36444 11.96581,25.6721 11.96581,-25.6721 z"
   style="fill:#d0cece;fill-opacity:1;fill-rule:evenodd;stroke:none;stroke-width:1"
   id="path30"
   inkscape:connector-curvature="0" /><path
   d="m 346.73955,282.36444 11.96581,25.6721 11.96581,-25.6721 z"
   style="fill:#cccccc;stroke:#000000;stroke-width:0.480001;stroke-linecap:butt;stroke-linejoin:miter;stroke-miterlimit:10;stroke-dasharray:none;stroke-opacity:1"
   id="path32"
   inkscape:connector-curvature="0" /><path
   d="m 346.73955,333.70864 11.96581,-25.6721 11.96581,25.6721 z"
   style="fill:#d0cece;fill-opacity:1;fill-rule:evenodd;stroke:none;stroke-width:1"
   id="path34"
   inkscape:connector-curvature="0" /><path
   d="m 346.73955,333.70864 11.96581,-25.6721 11.96581,25.6721 z"
   style="fill:#cccccc;stroke:#000000;stroke-width:0.480001;stroke-linecap:butt;stroke-linejoin:miter;stroke-miterlimit:10;stroke-dasharray:none;stroke-opacity:1"
   id="path36"
   inkscape:connector-curvature="0" /><path
   d="m 484.09256,333.70864 11.96581,-25.6721 11.96581,25.6721 z"
   style="fill:#d0cece;fill-opacity:1;fill-rule:evenodd;stroke:none;stroke-width:1"
   id="path38"
   inkscape:connector-curvature="0" /><path
   d="m 484.09256,333.70864 11.96581,-25.6721 11.96581,25.6721 z"
   style="fill:#cccccc;stroke:#000000;stroke-width:0.480001;stroke-linecap:butt;stroke-linejoin:miter;stroke-miterlimit:10;stroke-dasharray:none;stroke-opacity:1"
   id="path40"
   inkscape:connector-curvature="0" /><path
   d="m 704.11845,282.2194 11.96581,25.6721 11.96581,-25.6721 z"
   style="fill:#d0cece;fill-opacity:1;fill-rule:evenodd;stroke:none;stroke-width:1"
   id="path42"
   inkscape:connector-curvature="0" /><path
   d="m 704.11845,282.2194 11.96581,25.6721 11.96581,-25.6721 z"
   style="fill:#cccccc;stroke:#000000;stroke-width:0.480001;stroke-linecap:butt;stroke-linejoin:miter;stroke-miterlimit:10;stroke-dasharray:none;stroke-opacity:1"
   id="path44"
   inkscape:connector-curvature="0" /><path
   d="m 704.11845,333.5636 11.96581,-25.6721 11.96581,25.6721 z"
   style="fill:#d0cece;fill-opacity:1;fill-rule:evenodd;stroke:none;stroke-width:1"
   id="path46"
   inkscape:connector-curvature="0" /><path
   d="m 704.11845,333.5636 11.96581,-25.6721 11.96581,25.6721 z"
   style="fill:#cccccc;stroke:#000000;stroke-width:0.480001;stroke-linecap:butt;stroke-linejoin:miter;stroke-miterlimit:10;stroke-dasharray:none;stroke-opacity:1"
   id="path48"
   inkscape:connector-curvature="0" /><g
   id="g50"
   style="fill:#cccccc;stroke-width:0.827357"
   transform="matrix(1.2086678,0,0,1.2086678,-102.88487,-51.517957)"><g
     id="g52"
     clip-path="url(#clipPath56)"
     style="fill:#cccccc;stroke-width:0.827357"><path
       d="m 421.08,267.48 21.24,-9.9 -21.24,-9.9 z"
       style="fill:#cccccc;fill-opacity:1;fill-rule:evenodd;stroke:none;stroke-width:0.827357"
       id="path58"
       inkscape:connector-curvature="0" /></g></g><g
   id="g60"
   style="stroke-width:0.827357"
   transform="matrix(1.2086678,0,0,1.2086678,-102.88487,-51.517957)"><g
     id="g62"
     clip-path="url(#clipPath66)"
     style="stroke-width:0.827357"><path
       d="m 421.08,267.48 21.24,-9.9 -21.24,-9.9 z"
       style="fill:none;stroke:#000000;stroke-width:0.397132;stroke-linecap:butt;stroke-linejoin:miter;stroke-miterlimit:10;stroke-dasharray:none;stroke-opacity:1"
       id="path68"
       inkscape:connector-curvature="0" /></g></g><g
   id="g70"
   style="fill:#cccccc;stroke-width:0.827357"
   transform="matrix(1.2086678,0,0,1.2086678,-102.88487,-51.517957)"><g
     id="g72"
     clip-path="url(#clipPath76)"
     style="fill:#cccccc;stroke-width:0.827357"><path
       d="m 463.56,267.48 -21.24,-9.9 21.24,-9.9 z"
       style="fill:#cccccc;fill-opacity:1;fill-rule:evenodd;stroke:none;stroke-width:0.827357"
       id="path78"
       inkscape:connector-curvature="0" /></g></g><g
   id="g80"
   style="stroke-width:0.827357"
   transform="matrix(1.2086678,0,0,1.2086678,-102.88487,-51.517957)"><g
     id="g82"
     clip-path="url(#clipPath86)"
     style="stroke-width:0.827357"><path
       d="m 463.56,267.48 -21.24,-9.9 21.24,-9.9 z"
       style="fill:none;stroke:#000000;stroke-width:0.397132;stroke-linecap:butt;stroke-linejoin:miter;stroke-miterlimit:10;stroke-dasharray:none;stroke-opacity:1"
       id="path88"
       inkscape:connector-curvature="0" /></g></g><g
   id="g90"
   style="stroke-width:0.827357"
   transform="matrix(1.2086678,0,0,1.2086678,-102.88487,-51.517957)"><g
     id="g92"
     clip-path="url(#clipPath96)"
     style="stroke-width:0.827357"><path
       d="m 522.12,267.36 21.24,-9.9 -21.24,-9.9 z"
       style="fill:#d0cece;fill-opacity:1;fill-rule:evenodd;stroke:none;stroke-width:0.827357"
       id="path98"
       inkscape:connector-curvature="0" /></g></g><g
   id="g100"
   style="fill:#cccccc;stroke-width:0.827357"
   transform="matrix(1.2086678,0,0,1.2086678,-102.88487,-51.517957)"><g
     id="g102"
     clip-path="url(#clipPath106)"
     style="fill:#cccccc;stroke-width:0.827357"><path
       d="m 522.12,267.36 21.24,-9.9 -21.24,-9.9 z"
       style="fill:#cccccc;stroke:#000000;stroke-width:0.397132;stroke-linecap:butt;stroke-linejoin:miter;stroke-miterlimit:10;stroke-dasharray:none;stroke-opacity:1"
       id="path108"
       inkscape:connector-curvature="0" /></g></g><g
   id="g110"
   style="stroke-width:0.827357"
   transform="matrix(1.2086678,0,0,1.2086678,-102.88487,-51.517957)"><g
     id="g112"
     clip-path="url(#clipPath116)"
     style="stroke-width:0.827357"><path
       d="m 564.6,267.36 -21.24,-9.9 21.24,-9.9 z"
       style="fill:#d0cece;fill-opacity:1;fill-rule:evenodd;stroke:none;stroke-width:0.827357"
       id="path118"
       inkscape:connector-curvature="0" /></g></g><g
   id="g120"
   style="fill:#cccccc;stroke-width:0.827357"
   transform="matrix(1.2086678,0,0,1.2086678,-102.88487,-51.517957)"><g
     id="g122"
     clip-path="url(#clipPath126)"
     style="fill:#cccccc;stroke-width:0.827357"><path
       d="m 564.6,267.36 -21.24,-9.9 21.24,-9.9 z"
       style="fill:#cccccc;stroke:#000000;stroke-width:0.397132;stroke-linecap:butt;stroke-linejoin:miter;stroke-miterlimit:10;stroke-dasharray:none;stroke-opacity:1"
       id="path128"
       inkscape:connector-curvature="0" /></g></g><path
   d="m 204.74526,282.36444 11.96581,25.6721 11.96581,-25.6721 z"
   style="fill:#d0cece;fill-opacity:1;fill-rule:evenodd;stroke:none;stroke-width:1"
   id="path130"
   inkscape:connector-curvature="0" /><path
   d="m 204.74526,282.36444 11.96581,25.6721 11.96581,-25.6721 z"
   style="fill:#cccccc;stroke:#000000;stroke-width:0.480001;stroke-linecap:butt;stroke-linejoin:miter;stroke-miterlimit:10;stroke-dasharray:none;stroke-opacity:1"
   id="path132"
   inkscape:connector-curvature="0" /><path
   d="m 204.74526,333.70864 11.96581,-25.6721 11.96581,25.6721 z"
   style="fill:#d0cece;fill-opacity:1;fill-rule:evenodd;stroke:none;stroke-width:1"
   id="path134"
   inkscape:connector-curvature="0" /><path
   d="m 204.74526,333.70864 11.96581,-25.6721 11.96581,25.6721 z"
   style="fill:#cccccc;stroke:#000000;stroke-width:0.480001;stroke-linecap:butt;stroke-linejoin:miter;stroke-miterlimit:10;stroke-dasharray:none;stroke-opacity:1"
   id="path136"
   inkscape:connector-curvature="0" /><path
   d="m 204.74526,185.76771 11.96581,25.6721 11.96581,-25.6721 z"
   style="fill:#d0cece;fill-opacity:1;fill-rule:evenodd;stroke:none;stroke-width:1"
   id="path138"
   inkscape:connector-curvature="0" /><path
   d="m 204.74526,185.76771 11.96581,25.6721 11.96581,-25.6721 z"
   style="fill:#cccccc;stroke:#000000;stroke-width:0.480001;stroke-linecap:butt;stroke-linejoin:miter;stroke-miterlimit:10;stroke-dasharray:none;stroke-opacity:1"
   id="path140"
   inkscape:connector-curvature="0" /><path
   d="m 204.74526,237.11191 11.96581,-25.6721 11.96581,25.6721 z"
   style="fill:#d0cece;fill-opacity:1;fill-rule:evenodd;stroke:none;stroke-width:1"
   id="path142"
   inkscape:connector-curvature="0" /><path
   d="m 204.74526,237.11191 11.96581,-25.6721 11.96581,25.6721 z"
   style="fill:#cccccc;stroke:#000000;stroke-width:0.480001;stroke-linecap:butt;stroke-linejoin:miter;stroke-miterlimit:10;stroke-dasharray:none;stroke-opacity:1"
   id="path144"
   inkscape:connector-curvature="0" /><path
   d="m 168.26766,307.96402 600.58703,-0.0967"
   style="fill:none;stroke:#000000;stroke-width:3.95999;stroke-linecap:butt;stroke-linejoin:miter;stroke-miterlimit:10;stroke-dasharray:none;stroke-opacity:1"
   id="path146"
   inkscape:connector-curvature="0" /><path
   d="m 266.66531,308.39914 h -0.7252 v -96.42752 h -97.67245"
   style="fill:none;stroke:#000000;stroke-width:3.95999;stroke-linecap:butt;stroke-linejoin:miter;stroke-miterlimit:10;stroke-dasharray:none;stroke-opacity:1"
   id="path148"
   inkscape:connector-curvature="0" /><path
   d="M 650.52612,307.81898 V 211.36729"
   style="fill:none;stroke:#000000;stroke-width:3.95999;stroke-linecap:butt;stroke-linejoin:miter;stroke-miterlimit:10;stroke-dasharray:none;stroke-opacity:1"
   id="path150"
   inkscape:connector-curvature="0" /><path
   d="m 553.92939,307.81898 0.13295,-96.45169"
   style="fill:none;stroke:#000000;stroke-width:3.95999;stroke-linecap:butt;stroke-linejoin:miter;stroke-miterlimit:10;stroke-dasharray:none;stroke-opacity:1"
   id="path152"
   inkscape:connector-curvature="0" /><path
   d="M 429.41243,307.81898 V 166.09059 h 4.78632 v 141.72839 z m -9.57265,-139.33522 11.96581,-23.93163 11.96581,23.93163 z"
   style="fill:#000000;fill-opacity:1;fill-rule:nonzero;stroke:none;stroke-width:1"
   id="path154"
   inkscape:connector-curvature="0" /><path
   d="M 266.16976,356.11735 V 307.85524"
   style="fill:none;stroke:#000000;stroke-width:3.95999;stroke-linecap:butt;stroke-linejoin:miter;stroke-miterlimit:10;stroke-dasharray:none;stroke-opacity:1"
   id="path156"
   inkscape:connector-curvature="0" /><path
   d="m 242.02057,380.12149 c 0,13.29534 10.81758,24.07666 24.14919,24.07666 13.3316,0 24.14918,-10.78132 24.14918,-24.07666 0,-13.29535 -10.81758,-24.07666 -24.14918,-24.07666 -13.33161,0 -24.14919,10.78131 -24.14919,24.07666 z"
   style="fill:#cccccc;fill-opacity:1;fill-rule:evenodd;stroke:none;stroke-width:1"
   id="path158"
   inkscape:connector-curvature="0" /><path
   d="m 242.02057,380.12149 c 0,13.29534 10.81758,24.07666 24.14919,24.07666 13.3316,0 24.14918,-10.78132 24.14918,-24.07666 0,-13.29535 -10.81758,-24.07666 -24.14918,-24.07666 -13.33161,0 -24.14919,10.78131 -24.14919,24.07666 z"
   style="fill:none;stroke:#000000;stroke-width:0.480001;stroke-linecap:butt;stroke-linejoin:miter;stroke-miterlimit:10;stroke-dasharray:none;stroke-opacity:1"
   id="path160"
   inkscape:connector-curvature="0" /><path
   d="m 529.85272,211.36729 h 48.22585"
   style="fill:none;stroke:#000000;stroke-width:3.95999;stroke-linecap:butt;stroke-linejoin:miter;stroke-miterlimit:10;stroke-dasharray:none;stroke-opacity:1"
   id="path162"
   inkscape:connector-curvature="0" /><path
   d="m 529.85272,137.54186 h 48.22585"
   style="fill:none;stroke:#000000;stroke-width:3.95999;stroke-linecap:butt;stroke-linejoin:miter;stroke-miterlimit:10;stroke-dasharray:none;stroke-opacity:1"
   id="path164"
   inkscape:connector-curvature="0" /><path
   d="m 535.58181,204.52623 36.46551,0.0967"
   style="fill:none;stroke:#000000;stroke-width:0.96;stroke-linecap:butt;stroke-linejoin:miter;stroke-miterlimit:10;stroke-dasharray:none;stroke-opacity:1"
   id="path166"
   inkscape:connector-curvature="0" /><path
   d="m 535.58181,198.2895 36.46551,0.0967"
   style="fill:none;stroke:#000000;stroke-width:0.96;stroke-linecap:butt;stroke-linejoin:miter;stroke-miterlimit:10;stroke-dasharray:none;stroke-opacity:1"
   id="path168"
   inkscape:connector-curvature="0" /><path
   d="m 535.58181,192.35495 36.46551,0.0846"
   style="fill:none;stroke:#000000;stroke-width:0.96;stroke-linecap:butt;stroke-linejoin:miter;stroke-miterlimit:10;stroke-dasharray:none;stroke-opacity:1"
   id="path170"
   inkscape:connector-curvature="0" /><path
   d="m 535.58181,186.10613 36.46551,0.0967"
   style="fill:none;stroke:#000000;stroke-width:0.96;stroke-linecap:butt;stroke-linejoin:miter;stroke-miterlimit:10;stroke-dasharray:none;stroke-opacity:1"
   id="path172"
   inkscape:connector-curvature="0" /><path
   d="m 535.58181,180.01445 36.46551,0.0967"
   style="fill:none;stroke:#000000;stroke-width:0.96;stroke-linecap:butt;stroke-linejoin:miter;stroke-miterlimit:10;stroke-dasharray:none;stroke-opacity:1"
   id="path174"
   inkscape:connector-curvature="0" /><path
   d="m 535.58181,173.77772 36.46551,0.0967"
   style="fill:none;stroke:#000000;stroke-width:0.96;stroke-linecap:butt;stroke-linejoin:miter;stroke-miterlimit:10;stroke-dasharray:none;stroke-opacity:1"
   id="path176"
   inkscape:connector-curvature="0" /><path
   d="m 535.58181,167.84316 36.46551,0.0846"
   style="fill:none;stroke:#000000;stroke-width:0.96;stroke-linecap:butt;stroke-linejoin:miter;stroke-miterlimit:10;stroke-dasharray:none;stroke-opacity:1"
   id="path178"
   inkscape:connector-curvature="0" /><path
   d="m 535.58181,161.59435 36.46551,0.0967"
   style="fill:none;stroke:#000000;stroke-width:0.96;stroke-linecap:butt;stroke-linejoin:miter;stroke-miterlimit:10;stroke-dasharray:none;stroke-opacity:1"
   id="path180"
   inkscape:connector-curvature="0" /><path
   d="m 535.58181,156.08282 36.46551,0.0967"
   style="fill:none;stroke:#000000;stroke-width:0.96;stroke-linecap:butt;stroke-linejoin:miter;stroke-miterlimit:10;stroke-dasharray:none;stroke-opacity:1"
   id="path182"
   inkscape:connector-curvature="0" /><path
   d="m 535.58181,150.00323 36.46551,0.0846"
   style="fill:none;stroke:#000000;stroke-width:0.96;stroke-linecap:butt;stroke-linejoin:miter;stroke-miterlimit:10;stroke-dasharray:none;stroke-opacity:1"
   id="path184"
   inkscape:connector-curvature="0" /><path
   d="m 535.58181,143.89945 36.46551,0.0967"
   style="fill:none;stroke:#000000;stroke-width:0.96;stroke-linecap:butt;stroke-linejoin:miter;stroke-miterlimit:10;stroke-dasharray:none;stroke-opacity:1"
   id="path186"
   inkscape:connector-curvature="0" /><path
   d="m 268.58709,368.01064 8.94414,18.28714 -2.21186,1.0878 -8.95623,-18.28714 z m -4.43581,2.1756 c -0.89441,-1.83718 -0.13295,-4.04904 1.69214,-4.95554 1.83717,-0.89441 4.04903,-0.13295 4.95553,1.70422 0.89442,1.82509 0.13296,4.04904 -1.69213,4.94345 -1.83718,0.89442 -4.04904,0.14504 -4.95554,-1.69213 z m 15.06,13.92385 -0.0725,8.26729 -6.57515,-5.01597 z"
   style="fill:#000000;fill-opacity:1;fill-rule:nonzero;stroke:none;stroke-width:1"
   id="path188"
   inkscape:connector-curvature="0" /><g
   aria-label="Low-volume valve block"
   transform="scale(1,-1)"
   id="text227"
   style="font-style:normal;font-variant:normal;font-weight:normal;font-stretch:normal;font-size:26.5907px;line-height:1.25;font-family:'Red Hat Display';-inkscape-font-specification:'Red Hat Display';letter-spacing:0px;word-spacing:0px;fill:#000000;fill-opacity:1;stroke:none;stroke-width:0.75"><path
     d="m 349.8848,-357.79022 v -16.92138 h 2.53821 v 14.67325 h 9.74188 v 2.24813 z"
     style="font-style:normal;font-variant:normal;font-weight:500;font-stretch:normal;font-size:24.1734px;font-family:'Red Hat Display';-inkscape-font-specification:'Red Hat Display, Medium';font-variant-ligatures:normal;font-variant-caps:normal;font-variant-numeric:normal;font-feature-settings:normal;text-align:start;writing-mode:lr-tb;text-anchor:start;stroke-width:0.75"
     id="path2897" /><path
     d="m 363.25263,-363.95444 q 0,-1.32954 0.48347,-2.48986 0.50764,-1.1845 1.37788,-2.03057 0.87024,-0.87024 2.03057,-1.35371 1.18449,-0.50764 2.51403,-0.50764 1.32954,0 2.48986,0.50764 1.1845,0.48347 2.03056,1.35371 0.87025,0.84607 1.35372,2.03057 0.50764,1.16032 0.50764,2.48986 0,1.35371 -0.50764,2.53821 -0.48347,1.16032 -1.35372,2.03056 -0.84606,0.84607 -2.03056,1.35371 -1.16032,0.48347 -2.48986,0.48347 -1.32954,0 -2.51403,-0.48347 -1.16033,-0.50764 -2.03057,-1.35371 -0.87024,-0.87024 -1.37788,-2.03056 -0.48347,-1.1845 -0.48347,-2.53821 z m 6.40595,4.27869 q 1.66796,0 2.82829,-1.23284 1.18449,-1.25702 1.18449,-3.04585 0,-1.78883 -1.18449,-3.02167 -1.16033,-1.23285 -2.82829,-1.23285 -1.66797,0 -2.85246,1.23285 -1.1845,1.23284 -1.1845,3.02167 0,1.78883 1.16032,3.04585 1.1845,1.23284 2.87664,1.23284 z"
     style="font-style:normal;font-variant:normal;font-weight:500;font-stretch:normal;font-size:24.1734px;font-family:'Red Hat Display';-inkscape-font-specification:'Red Hat Display, Medium';font-variant-ligatures:normal;font-variant-caps:normal;font-variant-numeric:normal;font-feature-settings:normal;text-align:start;writing-mode:lr-tb;text-anchor:start;stroke-width:0.75"
     id="path2899" /><path
     d="m 382.73638,-357.79022 h -2.34482 l -3.43262,-12.30426 h 2.34482 l 2.36899,9.04085 2.82829,-9.04085 h 2.07891 l 2.80411,9.04085 2.39317,-9.04085 h 2.2723 l -3.4568,12.30426 h -2.32064 l -2.75577,-9.01668 z"
     style="font-style:normal;font-variant:normal;font-weight:500;font-stretch:normal;font-size:24.1734px;font-family:'Red Hat Display';-inkscape-font-specification:'Red Hat Display, Medium';font-variant-ligatures:normal;font-variant-caps:normal;font-variant-numeric:normal;font-feature-settings:normal;text-align:start;writing-mode:lr-tb;text-anchor:start;stroke-width:0.75"
     id="path2901" /><path
     d="m 395.45156,-365.67075 h 8.70243 v 2.07891 h -8.70243 z"
     style="font-style:normal;font-variant:normal;font-weight:500;font-stretch:normal;font-size:24.1734px;font-family:'Red Hat Display';-inkscape-font-specification:'Red Hat Display, Medium';font-variant-ligatures:normal;font-variant-caps:normal;font-variant-numeric:normal;font-feature-settings:normal;text-align:start;writing-mode:lr-tb;text-anchor:start;stroke-width:0.75"
     id="path2903" /><path
     d="m 410.65663,-357.79022 -5.31815,-12.30426 h 2.65907 l 3.84357,9.21006 3.84357,-9.21006 h 2.58656 l -5.31815,12.30426 z"
     style="font-style:normal;font-variant:normal;font-weight:500;font-stretch:normal;font-size:24.1734px;font-family:'Red Hat Display';-inkscape-font-specification:'Red Hat Display, Medium';font-variant-ligatures:normal;font-variant-caps:normal;font-variant-numeric:normal;font-feature-settings:normal;text-align:start;writing-mode:lr-tb;text-anchor:start;stroke-width:0.75"
     id="path2905" /><path
     d="m 418.73049,-363.95444 q 0,-1.32954 0.48347,-2.48986 0.50764,-1.1845 1.37789,-2.03057 0.87024,-0.87024 2.03056,-1.35371 1.1845,-0.50764 2.51404,-0.50764 1.32953,0 2.48986,0.50764 1.18449,0.48347 2.03056,1.35371 0.87024,0.84607 1.35371,2.03057 0.50764,1.16032 0.50764,2.48986 0,1.35371 -0.50764,2.53821 -0.48347,1.16032 -1.35371,2.03056 -0.84607,0.84607 -2.03056,1.35371 -1.16033,0.48347 -2.48986,0.48347 -1.32954,0 -2.51404,-0.48347 -1.16032,-0.50764 -2.03056,-1.35371 -0.87025,-0.87024 -1.37789,-2.03056 -0.48347,-1.1845 -0.48347,-2.53821 z m 6.40596,4.27869 q 1.66796,0 2.82828,-1.23284 1.1845,-1.25702 1.1845,-3.04585 0,-1.78883 -1.1845,-3.02167 -1.16032,-1.23285 -2.82828,-1.23285 -1.66797,0 -2.85247,1.23285 -1.18449,1.23284 -1.18449,3.02167 0,1.78883 1.16032,3.04585 1.1845,1.23284 2.87664,1.23284 z"
     style="font-style:normal;font-variant:normal;font-weight:500;font-stretch:normal;font-size:24.1734px;font-family:'Red Hat Display';-inkscape-font-specification:'Red Hat Display, Medium';font-variant-ligatures:normal;font-variant-caps:normal;font-variant-numeric:normal;font-feature-settings:normal;text-align:start;writing-mode:lr-tb;text-anchor:start;stroke-width:0.75"
     id="path2907" /><path
     d="m 436.23203,-375.24342 v 17.4532 h -2.41734 v -16.92138 z"
     style="font-style:normal;font-variant:normal;font-weight:500;font-stretch:normal;font-size:24.1734px;font-family:'Red Hat Display';-inkscape-font-specification:'Red Hat Display, Medium';font-variant-ligatures:normal;font-variant-caps:normal;font-variant-numeric:normal;font-feature-settings:normal;text-align:start;writing-mode:lr-tb;text-anchor:start;stroke-width:0.75"
     id="path2909" /><path
     d="m 441.45345,-370.09448 v 7.30036 q 0,1.45041 0.8219,2.29648 0.84606,0.84607 2.22395,0.84607 0.96693,0 1.74048,-0.41095 0.77355,-0.43512 1.28119,-1.20867 v -8.82329 h 2.41734 v 12.30426 h -2.41734 v -1.23285 q -0.7252,0.72521 -1.66796,1.11198 -0.91859,0.3626 -2.03057,0.3626 -2.10308,0 -3.45679,-1.35371 -1.32954,-1.35371 -1.32954,-3.48097 v -7.71131 z"
     style="font-style:normal;font-variant:normal;font-weight:500;font-stretch:normal;font-size:24.1734px;font-family:'Red Hat Display';-inkscape-font-specification:'Red Hat Display, Medium';font-variant-ligatures:normal;font-variant-caps:normal;font-variant-numeric:normal;font-feature-settings:normal;text-align:start;writing-mode:lr-tb;text-anchor:start;stroke-width:0.75"
     id="path2911" /><path
     d="m 452.79076,-357.79022 v -12.30426 h 2.41734 v 1.16032 q 0.67686,-0.67686 1.5471,-1.03946 0.87024,-0.3626 1.9097,-0.3626 1.23284,0 2.22395,0.55599 0.99111,0.53182 1.57127,1.49875 0.74938,-1.01528 1.78884,-1.52292 1.06362,-0.53182 2.36899,-0.53182 2.03056,0 3.31175,1.35371 1.30537,1.32954 1.30537,3.4568 v 7.73549 h -2.41734 v -7.32454 q 0,-1.45041 -0.77355,-2.2723 -0.74938,-0.84607 -2.05474,-0.84607 -0.89442,0 -1.61962,0.41095 -0.7252,0.41094 -1.25701,1.23284 0.0483,0.24173 0.0725,0.53181 0.0242,0.26591 0.0242,0.53182 v 7.73549 h -2.39317 v -7.32454 q 0,-1.45041 -0.77355,-2.2723 -0.74937,-0.84607 -2.05474,-0.84607 -0.87024,0 -1.57127,0.38677 -0.70103,0.3626 -1.20867,1.11198 v 8.94416 z"
     style="font-style:normal;font-variant:normal;font-weight:500;font-stretch:normal;font-size:24.1734px;font-family:'Red Hat Display';-inkscape-font-specification:'Red Hat Display, Medium';font-variant-ligatures:normal;font-variant-caps:normal;font-variant-numeric:normal;font-feature-settings:normal;text-align:start;writing-mode:lr-tb;text-anchor:start;stroke-width:0.75"
     id="path2913" /><path
     d="m 484.67544,-359.19228 q -1.06363,0.8219 -2.22395,1.23284 -1.16033,0.38678 -2.53821,0.38678 -1.35371,0 -2.53821,-0.48347 -1.1845,-0.50764 -2.05474,-1.35371 -0.87024,-0.84607 -1.37788,-2.00639 -0.48347,-1.1845 -0.48347,-2.53821 0,-1.32954 0.48347,-2.48986 0.48347,-1.16032 1.30536,-2.00639 0.8219,-0.84607 1.95805,-1.32954 1.13615,-0.50764 2.41734,-0.50764 1.25701,0 2.34482,0.50764 1.11197,0.48347 1.88552,1.35371 0.79772,0.84607 1.25702,2.03057 0.45929,1.18449 0.45929,2.5382 v 0.70103 h -9.7177 q 0.24173,1.52293 1.40205,2.53821 1.16033,0.99111 2.75577,0.99111 0.89442,0 1.71631,-0.29008 0.8219,-0.29008 1.40206,-0.79772 z m -5.10059,-9.06502 q -1.37788,0 -2.41734,0.91858 -1.01528,0.91859 -1.28119,2.369 h 7.30037 q -0.26591,-1.40206 -1.28119,-2.34482 -0.99111,-0.94276 -2.32065,-0.94276 z"
     style="font-style:normal;font-variant:normal;font-weight:500;font-stretch:normal;font-size:24.1734px;font-family:'Red Hat Display';-inkscape-font-specification:'Red Hat Display, Medium';font-variant-ligatures:normal;font-variant-caps:normal;font-variant-numeric:normal;font-feature-settings:normal;text-align:start;writing-mode:lr-tb;text-anchor:start;stroke-width:0.75"
     id="path2915" /><path
     d="m 496.88299,-357.79022 -5.31814,-12.30426 h 2.65907 l 3.84357,9.21006 3.84357,-9.21006 h 2.58655 l -5.31814,12.30426 z"
     style="font-style:normal;font-variant:normal;font-weight:500;font-stretch:normal;font-size:24.1734px;font-family:'Red Hat Display';-inkscape-font-specification:'Red Hat Display, Medium';font-variant-ligatures:normal;font-variant-caps:normal;font-variant-numeric:normal;font-feature-settings:normal;text-align:start;writing-mode:lr-tb;text-anchor:start;stroke-width:0.75"
     id="path2917" /><path
     d="m 509.88825,-357.57266 q -2.0064,0 -3.26341,-1.03946 -1.25702,-1.03945 -1.25702,-2.70742 0,-1.74048 1.32954,-2.73159 1.32954,-1.01529 3.65018,-1.01529 0.89442,0 1.74049,0.19339 0.84607,0.16922 1.61961,0.48347 v -1.30536 q 0,-1.30537 -0.77354,-1.95805 -0.77355,-0.65268 -2.22396,-0.65268 -0.84607,0 -1.76466,0.26591 -0.91858,0.24173 -2.05473,0.77354 l -0.89442,-1.813 q 1.37788,-0.65268 2.61073,-0.94276 1.23284,-0.31426 2.44151,-0.31426 2.39317,0 3.69853,1.16033 1.32954,1.13615 1.32954,3.23923 v 8.14644 h -2.369 v -1.06363 q -0.82189,0.65268 -1.76465,0.96693 -0.94277,0.31426 -2.05474,0.31426 z m -2.19978,-3.79523 q 0,0.89442 0.74937,1.45041 0.77355,0.55599 2.0064,0.55599 0.96693,0 1.78883,-0.29008 0.82189,-0.29008 1.47457,-0.87025 v -2.12726 q -0.70102,-0.38677 -1.47457,-0.55598 -0.77355,-0.19339 -1.69214,-0.19339 -1.30536,0 -2.07891,0.55599 -0.77355,0.55599 -0.77355,1.47457 z"
     style="font-style:normal;font-variant:normal;font-weight:500;font-stretch:normal;font-size:24.1734px;font-family:'Red Hat Display';-inkscape-font-specification:'Red Hat Display, Medium';font-variant-ligatures:normal;font-variant-caps:normal;font-variant-numeric:normal;font-feature-settings:normal;text-align:start;writing-mode:lr-tb;text-anchor:start;stroke-width:0.75"
     id="path2919" /><path
     d="m 521.27391,-375.24342 v 17.4532 h -2.41734 v -16.92138 z"
     style="font-style:normal;font-variant:normal;font-weight:500;font-stretch:normal;font-size:24.1734px;font-family:'Red Hat Display';-inkscape-font-specification:'Red Hat Display, Medium';font-variant-ligatures:normal;font-variant-caps:normal;font-variant-numeric:normal;font-feature-settings:normal;text-align:start;writing-mode:lr-tb;text-anchor:start;stroke-width:0.75"
     id="path2921" /><path
     d="m 528.09077,-357.79022 -5.31815,-12.30426 h 2.65908 l 3.84357,9.21006 3.84357,-9.21006 h 2.58655 l -5.31814,12.30426 z"
     style="font-style:normal;font-variant:normal;font-weight:500;font-stretch:normal;font-size:24.1734px;font-family:'Red Hat Display';-inkscape-font-specification:'Red Hat Display, Medium';font-variant-ligatures:normal;font-variant-caps:normal;font-variant-numeric:normal;font-feature-settings:normal;text-align:start;writing-mode:lr-tb;text-anchor:start;stroke-width:0.75"
     id="path2923" /><path
     d="m 547.3811,-359.19228 q -1.06363,0.8219 -2.22395,1.23284 -1.16032,0.38678 -2.53821,0.38678 -1.35371,0 -2.5382,-0.48347 -1.1845,-0.50764 -2.05474,-1.35371 -0.87025,-0.84607 -1.37789,-2.00639 -0.48346,-1.1845 -0.48346,-2.53821 0,-1.32954 0.48346,-2.48986 0.48347,-1.16032 1.30537,-2.00639 0.82189,-0.84607 1.95804,-1.32954 1.13615,-0.50764 2.41734,-0.50764 1.25702,0 2.34482,0.50764 1.11198,0.48347 1.88553,1.35371 0.79772,0.84607 1.25701,2.03057 0.4593,1.18449 0.4593,2.5382 v 0.70103 h -9.71771 q 0.24174,1.52293 1.40206,2.53821 1.16032,0.99111 2.75577,0.99111 0.89441,0 1.71631,-0.29008 0.82189,-0.29008 1.40206,-0.79772 z m -5.10058,-9.06502 q -1.37789,0 -2.41734,0.91858 -1.01529,0.91859 -1.28119,2.369 h 7.30036 q -0.2659,-1.40206 -1.28119,-2.34482 -0.99111,-0.94276 -2.32064,-0.94276 z"
     style="font-style:normal;font-variant:normal;font-weight:500;font-stretch:normal;font-size:24.1734px;font-family:'Red Hat Display';-inkscape-font-specification:'Red Hat Display, Medium';font-variant-ligatures:normal;font-variant-caps:normal;font-variant-numeric:normal;font-feature-settings:normal;text-align:start;writing-mode:lr-tb;text-anchor:start;stroke-width:0.75"
     id="path2925" /><path
     d="m 568.00099,-363.95444 q 0,1.32954 -0.48346,2.51403 -0.48347,1.16033 -1.32954,2.0064 -0.8219,0.84607 -1.98222,1.35371 -1.16032,0.48347 -2.46569,0.48347 -1.03945,0 -1.98222,-0.31426 -0.94276,-0.31425 -1.74048,-0.91859 v 1.03946 h -2.39317 v -16.92138 l 2.41734,-0.53182 v 6.30926 q 0.74938,-0.65268 1.71631,-0.99111 0.96694,-0.3626 2.03057,-0.3626 1.30536,0 2.44151,0.50764 1.13615,0.48347 1.95805,1.32954 0.84607,0.84607 1.32954,2.00639 0.48346,1.16032 0.48346,2.48986 z m -6.52681,-4.23034 q -1.03946,0 -1.93388,0.38677 -0.89441,0.38677 -1.49875,1.0878 v 5.55989 q 0.58017,0.67685 1.47458,1.06362 0.91859,0.38678 1.95805,0.38678 1.76465,0 2.94915,-1.20867 1.20867,-1.20867 1.20867,-3.02168 0,-1.813 -1.20867,-3.02167 -1.20867,-1.23284 -2.94915,-1.23284 z"
     style="font-style:normal;font-variant:normal;font-weight:500;font-stretch:normal;font-size:24.1734px;font-family:'Red Hat Display';-inkscape-font-specification:'Red Hat Display, Medium';font-variant-ligatures:normal;font-variant-caps:normal;font-variant-numeric:normal;font-feature-settings:normal;text-align:start;writing-mode:lr-tb;text-anchor:start;stroke-width:0.75"
     id="path2927" /><path
     d="m 572.71477,-375.24342 v 17.4532 h -2.41734 v -16.92138 z"
     style="font-style:normal;font-variant:normal;font-weight:500;font-stretch:normal;font-size:24.1734px;font-family:'Red Hat Display';-inkscape-font-specification:'Red Hat Display, Medium';font-variant-ligatures:normal;font-variant-caps:normal;font-variant-numeric:normal;font-feature-settings:normal;text-align:start;writing-mode:lr-tb;text-anchor:start;stroke-width:0.75"
     id="path2929" /><path
     d="m 575.01122,-363.95444 q 0,-1.32954 0.48347,-2.48986 0.50764,-1.1845 1.37788,-2.03057 0.87024,-0.87024 2.03057,-1.35371 1.18449,-0.50764 2.51403,-0.50764 1.32954,0 2.48986,0.50764 1.1845,0.48347 2.03057,1.35371 0.87024,0.84607 1.35371,2.03057 0.50764,1.16032 0.50764,2.48986 0,1.35371 -0.50764,2.53821 -0.48347,1.16032 -1.35371,2.03056 -0.84607,0.84607 -2.03057,1.35371 -1.16032,0.48347 -2.48986,0.48347 -1.32954,0 -2.51403,-0.48347 -1.16033,-0.50764 -2.03057,-1.35371 -0.87024,-0.87024 -1.37788,-2.03056 -0.48347,-1.1845 -0.48347,-2.53821 z m 6.40595,4.27869 q 1.66796,0 2.82829,-1.23284 1.18449,-1.25702 1.18449,-3.04585 0,-1.78883 -1.18449,-3.02167 -1.16033,-1.23285 -2.82829,-1.23285 -1.66797,0 -2.85246,1.23285 -1.1845,1.23284 -1.1845,3.02167 0,1.78883 1.16032,3.04585 1.1845,1.23284 2.87664,1.23284 z"
     style="font-style:normal;font-variant:normal;font-weight:500;font-stretch:normal;font-size:24.1734px;font-family:'Red Hat Display';-inkscape-font-specification:'Red Hat Display, Medium';font-variant-ligatures:normal;font-variant-caps:normal;font-variant-numeric:normal;font-feature-settings:normal;text-align:start;writing-mode:lr-tb;text-anchor:start;stroke-width:0.75"
     id="path2931" /><path
     d="m 596.01787,-359.69992 q 0.91859,0 1.74048,-0.3626 0.8219,-0.38678 1.57127,-1.13615 l 1.45041,1.57127 q -0.96694,0.96694 -2.22396,1.52292 -1.25701,0.53182 -2.6349,0.53182 -1.32953,0 -2.48986,-0.48347 -1.16032,-0.50764 -2.00639,-1.35371 -0.84607,-0.84607 -1.35371,-2.00639 -0.48347,-1.1845 -0.48347,-2.53821 0,-1.32954 0.48347,-2.48986 0.50764,-1.1845 1.35371,-2.03057 0.84607,-0.87024 2.00639,-1.35371 1.16033,-0.50764 2.48986,-0.50764 1.37789,0 2.68325,0.55599 1.30536,0.53182 2.2723,1.49875 l -1.52292,1.64379 q -0.70103,-0.74937 -1.57128,-1.13615 -0.87024,-0.41094 -1.813,-0.41094 -1.66797,0 -2.82829,1.23284 -1.16032,1.23284 -1.16032,2.9975 0,1.81301 1.16032,3.04585 1.1845,1.20867 2.87664,1.20867 z"
     style="font-style:normal;font-variant:normal;font-weight:500;font-stretch:normal;font-size:24.1734px;font-family:'Red Hat Display';-inkscape-font-specification:'Red Hat Display, Medium';font-variant-ligatures:normal;font-variant-caps:normal;font-variant-numeric:normal;font-feature-settings:normal;text-align:start;writing-mode:lr-tb;text-anchor:start;stroke-width:0.75"
     id="path2933" /><path
     d="m 602.73807,-357.79022 v -16.92138 l 2.41734,-0.53182 v 10.56378 l 5.97083,-5.41484 h 2.82829 l -6.33343,5.77744 6.67186,6.52682 h -3.19089 l -5.94666,-5.80162 v 5.80162 z"
     style="font-style:normal;font-variant:normal;font-weight:500;font-stretch:normal;font-size:24.1734px;font-family:'Red Hat Display';-inkscape-font-specification:'Red Hat Display, Medium';font-variant-ligatures:normal;font-variant-caps:normal;font-variant-numeric:normal;font-feature-settings:normal;text-align:start;writing-mode:lr-tb;text-anchor:start;stroke-width:0.75"
     id="path2935" /></g><g
   aria-label="Pressure"
   transform="scale(1,-1)"
   id="text235"
   style="font-style:normal;font-variant:normal;font-weight:500;font-stretch:normal;font-size:24.1734px;line-height:1.25;font-family:'Red Hat Display';-inkscape-font-specification:'Red Hat Display, Medium';font-variant-ligatures:normal;font-variant-caps:normal;font-variant-numeric:normal;font-feature-settings:normal;text-align:start;letter-spacing:0px;word-spacing:0px;writing-mode:lr-tb;text-anchor:start;fill:#000000;fill-opacity:1;stroke:none;stroke-width:0.75"><path
     d="m 132.45668,-385.44617 v -16.92138 h 7.83219 q 2.46568,0 3.98861,1.42623 1.54709,1.40206 1.54709,3.65019 0,2.22395 -1.54709,3.62601 -1.5471,1.40205 -3.98861,1.40205 h -5.29398 v 6.8169 z m 7.56628,-14.69742 h -5.02807 v 5.72909 h 5.02807 q 1.47458,0 2.34482,-0.77355 0.89441,-0.79772 0.89441,-2.10308 0,-1.30537 -0.89441,-2.07892 -0.87024,-0.77354 -2.34482,-0.77354 z"
     style="stroke-width:0.75"
     id="path2819" /><path
     d="m 148.1452,-385.44617 v -12.30426 h 2.41734 v 1.57127 q 0.55599,-0.89441 1.42623,-1.35371 0.87025,-0.48347 1.95805,-0.48347 0.38677,0 0.67686,0.0484 0.29008,0.0483 0.55598,0.14504 v 2.17561 q -0.33842,-0.12087 -0.70103,-0.19339 -0.3626,-0.0725 -0.7252,-0.0725 -1.06363,0 -1.9097,0.58016 -0.82189,0.55599 -1.28119,1.66797 v 8.21895 z"
     style="stroke-width:0.75"
     id="path2821" /><path
     d="m 167.02459,-386.84822 q -1.06363,0.82189 -2.22396,1.23284 -1.16032,0.38677 -2.5382,0.38677 -1.35371,0 -2.53821,-0.48346 -1.1845,-0.50765 -2.05474,-1.35371 -0.87024,-0.84607 -1.37788,-2.0064 -0.48347,-1.18449 -0.48347,-2.5382 0,-1.32954 0.48347,-2.48986 0.48347,-1.16033 1.30536,-2.0064 0.8219,-0.84607 1.95805,-1.32953 1.13615,-0.50765 2.41734,-0.50765 1.25701,0 2.34482,0.50765 1.11197,0.48346 1.88552,1.35371 0.79772,0.84607 1.25702,2.03056 0.45929,1.1845 0.45929,2.53821 v 0.70103 h -9.7177 q 0.24173,1.52292 1.40205,2.53821 1.16033,0.9911 2.75577,0.9911 0.89442,0 1.71631,-0.29008 0.8219,-0.29008 1.40206,-0.79772 z m -5.10059,-9.06503 q -1.37788,0 -2.41734,0.91859 -1.01528,0.91859 -1.28119,2.36899 h 7.30037 q -0.26591,-1.40205 -1.28119,-2.34482 -0.99111,-0.94276 -2.32065,-0.94276 z"
     style="stroke-width:0.75"
     id="path2823" /><path
     d="m 169.176,-387.04161 1.30536,-1.59545 q 0.96694,0.74938 1.95805,1.16033 1.01528,0.38677 2.05474,0.38677 1.30536,0 2.12726,-0.50764 0.82189,-0.50764 0.82189,-1.32954 0,-0.65268 -0.48347,-1.03945 -0.48346,-0.38678 -1.49875,-0.53182 l -2.22395,-0.31425 q -1.813,-0.26591 -2.75577,-1.11198 -0.91859,-0.87024 -0.91859,-2.29647 0,-1.66797 1.32954,-2.68325 1.32954,-1.03946 3.48097,-1.03946 1.35371,0 2.56238,0.38678 1.23284,0.38677 2.39317,1.1845 l -1.23285,1.59544 q -1.01528,-0.67685 -1.98222,-0.96694 -0.94276,-0.31425 -1.90969,-0.31425 -1.11198,0 -1.78884,0.45929 -0.67685,0.4593 -0.67685,1.20867 0,0.67686 0.45929,1.03946 0.48347,0.33843 1.57127,0.50764 l 2.22396,0.31426 q 1.813,0.2659 2.75577,1.13615 0.96693,0.87024 0.96693,2.29647 0,0.8219 -0.41095,1.5471 -0.38677,0.70103 -1.0878,1.20867 -0.67685,0.50764 -1.61962,0.82189 -0.94276,0.29008 -2.03056,0.29008 -1.59545,0 -2.9975,-0.45929 -1.37789,-0.4593 -2.39317,-1.35371 z"
     style="stroke-width:0.75"
     id="path2825" /><path
     d="m 180.5616,-387.04161 1.30536,-1.59545 q 0.96694,0.74938 1.95805,1.16033 1.01528,0.38677 2.05473,0.38677 1.30537,0 2.12726,-0.50764 0.8219,-0.50764 0.8219,-1.32954 0,-0.65268 -0.48347,-1.03945 -0.48347,-0.38678 -1.49875,-0.53182 l -2.22395,-0.31425 q -1.81301,-0.26591 -2.75577,-1.11198 -0.91859,-0.87024 -0.91859,-2.29647 0,-1.66797 1.32954,-2.68325 1.32953,-1.03946 3.48097,-1.03946 1.35371,0 2.56238,0.38678 1.23284,0.38677 2.39316,1.1845 l -1.23284,1.59544 q -1.01528,-0.67685 -1.98222,-0.96694 -0.94276,-0.31425 -1.9097,-0.31425 -1.11197,0 -1.78883,0.45929 -0.67685,0.4593 -0.67685,1.20867 0,0.67686 0.45929,1.03946 0.48347,0.33843 1.57127,0.50764 l 2.22396,0.31426 q 1.813,0.2659 2.75576,1.13615 0.96694,0.87024 0.96694,2.29647 0,0.8219 -0.41095,1.5471 -0.38677,0.70103 -1.0878,1.20867 -0.67686,0.50764 -1.61962,0.82189 -0.94276,0.29008 -2.03057,0.29008 -1.59544,0 -2.9975,-0.45929 -1.37788,-0.4593 -2.39316,-1.35371 z"
     style="stroke-width:0.75"
     id="path2827" /><path
     d="m 195.3315,-397.75043 v 7.30037 q 0,1.4504 0.8219,2.29647 0.84607,0.84607 2.22395,0.84607 0.96694,0 1.74049,-0.41095 0.77354,-0.43512 1.28119,-1.20867 v -8.82329 h 2.41734 v 12.30426 h -2.41734 v -1.23284 q -0.72521,0.7252 -1.66797,1.11198 -0.91859,0.3626 -2.03057,0.3626 -2.10308,0 -3.45679,-1.35371 -1.32954,-1.35371 -1.32954,-3.48097 v -7.71132 z"
     style="stroke-width:0.75"
     id="path2829" /><path
     d="m 206.66881,-385.44617 v -12.30426 h 2.41734 v 1.57127 q 0.55599,-0.89441 1.42624,-1.35371 0.87024,-0.48347 1.95804,-0.48347 0.38678,0 0.67686,0.0484 0.29008,0.0483 0.55598,0.14504 v 2.17561 q -0.33842,-0.12087 -0.70102,-0.19339 -0.36261,-0.0725 -0.72521,-0.0725 -1.06363,0 -1.90969,0.58016 -0.8219,0.55599 -1.2812,1.66797 v 8.21895 z"
     style="stroke-width:0.75"
     id="path2831" /><path
     d="m 225.54819,-386.84822 q -1.06362,0.82189 -2.22395,1.23284 -1.16032,0.38677 -2.53821,0.38677 -1.35371,0 -2.5382,-0.48346 -1.1845,-0.50765 -2.05474,-1.35371 -0.87024,-0.84607 -1.37789,-2.0064 -0.48346,-1.18449 -0.48346,-2.5382 0,-1.32954 0.48346,-2.48986 0.48347,-1.16033 1.30537,-2.0064 0.82189,-0.84607 1.95804,-1.32953 1.13615,-0.50765 2.41734,-0.50765 1.25702,0 2.34482,0.50765 1.11198,0.48346 1.88553,1.35371 0.79772,0.84607 1.25702,2.03056 0.45929,1.1845 0.45929,2.53821 v 0.70103 h -9.71771 q 0.24174,1.52292 1.40206,2.53821 1.16032,0.9911 2.75577,0.9911 0.89441,0 1.71631,-0.29008 0.8219,-0.29008 1.40206,-0.79772 z m -5.10058,-9.06503 q -1.37789,0 -2.41734,0.91859 -1.01529,0.91859 -1.28119,2.36899 h 7.30036 q -0.2659,-1.40205 -1.28119,-2.34482 -0.99111,-0.94276 -2.32064,-0.94276 z"
     style="stroke-width:0.75"
     id="path2833" /></g><g
   aria-label="sensor"
   transform="scale(1,-1)"
   id="text239"
   style="font-style:normal;font-variant:normal;font-weight:500;font-stretch:normal;font-size:24.1734px;line-height:1.25;font-family:'Red Hat Display';-inkscape-font-specification:'Red Hat Display, Medium';font-variant-ligatures:normal;font-variant-caps:normal;font-variant-numeric:normal;font-feature-settings:normal;text-align:start;letter-spacing:0px;word-spacing:0px;writing-mode:lr-tb;text-anchor:start;fill:#000000;fill-opacity:1;stroke:none;stroke-width:0.75"><path
     d="m 132.45669,-361.29085 1.30536,-1.59544 q 0.96694,0.74937 1.95805,1.16032 1.01528,0.38677 2.05474,0.38677 1.30536,0 2.12726,-0.50764 0.82189,-0.50764 0.82189,-1.32953 0,-0.65269 -0.48347,-1.03946 -0.48346,-0.38677 -1.49875,-0.53181 l -2.22395,-0.31426 q -1.81301,-0.26591 -2.75577,-1.11198 -0.91859,-0.87024 -0.91859,-2.29647 0,-1.66796 1.32954,-2.68325 1.32954,-1.03945 3.48097,-1.03945 1.35371,0 2.56238,0.38677 1.23284,0.38678 2.39317,1.1845 l -1.23285,1.59544 q -1.01528,-0.67685 -1.98222,-0.96693 -0.94276,-0.31426 -1.90969,-0.31426 -1.11198,0 -1.78884,0.4593 -0.67685,0.45929 -0.67685,1.20867 0,0.67685 0.45929,1.03945 0.48347,0.33843 1.57127,0.50765 l 2.22396,0.31425 q 1.813,0.26591 2.75576,1.13615 0.96694,0.87024 0.96694,2.29647 0,0.8219 -0.41095,1.5471 -0.38677,0.70103 -1.0878,1.20867 -0.67686,0.50764 -1.61962,0.8219 -0.94276,0.29008 -2.03056,0.29008 -1.59545,0 -2.99751,-0.4593 -1.37788,-0.45929 -2.39316,-1.35371 z"
     style="stroke-width:0.75"
     id="path2836" /><path
     d="m 155.63892,-361.09746 q -1.06363,0.82189 -2.22396,1.23284 -1.16032,0.38678 -2.5382,0.38678 -1.35371,0 -2.53821,-0.48347 -1.1845,-0.50764 -2.05474,-1.35371 -0.87024,-0.84607 -1.37788,-2.00639 -0.48347,-1.1845 -0.48347,-2.53821 0,-1.32954 0.48347,-2.48986 0.48346,-1.16032 1.30536,-2.00639 0.8219,-0.84607 1.95805,-1.32954 1.13615,-0.50764 2.41734,-0.50764 1.25701,0 2.34482,0.50764 1.11197,0.48347 1.88552,1.35371 0.79772,0.84607 1.25702,2.03057 0.45929,1.18449 0.45929,2.5382 v 0.70103 h -9.7177 q 0.24173,1.52293 1.40205,2.53821 1.16033,0.99111 2.75577,0.99111 0.89442,0 1.71631,-0.29008 0.8219,-0.29008 1.40206,-0.79773 z m -5.10059,-9.06503 q -1.37788,0 -2.41734,0.91859 -1.01528,0.91859 -1.28119,2.369 h 7.30037 q -0.26591,-1.40206 -1.28119,-2.34482 -0.99111,-0.94277 -2.32065,-0.94277 z"
     style="stroke-width:0.75"
     id="path2838" /><path
     d="m 158.8298,-359.6954 v -12.30427 h 2.41734 v 1.23285 q 0.72521,-0.7252 1.6438,-1.0878 0.94276,-0.38678 2.05474,-0.38678 2.10308,0 3.45679,1.35371 1.35371,1.32954 1.35371,3.4568 v 7.73549 h -2.41734 v -7.32454 q 0,-1.45041 -0.84607,-2.2723 -0.82189,-0.84607 -2.19978,-0.84607 -0.96693,0 -1.76466,0.41094 -0.77354,0.41095 -1.28119,1.1845 v 8.84747 z"
     style="stroke-width:0.75"
     id="path2840" /><path
     d="m 171.37579,-361.29085 1.30536,-1.59544 q 0.96694,0.74937 1.95805,1.16032 1.01528,0.38677 2.05473,0.38677 1.30537,0 2.12726,-0.50764 0.8219,-0.50764 0.8219,-1.32953 0,-0.65269 -0.48347,-1.03946 -0.48347,-0.38677 -1.49875,-0.53181 l -2.22395,-0.31426 q -1.81301,-0.26591 -2.75577,-1.11198 -0.91859,-0.87024 -0.91859,-2.29647 0,-1.66796 1.32954,-2.68325 1.32953,-1.03945 3.48097,-1.03945 1.35371,0 2.56238,0.38677 1.23284,0.38678 2.39316,1.1845 l -1.23284,1.59544 q -1.01528,-0.67685 -1.98222,-0.96693 -0.94276,-0.31426 -1.9097,-0.31426 -1.11197,0 -1.78883,0.4593 -0.67685,0.45929 -0.67685,1.20867 0,0.67685 0.45929,1.03945 0.48347,0.33843 1.57127,0.50765 l 2.22395,0.31425 q 1.81301,0.26591 2.75577,1.13615 0.96694,0.87024 0.96694,2.29647 0,0.8219 -0.41095,1.5471 -0.38677,0.70103 -1.0878,1.20867 -0.67686,0.50764 -1.61962,0.8219 -0.94276,0.29008 -2.03057,0.29008 -1.59544,0 -2.9975,-0.4593 -1.37788,-0.45929 -2.39316,-1.35371 z"
     style="stroke-width:0.75"
     id="path2842" /><path
     d="m 183.34156,-365.85962 q 0,-1.32954 0.48346,-2.48986 0.50765,-1.1845 1.37789,-2.03057 0.87024,-0.87024 2.03056,-1.35371 1.1845,-0.50764 2.51404,-0.50764 1.32953,0 2.48986,0.50764 1.18449,0.48347 2.03056,1.35371 0.87025,0.84607 1.35371,2.03057 0.50764,1.16032 0.50764,2.48986 0,1.35371 -0.50764,2.53821 -0.48346,1.16032 -1.35371,2.03056 -0.84607,0.84607 -2.03056,1.35371 -1.16033,0.48347 -2.48986,0.48347 -1.32954,0 -2.51404,-0.48347 -1.16032,-0.50764 -2.03056,-1.35371 -0.87024,-0.87024 -1.37789,-2.03056 -0.48346,-1.1845 -0.48346,-2.53821 z m 6.40595,4.27869 q 1.66796,0 2.82829,-1.23284 1.18449,-1.25702 1.18449,-3.04585 0,-1.78883 -1.18449,-3.02168 -1.16033,-1.23284 -2.82829,-1.23284 -1.66797,0 -2.85246,1.23284 -1.1845,1.23285 -1.1845,3.02168 0,1.78883 1.16032,3.04585 1.1845,1.23284 2.87664,1.23284 z"
     style="stroke-width:0.75"
     id="path2844" /><path
     d="m 198.42576,-359.6954 v -12.30427 h 2.41734 v 1.57128 q 0.55599,-0.89442 1.42623,-1.35371 0.87024,-0.48347 1.95804,-0.48347 0.38678,0 0.67686,0.0483 0.29008,0.0483 0.55599,0.14504 v 2.17561 q -0.33843,-0.12087 -0.70103,-0.19339 -0.3626,-0.0725 -0.7252,-0.0725 -1.06363,0 -1.9097,0.58016 -0.8219,0.55599 -1.28119,1.66797 v 8.21896 z"
     style="stroke-width:0.75"
     id="path2846" /></g><g
   aria-label="Sample"
   transform="scale(1,-1)"
   id="text243"
   style="font-style:normal;font-variant:normal;font-weight:500;font-stretch:normal;font-size:24.1734px;line-height:1.25;font-family:'Red Hat Display';-inkscape-font-specification:'Red Hat Display, Medium';font-variant-ligatures:normal;font-variant-caps:normal;font-variant-numeric:normal;font-feature-settings:normal;text-align:start;letter-spacing:0px;word-spacing:0px;writing-mode:lr-tb;text-anchor:start;fill:#000000;fill-opacity:1;stroke:none;stroke-width:0.75"><path
     d="m 73.615262,-305.28242 1.547098,-1.78883 q 1.377884,1.32954 2.804114,2.00639 1.450404,0.65269 3.021675,0.65269 1.813006,0 2.949155,-0.79773 1.160324,-0.79772 1.160324,-2.03056 0,-1.11198 -0.797723,-1.71631 -0.797722,-0.62851 -2.6349,-0.94277 l -2.828288,-0.45929 q -2.320647,-0.38678 -3.48097,-1.47458 -1.13615,-1.11197 -1.13615,-2.92498 0,-2.19978 1.716312,-3.52932 1.716311,-1.32953 4.520426,-1.32953 1.813005,0 3.601836,0.60433 1.788832,0.58016 3.215063,1.69214 l -1.402058,1.93387 q -1.377883,-1.03945 -2.755767,-1.5471 -1.377884,-0.53181 -2.779941,-0.53181 -1.643792,0 -2.659074,0.70103 -1.015283,0.70103 -1.015283,1.813 0,1.03946 0.701028,1.59545 0.701029,0.53181 2.320647,0.79772 l 2.731594,0.43512 q 2.659074,0.43512 3.916091,1.59545 1.28119,1.13615 1.28119,3.09419 0,1.16032 -0.483468,2.12726 -0.483468,0.96694 -1.377884,1.64379 -0.870242,0.67686 -2.127259,1.06363 -1.257017,0.3626 -2.755768,0.3626 -2.030565,0 -3.91609,-0.79772 -1.885526,-0.79772 -3.33593,-2.24813 z"
     style="stroke-width:0.75"
     id="path2849" /><path
     d="m 94.041726,-302.26074 q -2.006393,0 -3.263409,-1.03946 -1.257017,-1.03945 -1.257017,-2.70742 0,-1.74048 1.329537,-2.73159 1.329537,-1.01529 3.650183,-1.01529 0.894416,0 1.740485,0.19339 0.846069,0.16922 1.619618,0.48347 v -1.30536 q 0,-1.30537 -0.773549,-1.95805 -0.773549,-0.65268 -2.223953,-0.65268 -0.846069,0 -1.764658,0.26591 -0.918589,0.24173 -2.054739,0.77354 l -0.894416,-1.813 q 1.377884,-0.65268 2.610727,-0.94276 1.232844,-0.31426 2.441514,-0.31426 2.393167,0 3.69853,1.16033 1.329541,1.13615 1.329541,3.23923 v 8.14644 h -2.368997 v -1.06363 q -0.821896,0.65268 -1.764658,0.96693 -0.942763,0.31426 -2.054739,0.31426 z m -2.19978,-3.79523 q 0,0.89442 0.749376,1.45041 0.773548,0.55599 2.006392,0.55599 0.966936,0 1.788832,-0.29008 0.821895,-0.29008 1.474577,-0.87025 v -2.12726 q -0.701029,-0.38677 -1.474577,-0.55598 -0.773549,-0.19339 -1.692138,-0.19339 -1.305364,0 -2.078913,0.55599 -0.773549,0.55599 -0.773549,1.47457 z"
     style="stroke-width:0.75"
     id="path2851" /><path
     d="m 103.01005,-302.4783 v -12.30426 h 2.41734 v 1.16032 q 0.67685,-0.67686 1.54709,-1.03946 0.87025,-0.3626 1.9097,-0.3626 1.23285,0 2.22396,0.55599 0.99111,0.53182 1.57127,1.49875 0.74937,-1.01528 1.78883,-1.52292 1.06363,-0.53182 2.36899,-0.53182 2.03057,0 3.31176,1.35371 1.30536,1.32954 1.30536,3.4568 v 7.73549 h -2.41734 v -7.32454 q 0,-1.45041 -0.77355,-2.2723 -0.74937,-0.84607 -2.05474,-0.84607 -0.89441,0 -1.61961,0.41095 -0.72521,0.41094 -1.25702,1.23284 0.0483,0.24173 0.0725,0.53181 0.0242,0.26591 0.0242,0.53182 v 7.73549 h -2.39316 v -7.32454 q 0,-1.45041 -0.77355,-2.2723 -0.74938,-0.84607 -2.05474,-0.84607 -0.87024,0 -1.57127,0.38677 -0.70103,0.3626 -1.20867,1.11198 v 8.94416 z"
     style="stroke-width:0.75"
     id="path2853" /><path
     d="m 124.23425,-297.47441 v -17.30815 h 2.39317 v 1.18449 q 0.74937,-0.67685 1.71631,-1.01528 0.96694,-0.3626 2.05474,-0.3626 1.30536,0 2.44151,0.50764 1.13615,0.48347 1.95805,1.32954 0.84607,0.84607 1.32954,2.00639 0.48346,1.16032 0.48346,2.48986 0,1.32954 -0.48346,2.51403 -0.48347,1.16033 -1.32954,2.0064 -0.8219,0.84607 -1.98222,1.35371 -1.16032,0.48347 -2.46569,0.48347 -1.01528,0 -1.98222,-0.31426 -0.94276,-0.31425 -1.71631,-0.89441 v 6.01917 z m 5.84997,-15.39845 q -1.03946,0 -1.93388,0.38677 -0.89441,0.38677 -1.49875,1.0878 v 5.55989 q 0.58016,0.67685 1.47458,1.06362 0.91859,0.38678 1.95805,0.38678 1.76465,0 2.94915,-1.20867 1.20867,-1.20867 1.20867,-3.02168 0,-1.813 -1.20867,-3.02167 -1.20867,-1.23284 -2.94915,-1.23284 z"
     style="stroke-width:0.75"
     id="path2855" /><path
     d="m 141.32481,-319.9315 v 17.4532 h -2.41734 v -16.92138 z"
     style="stroke-width:0.75"
     id="path2857" /><path
     d="m 154.83771,-303.88036 q -1.06363,0.8219 -2.22396,1.23284 -1.16032,0.38678 -2.5382,0.38678 -1.35371,0 -2.53821,-0.48347 -1.1845,-0.50764 -2.05474,-1.35371 -0.87024,-0.84607 -1.37788,-2.00639 -0.48347,-1.1845 -0.48347,-2.53821 0,-1.32954 0.48347,-2.48986 0.48347,-1.16032 1.30536,-2.00639 0.8219,-0.84607 1.95805,-1.32954 1.13615,-0.50764 2.41734,-0.50764 1.25701,0 2.34482,0.50764 1.11197,0.48347 1.88552,1.35371 0.79772,0.84607 1.25702,2.03057 0.45929,1.18449 0.45929,2.5382 v 0.70103 h -9.7177 q 0.24173,1.52293 1.40205,2.53821 1.16033,0.99111 2.75577,0.99111 0.89442,0 1.71631,-0.29008 0.8219,-0.29008 1.40206,-0.79772 z m -5.10059,-9.06502 q -1.37788,0 -2.41734,0.91858 -1.01528,0.91859 -1.28119,2.369 h 7.30037 q -0.26591,-1.40206 -1.28119,-2.34482 -0.99111,-0.94276 -2.32065,-0.94276 z"
     style="stroke-width:0.75"
     id="path2859" /></g><g
   aria-label="Helium"
   transform="scale(1,-1)"
   id="text247"
   style="font-style:normal;font-variant:normal;font-weight:500;font-stretch:normal;font-size:24.1734px;line-height:1.25;font-family:'Red Hat Display';-inkscape-font-specification:'Red Hat Display, Medium';font-variant-ligatures:normal;font-variant-caps:normal;font-variant-numeric:normal;font-feature-settings:normal;text-align:start;letter-spacing:0px;word-spacing:0px;writing-mode:lr-tb;text-anchor:start;fill:#000000;fill-opacity:1;stroke:none;stroke-width:0.75"><path
     d="m 81.955012,-205.85146 v -16.92138 h 2.538207 v 7.25202 h 8.992506 v -7.25202 h 2.538207 v 16.92138 h -2.538207 v -7.37288 h -8.992506 v 7.37288 z"
     style="stroke-width:0.75"
     id="path2862" /><path
     d="m 109.85108,-207.25351 q -1.06363,0.82189 -2.22395,1.23284 -1.16033,0.38677 -2.53821,0.38677 -1.35371,0 -2.53821,-0.48346 -1.18449,-0.50764 -2.05474,-1.35371 -0.870239,-0.84607 -1.37788,-2.0064 -0.483468,-1.18449 -0.483468,-2.5382 0,-1.32954 0.483468,-2.48986 0.483468,-1.16033 1.30536,-2.0064 0.8219,-0.84606 1.95805,-1.32953 1.13615,-0.50764 2.41734,-0.50764 1.25702,0 2.34482,0.50764 1.11198,0.48347 1.88552,1.35371 0.79773,0.84607 1.25702,2.03056 0.4593,1.1845 0.4593,2.53821 v 0.70103 h -9.71771 q 0.24173,1.52292 1.40206,2.53821 1.16032,0.99111 2.75576,0.99111 0.89442,0 1.71632,-0.29008 0.82189,-0.29009 1.40205,-0.79773 z m -5.10059,-9.06503 q -1.37788,0 -2.41734,0.91859 -1.01528,0.91859 -1.28119,2.36899 h 7.30037 q -0.26591,-1.40205 -1.28119,-2.34482 -0.99111,-0.94276 -2.32065,-0.94276 z"
     style="stroke-width:0.75"
     id="path2864" /><path
     d="m 115.45931,-223.30465 v 17.45319 h -2.41734 v -16.92138 z"
     style="stroke-width:0.75"
     id="path2866" /><path
     d="m 119.5204,-220.13794 q -0.60433,0 -1.03945,-0.43512 -0.43512,-0.45929 -0.43512,-1.06363 0,-0.60433 0.43512,-1.03945 0.43512,-0.4593 1.03945,-0.4593 0.60434,0 1.03946,0.4593 0.45929,0.43512 0.45929,1.03945 0,0.60434 -0.45929,1.06363 -0.43512,0.43512 -1.03946,0.43512 z m 1.20867,1.98222 v 12.30426 h -2.41734 v -12.30426 z"
     style="stroke-width:0.75"
     id="path2868" /><path
     d="m 125.95049,-218.15572 v 7.30037 q 0,1.4504 0.8219,2.29647 0.84606,0.84607 2.22395,0.84607 0.96693,0 1.74048,-0.41095 0.77355,-0.43512 1.28119,-1.20867 v -8.82329 h 2.41734 v 12.30426 h -2.41734 v -1.23284 q -0.7252,0.7252 -1.66796,1.11198 -0.91859,0.3626 -2.03057,0.3626 -2.10308,0 -3.45679,-1.35371 -1.32954,-1.35371 -1.32954,-3.48097 v -7.71132 z"
     style="stroke-width:0.75"
     id="path2870" /><path
     d="m 137.2878,-205.85146 v -12.30426 h 2.41734 v 1.16033 q 0.67686,-0.67686 1.5471,-1.03946 0.87024,-0.3626 1.9097,-0.3626 1.23284,0 2.22395,0.55599 0.99111,0.53181 1.57127,1.49875 0.74938,-1.01528 1.78883,-1.52293 1.06363,-0.53181 2.369,-0.53181 2.03056,0 3.31175,1.35371 1.30537,1.32954 1.30537,3.4568 v 7.73548 h -2.41734 v -7.32454 q 0,-1.4504 -0.77355,-2.2723 -0.74938,-0.84606 -2.05474,-0.84606 -0.89442,0 -1.61962,0.41094 -0.7252,0.41095 -1.25701,1.23285 0.0483,0.24173 0.0725,0.53181 0.0242,0.26591 0.0242,0.53182 v 7.73548 h -2.39317 v -7.32454 q 0,-1.4504 -0.77355,-2.2723 -0.74937,-0.84606 -2.05474,-0.84606 -0.87024,0 -1.57127,0.38677 -0.70103,0.3626 -1.20867,1.11198 v 8.94415 z"
     style="stroke-width:0.75"
     id="path2872" /></g><g
   id="g4008"
   transform="matrix(1.2086678,0,0,1.2086678,273.92758,-255.48066)"
   style="stroke-width:0.827357"><g
   aria-label="Capillary"
   transform="scale(1,-1)"
   id="text3960"
   style="font-style:normal;font-variant:normal;font-weight:500;font-stretch:normal;font-size:20px;line-height:1.25;font-family:'Red Hat Display';-inkscape-font-specification:'Red Hat Display, Medium';font-variant-ligatures:normal;font-variant-caps:normal;font-variant-numeric:normal;font-feature-settings:normal;text-align:start;letter-spacing:0px;word-spacing:0px;writing-mode:lr-tb;text-anchor:start;fill:#000000;fill-opacity:1;stroke:none;stroke-width:0.620518"><path
     d="m 430.38101,-471.35983 q 1.2,0 2.3,-0.48 1.1,-0.5 1.86,-1.4 l 1.38,1.4 q -1.02,1.12 -2.52,1.78 -1.48,0.64 -3.08,0.64 -1.54,0 -2.9,-0.56 -1.34,-0.56 -2.32,-1.52 -0.98,-0.98 -1.56,-2.3 -0.56,-1.34 -0.56,-2.84 0,-1.52 0.56,-2.84 0.58,-1.32 1.56,-2.28 0.98,-0.98 2.32,-1.54 1.36,-0.56 2.9,-0.56 1.64,0 3.14,0.66 1.52,0.64 2.5,1.76 l -1.4,1.44 q -0.8,-0.92 -1.92,-1.42 -1.12,-0.5 -2.32,-0.5 -1.1,0 -2.06,0.4 -0.96,0.4 -1.66,1.12 -0.68,0.7 -1.08,1.68 -0.4,0.96 -0.4,2.08 0,1.12 0.4,2.1 0.4,0.96 1.1,1.66 0.7,0.7 1.66,1.12 0.98,0.4 2.1,0.4 z"
     style="stroke-width:0.620518"
     id="path2984" /><path
     d="m 440.961,-469.45983 q -1.66,0 -2.7,-0.86 -1.04,-0.86 -1.04,-2.24 0,-1.44 1.1,-2.26 1.1,-0.84 3.02,-0.84 0.74,0 1.44,0.16 0.7,0.14 1.34,0.4 v -1.08 q 0,-1.08 -0.64,-1.62 -0.64,-0.54 -1.84,-0.54 -0.7,0 -1.46,0.22 -0.76,0.2 -1.7,0.64 l -0.74,-1.5 q 1.14,-0.54 2.16,-0.78 1.02,-0.26 2.02,-0.26 1.98,0 3.06,0.96 1.1,0.94 1.1,2.68 v 6.74 h -1.96 v -0.88 q -0.68,0.54 -1.46,0.8 -0.78,0.26 -1.7,0.26 z m -1.82,-3.14 q 0,0.74 0.62,1.2 0.64,0.46 1.66,0.46 0.8,0 1.48,-0.24 0.68,-0.24 1.22,-0.72 v -1.76 q -0.58,-0.32 -1.22,-0.46 -0.64,-0.16 -1.4,-0.16 -1.08,0 -1.72,0.46 -0.64,0.46 -0.64,1.22 z"
     style="stroke-width:0.620518"
     id="path2986" /><path
     d="m 448.38099,-465.49983 v -14.32 h 1.98 v 0.98 q 0.62,-0.56 1.42,-0.84 0.8,-0.3 1.7,-0.3 1.08,0 2.02,0.42 0.94,0.4 1.62,1.1 0.7,0.7 1.1,1.66 0.4,0.96 0.4,2.06 0,1.1 -0.4,2.08 -0.4,0.96 -1.1,1.66 -0.68,0.7 -1.64,1.12 -0.96,0.4 -2.04,0.4 -0.84,0 -1.64,-0.26 -0.78,-0.26 -1.42,-0.74 v 4.98 z m 4.84,-12.74 q -0.86,0 -1.6,0.32 -0.74,0.32 -1.24,0.9 v 4.6 q 0.48,0.56 1.22,0.88 0.76,0.32 1.62,0.32 1.46,0 2.44,-1 1,-1 1,-2.5 0,-1.5 -1,-2.5 -1,-1.02 -2.44,-1.02 z"
     style="stroke-width:0.620518"
     id="path2988" /><path
     d="m 461.52096,-481.45983 q -0.5,0 -0.86,-0.36 -0.36,-0.38 -0.36,-0.88 0,-0.5 0.36,-0.86 0.36,-0.38 0.86,-0.38 0.5,0 0.86,0.38 0.38,0.36 0.38,0.86 0,0.5 -0.38,0.88 -0.36,0.36 -0.86,0.36 z m 1,1.64 v 10.18 h -2 v -10.18 z"
     style="stroke-width:0.620518"
     id="path2990" /><path
     d="m 466.88093,-484.07983 v 14.44 h -2 v -14 z"
     style="stroke-width:0.620518"
     id="path2992" /><path
     d="m 471.2409,-484.07983 v 14.44 h -2 v -14 z"
     style="stroke-width:0.620518"
     id="path2994" /><path
     d="m 476.82087,-469.45983 q -1.66,0 -2.7,-0.86 -1.04,-0.86 -1.04,-2.24 0,-1.44 1.1,-2.26 1.1,-0.84 3.02,-0.84 0.74,0 1.44,0.16 0.7,0.14 1.34,0.4 v -1.08 q 0,-1.08 -0.64,-1.62 -0.64,-0.54 -1.84,-0.54 -0.7,0 -1.46,0.22 -0.76,0.2 -1.7,0.64 l -0.74,-1.5 q 1.14,-0.54 2.16,-0.78 1.02,-0.26 2.02,-0.26 1.98,0 3.06,0.96 1.1,0.94 1.1,2.68 v 6.74 h -1.96 v -0.88 q -0.68,0.54 -1.46,0.8 -0.78,0.26 -1.7,0.26 z m -1.82,-3.14 q 0,0.74 0.62,1.2 0.64,0.46 1.66,0.46 0.8,0 1.48,-0.24 0.68,-0.24 1.22,-0.72 v -1.76 q -0.58,-0.32 -1.22,-0.46 -0.64,-0.16 -1.4,-0.16 -1.08,0 -1.72,0.46 -0.64,0.46 -0.64,1.22 z"
     style="stroke-width:0.620518"
     id="path2996" /><path
     d="m 484.24086,-469.63983 v -10.18 h 2 v 1.3 q 0.46,-0.74 1.18,-1.12 0.72,-0.4 1.62,-0.4 0.32,0 0.56,0.04 0.24,0.04 0.46,0.12 v 1.8 q -0.28,-0.1 -0.58,-0.16 -0.3,-0.06 -0.6,-0.06 -0.88,0 -1.58,0.48 -0.68,0.46 -1.06,1.38 v 6.8 z"
     style="stroke-width:0.620518"
     id="path2998" /><path
     d="m 494.40079,-468.67983 0.4,-0.92 -4.06,-10.22 h 2.2 l 2.98,7.78 3.28,-7.78 h 2.16 l -4.92,11.4 q -0.7,1.62 -1.6,2.32 -0.9,0.72 -2.3,0.72 -0.32,0 -0.6,-0.04 -0.26,-0.02 -0.46,-0.08 v -1.76 q 0.2,0.04 0.4,0.06 0.22,0.02 0.5,0.02 0.68,0 1.18,-0.38 0.52,-0.36 0.84,-1.12 z"
     style="stroke-width:0.620518"
     id="path3000" /></g>
<g
   aria-label="to source"
   transform="scale(1,-1)"
   id="text3964"
   style="font-style:normal;font-variant:normal;font-weight:500;font-stretch:normal;font-size:20px;line-height:1.25;font-family:'Red Hat Display';-inkscape-font-specification:'Red Hat Display, Medium';font-variant-ligatures:normal;font-variant-caps:normal;font-variant-numeric:normal;font-feature-settings:normal;text-align:start;letter-spacing:0px;word-spacing:0px;writing-mode:lr-tb;text-anchor:start;fill:#000000;fill-opacity:1;stroke:none;stroke-width:0.620518"><path
     d="m 425.14102,-450.20646 v -5.98 h -2.16 v -1.68 h 2.16 v -2.6 l 1.98,-0.48 v 3.08 h 3 v 1.68 h -3 v 5.52 q 0,0.78 0.34,1.1 0.36,0.32 1.16,0.32 0.42,0 0.74,-0.04 0.34,-0.06 0.72,-0.2 v 1.68 q -0.4,0.14 -0.94,0.22 -0.52,0.08 -0.96,0.08 -1.48,0 -2.26,-0.68 -0.78,-0.7 -0.78,-2.02 z"
     style="stroke-width:0.620518"
     id="path3003" /><path
     d="m 430.92099,-452.78646 q 0,-1.1 0.4,-2.06 0.42,-0.98 1.14,-1.68 0.72,-0.72 1.68,-1.12 0.98,-0.42 2.08,-0.42 1.1,0 2.06,0.42 0.98,0.4 1.68,1.12 0.72,0.7 1.12,1.68 0.42,0.96 0.42,2.06 0,1.12 -0.42,2.1 -0.4,0.96 -1.12,1.68 -0.7,0.7 -1.68,1.12 -0.96,0.4 -2.06,0.4 -1.1,0 -2.08,-0.4 -0.96,-0.42 -1.68,-1.12 -0.72,-0.72 -1.14,-1.68 -0.4,-0.98 -0.4,-2.1 z m 5.3,3.54 q 1.38,0 2.34,-1.02 0.98,-1.04 0.98,-2.52 0,-1.48 -0.98,-2.5 -0.96,-1.02 -2.34,-1.02 -1.38,0 -2.36,1.02 -0.98,1.02 -0.98,2.5 0,1.48 0.96,2.52 0.98,1.02 2.38,1.02 z"
     style="stroke-width:0.620518"
     id="path3005" /><path
     d="m 446.62098,-449.00646 1.08,-1.32 q 0.8,0.62 1.62,0.96 0.84,0.32 1.7,0.32 1.08,0 1.76,-0.42 0.68,-0.42 0.68,-1.1 0,-0.54 -0.4,-0.86 -0.4,-0.32 -1.24,-0.44 l -1.84,-0.26 q -1.5,-0.22 -2.28,-0.92 -0.76,-0.72 -0.76,-1.9 0,-1.38 1.1,-2.22 1.1,-0.86 2.88,-0.86 1.12,0 2.12,0.32 1.02,0.32 1.98,0.98 l -1.02,1.32 q -0.84,-0.56 -1.64,-0.8 -0.78,-0.26 -1.58,-0.26 -0.92,0 -1.48,0.38 -0.56,0.38 -0.56,1 0,0.56 0.38,0.86 0.4,0.28 1.3,0.42 l 1.84,0.26 q 1.5,0.22 2.28,0.94 0.8,0.72 0.8,1.9 0,0.68 -0.34,1.28 -0.32,0.58 -0.9,1 -0.56,0.42 -1.34,0.68 -0.78,0.24 -1.68,0.24 -1.32,0 -2.48,-0.38 -1.14,-0.38 -1.98,-1.12 z"
     style="stroke-width:0.620518"
     id="path3007" /><path
     d="m 456.52093,-452.78646 q 0,-1.1 0.4,-2.06 0.42,-0.98 1.14,-1.68 0.72,-0.72 1.68,-1.12 0.98,-0.42 2.08,-0.42 1.1,0 2.06,0.42 0.98,0.4 1.68,1.12 0.72,0.7 1.12,1.68 0.42,0.96 0.42,2.06 0,1.12 -0.42,2.1 -0.4,0.96 -1.12,1.68 -0.7,0.7 -1.68,1.12 -0.96,0.4 -2.06,0.4 -1.1,0 -2.08,-0.4 -0.96,-0.42 -1.68,-1.12 -0.72,-0.72 -1.14,-1.68 -0.4,-0.98 -0.4,-2.1 z m 5.3,3.54 q 1.38,0 2.34,-1.02 0.98,-1.04 0.98,-2.52 0,-1.48 -0.98,-2.5 -0.96,-1.02 -2.34,-1.02 -1.38,0 -2.36,1.02 -0.98,1.02 -0.98,2.5 0,1.48 0.96,2.52 0.98,1.02 2.38,1.02 z"
     style="stroke-width:0.620518"
     id="path3009" /><path
     d="m 470.96092,-457.86646 v 6.04 q 0,1.2 0.68,1.9 0.7,0.7 1.84,0.7 0.8,0 1.44,-0.34 0.64,-0.36 1.06,-1 v -7.3 h 2 v 10.18 h -2 v -1.02 q -0.6,0.6 -1.38,0.92 -0.76,0.3 -1.68,0.3 -1.74,0 -2.86,-1.12 -1.1,-1.12 -1.1,-2.88 v -6.38 z"
     style="stroke-width:0.620518"
     id="path3011" /><path
     d="m 480.34091,-447.68646 v -10.18 h 2 v 1.3 q 0.46,-0.74 1.18,-1.12 0.72,-0.4 1.62,-0.4 0.32,0 0.56,0.04 0.24,0.04 0.46,0.12 v 1.8 q -0.28,-0.1 -0.58,-0.16 -0.3,-0.06 -0.6,-0.06 -0.88,0 -1.58,0.48 -0.68,0.46 -1.06,1.38 v 6.8 z"
     style="stroke-width:0.620518"
     id="path3013" /><path
     d="m 492.00088,-449.26646 q 0.76,0 1.44,-0.3 0.68,-0.32 1.3,-0.94 l 1.2,1.3 q -0.8,0.8 -1.84,1.26 -1.04,0.44 -2.18,0.44 -1.1,0 -2.06,-0.4 -0.96,-0.42 -1.66,-1.12 -0.7,-0.7 -1.12,-1.66 -0.4,-0.98 -0.4,-2.1 0,-1.1 0.4,-2.06 0.42,-0.98 1.12,-1.68 0.7,-0.72 1.66,-1.12 0.96,-0.42 2.06,-0.42 1.14,0 2.22,0.46 1.08,0.44 1.88,1.24 l -1.26,1.36 q -0.58,-0.62 -1.3,-0.94 -0.72,-0.34 -1.5,-0.34 -1.38,0 -2.34,1.02 -0.96,1.02 -0.96,2.48 0,1.5 0.96,2.52 0.98,1 2.38,1 z"
     style="stroke-width:0.620518"
     id="path3015" /><path
     d="m 505.98087,-448.84646 q -0.88,0.68 -1.84,1.02 -0.96,0.32 -2.1,0.32 -1.12,0 -2.1,-0.4 -0.98,-0.42 -1.7,-1.12 -0.72,-0.7 -1.14,-1.66 -0.4,-0.98 -0.4,-2.1 0,-1.1 0.4,-2.06 0.4,-0.96 1.08,-1.66 0.68,-0.7 1.62,-1.1 0.94,-0.42 2,-0.42 1.04,0 1.94,0.42 0.92,0.4 1.56,1.12 0.66,0.7 1.04,1.68 0.38,0.98 0.38,2.1 v 0.58 h -8.04 q 0.2,1.26 1.16,2.1 0.96,0.82 2.28,0.82 0.74,0 1.42,-0.24 0.68,-0.24 1.16,-0.66 z m -4.22,-7.5 q -1.14,0 -2,0.76 -0.84,0.76 -1.06,1.96 h 6.04 q -0.22,-1.16 -1.06,-1.94 -0.82,-0.78 -1.92,-0.78 z"
     style="stroke-width:0.620518"
     id="path3017" /></g>
</g><g
   id="g4014"
   transform="matrix(1.2086678,0,0,1.2086678,7.7389665,54.526458)"
   style="stroke-width:0.827357"><g
   aria-label="Vacuum"
   transform="scale(1,-1)"
   id="text3968"
   style="font-style:normal;font-variant:normal;font-weight:500;font-stretch:normal;font-size:20px;line-height:1.25;font-family:'Red Hat Display';-inkscape-font-specification:'Red Hat Display, Medium';font-variant-ligatures:normal;font-variant-caps:normal;font-variant-numeric:normal;font-feature-settings:normal;text-align:start;letter-spacing:0px;word-spacing:0px;writing-mode:lr-tb;text-anchor:start;fill:#000000;fill-opacity:1;stroke:none;stroke-width:0.620518"><path
     d="m 260.86712,-94.385605 -5.72,-13.999995 h 2.26 l 4.74,11.919995 4.82,-11.919995 h 2.16 l -5.8,13.999995 z"
     style="stroke-width:0.620518"
     id="path2875" /><path
     d="m 272.30708,-94.205605 q -1.66,0 -2.7,-0.86 -1.04,-0.86 -1.04,-2.24 0,-1.44 1.1,-2.26 1.1,-0.839995 3.02,-0.839995 0.74,0 1.44,0.16 0.7,0.14 1.34,0.399995 v -1.079995 q 0,-1.08 -0.64,-1.62 -0.64,-0.54 -1.84,-0.54 -0.7,0 -1.46,0.22 -0.76,0.2 -1.7,0.64 l -0.74,-1.5 q 1.14,-0.54 2.16,-0.78 1.02,-0.26 2.02,-0.26 1.98,0 3.06,0.96 1.1,0.94 1.1,2.68 v 6.739995 h -1.96 v -0.88 q -0.68,0.54 -1.46,0.8 -0.78,0.26 -1.7,0.26 z m -1.82,-3.14 q 0,0.74 0.62,1.2 0.64,0.46 1.66,0.46 0.8,0 1.48,-0.24 0.68,-0.24 1.22,-0.72 v -1.76 q -0.58,-0.32 -1.22,-0.46 -0.64,-0.16 -1.4,-0.16 -1.08,0 -1.72,0.46 -0.64,0.46 -0.64,1.22 z"
     style="stroke-width:0.620518"
     id="path2877" /><path
     d="m 284.58707,-95.965605 q 0.76,0 1.44,-0.3 0.68,-0.32 1.3,-0.94 l 1.2,1.3 q -0.8,0.8 -1.84,1.26 -1.04,0.44 -2.18,0.44 -1.1,0 -2.06,-0.4 -0.96,-0.42 -1.66,-1.12 -0.7,-0.7 -1.12,-1.66 -0.4,-0.98 -0.4,-2.1 0,-1.099995 0.4,-2.059995 0.42,-0.98 1.12,-1.68 0.7,-0.72 1.66,-1.12 0.96,-0.42 2.06,-0.42 1.14,0 2.22,0.46 1.08,0.44 1.88,1.24 l -1.26,1.36 q -0.58,-0.62 -1.3,-0.94 -0.72,-0.34 -1.5,-0.34 -1.38,0 -2.34,1.02 -0.96,1.02 -0.96,2.479995 0,1.5 0.96,2.52 0.98,1 2.38,1 z"
     style="stroke-width:0.620518"
     id="path2879" /><path
     d="m 292.10707,-104.5656 v 6.039995 q 0,1.2 0.68,1.9 0.7,0.7 1.84,0.7 0.8,0 1.44,-0.34 0.64,-0.36 1.06,-1 v -7.299995 h 2 v 10.179995 h -2 v -1.02 q -0.6,0.6 -1.38,0.92 -0.76,0.3 -1.68,0.3 -1.74,0 -2.86,-1.12 -1.1,-1.12 -1.1,-2.88 v -6.379995 z"
     style="stroke-width:0.620518"
     id="path2881" /><path
     d="m 303.44706,-104.5656 v 6.039995 q 0,1.2 0.68,1.9 0.7,0.7 1.84,0.7 0.8,0 1.44,-0.34 0.64,-0.36 1.06,-1 v -7.299995 h 2 v 10.179995 h -2 v -1.02 q -0.6,0.6 -1.38,0.92 -0.76,0.3 -1.68,0.3 -1.74,0 -2.86,-1.12 -1.1,-1.12 -1.1,-2.88 v -6.379995 z"
     style="stroke-width:0.620518"
     id="path2883" /><path
     d="M 312.82705,-94.385605 V -104.5656 h 2 v 0.96 q 0.56,-0.56 1.28,-0.86 0.72,-0.3 1.58,-0.3 1.02,0 1.84,0.46 0.82,0.44 1.3,1.24 0.62,-0.84 1.48,-1.26 0.88,-0.44 1.96,-0.44 1.68,0 2.74,1.12 1.08,1.1 1.08,2.86 v 6.399995 h -2 v -6.059995 q 0,-1.2 -0.64,-1.88 -0.62,-0.7 -1.7,-0.7 -0.74,0 -1.34,0.34 -0.6,0.34 -1.04,1.02 0.04,0.2 0.06,0.44 0.02,0.22 0.02,0.44 v 6.399995 h -1.98 v -6.059995 q 0,-1.2 -0.64,-1.88 -0.62,-0.7 -1.7,-0.7 -0.72,0 -1.3,0.32 -0.58,0.3 -1,0.92 v 7.399995 z"
     style="stroke-width:0.620518"
     id="path2885" /></g>
<g
   aria-label="pump"
   transform="scale(1,-1)"
   id="text3972"
   style="font-style:normal;font-variant:normal;font-weight:500;font-stretch:normal;font-size:20px;line-height:1.25;font-family:'Red Hat Display';-inkscape-font-specification:'Red Hat Display, Medium';font-variant-ligatures:normal;font-variant-caps:normal;font-variant-numeric:normal;font-feature-settings:normal;text-align:start;letter-spacing:0px;word-spacing:0px;writing-mode:lr-tb;text-anchor:start;fill:#000000;fill-opacity:1;stroke:none;stroke-width:0.620518"><path
     d="m 255.14712,-68.864242 v -14.32 h 1.98 v 0.98 q 0.62,-0.56 1.42,-0.84 0.8,-0.3 1.7,-0.3 1.08,0 2.02,0.42 0.94,0.4 1.62,1.1 0.7,0.7 1.1,1.66 0.4,0.96 0.4,2.06 0,1.1 -0.4,2.08 -0.4,0.96 -1.1,1.66 -0.68,0.7 -1.64,1.12 -0.96,0.4 -2.04,0.4 -0.84,0 -1.64,-0.26 -0.78,-0.26 -1.42,-0.74 v 4.98 z m 4.84,-12.74 q -0.86,0 -1.6,0.32 -0.74,0.32 -1.24,0.9 v 4.6 q 0.48,0.56 1.22,0.88 0.76,0.32 1.62,0.32 1.46,0 2.44,-1 1,-1 1,-2.5 0,-1.5 -1,-2.5 -1,-1.02 -2.44,-1.02 z"
     style="stroke-width:0.620518"
     id="path2888" /><path
     d="m 269.24709,-83.184242 v 6.04 q 0,1.2 0.68,1.9 0.7,0.7 1.84,0.7 0.8,0 1.44,-0.34 0.64,-0.36 1.06,-1 v -7.3 h 2 v 10.18 h -2 v -1.02 q -0.6,0.6 -1.38,0.92 -0.76,0.3 -1.68,0.3 -1.74,0 -2.86,-1.12 -1.1,-1.12 -1.1,-2.88 v -6.38 z"
     style="stroke-width:0.620518"
     id="path2890" /><path
     d="m 278.62707,-73.004242 v -10.18 h 2 v 0.96 q 0.56,-0.56 1.28,-0.86 0.72,-0.3 1.58,-0.3 1.02,0 1.84,0.46 0.82,0.44 1.3,1.24 0.62,-0.84 1.48,-1.26 0.88,-0.44 1.96,-0.44 1.68,0 2.74,1.12 1.08,1.1 1.08,2.86 v 6.4 h -2 v -6.06 q 0,-1.2 -0.64,-1.88 -0.62,-0.7 -1.7,-0.7 -0.74,0 -1.34,0.34 -0.6,0.34 -1.04,1.02 0.04,0.2 0.06,0.44 0.02,0.22 0.02,0.44 v 6.4 h -1.98 v -6.06 q 0,-1.2 -0.64,-1.88 -0.62,-0.7 -1.7,-0.7 -0.72,0 -1.3,0.32 -0.58,0.3 -1,0.92 v 7.4 z"
     style="stroke-width:0.620518"
     id="path2892" /><path
     d="m 296.18704,-68.864242 v -14.32 h 1.98 v 0.98 q 0.62,-0.56 1.42,-0.84 0.8,-0.3 1.7,-0.3 1.08,0 2.02,0.42 0.94,0.4 1.62,1.1 0.7,0.7 1.1,1.66 0.4,0.96 0.4,2.06 0,1.1 -0.4,2.08 -0.4,0.96 -1.1,1.66 -0.68,0.7 -1.64,1.12 -0.96,0.4 -2.04,0.4 -0.84,0 -1.64,-0.26 -0.78,-0.26 -1.42,-0.74 v 4.98 z m 4.84,-12.74 q -0.86,0 -1.6,0.32 -0.74,0.32 -1.24,0.9 v 4.6 q 0.48,0.56 1.22,0.88 0.76,0.32 1.62,0.32 1.46,0 2.44,-1 1,-1 1,-2.5 0,-1.5 -1,-2.5 -1,-1.02 -2.44,-1.02 z"
     style="stroke-width:0.620518"
     id="path2894" /></g>
</g><g
   id="g4027"
   transform="matrix(1.2086678,0,0,1.2086678,-137.45482,24.535931)"
   style="stroke-width:0.827357"><g
   aria-label="Variable"
   transform="scale(1,-1)"
   id="text3976"
   style="font-style:normal;font-variant:normal;font-weight:500;font-stretch:normal;font-size:20px;line-height:1.25;font-family:'Red Hat Display';-inkscape-font-specification:'Red Hat Display, Medium';font-variant-ligatures:normal;font-variant-caps:normal;font-variant-numeric:normal;font-feature-settings:normal;text-align:start;letter-spacing:0px;word-spacing:0px;writing-mode:lr-tb;text-anchor:start;fill:#000000;fill-opacity:1;stroke:none;stroke-width:0.620518"><path
     d="m 617.24427,-117.83899 -5.72,-14 h 2.26 l 4.74,11.92 4.82,-11.92 h 2.16 l -5.8,14 z"
     style="stroke-width:0.620518"
     id="path2954" /><path
     d="m 628.68423,-117.65899 q -1.66,0 -2.7,-0.86 -1.04,-0.86 -1.04,-2.24 0,-1.44 1.1,-2.26 1.1,-0.84 3.02,-0.84 0.74,0 1.44,0.16 0.7,0.14 1.34,0.4 v -1.08 q 0,-1.08 -0.64,-1.62 -0.64,-0.54 -1.84,-0.54 -0.7,0 -1.46,0.22 -0.76,0.2 -1.7,0.64 l -0.74,-1.5 q 1.14,-0.54 2.16,-0.78 1.02,-0.26 2.02,-0.26 1.98,0 3.06,0.96 1.1,0.94 1.1,2.68 v 6.74 h -1.96 v -0.88 q -0.68,0.54 -1.46,0.8 -0.78,0.26 -1.7,0.26 z m -1.82,-3.14 q 0,0.74 0.62,1.2 0.64,0.46 1.66,0.46 0.8,0 1.48,-0.24 0.68,-0.24 1.22,-0.72 v -1.76 q -0.58,-0.32 -1.22,-0.46 -0.64,-0.16 -1.4,-0.16 -1.08,0 -1.72,0.46 -0.64,0.46 -0.64,1.22 z"
     style="stroke-width:0.620518"
     id="path2956" /><path
     d="m 636.10422,-117.83899 v -10.18 h 2 v 1.3 q 0.46,-0.74 1.18,-1.12 0.72,-0.4 1.62,-0.4 0.32,0 0.56,0.04 0.24,0.04 0.46,0.12 v 1.8 q -0.28,-0.1 -0.58,-0.16 -0.3,-0.06 -0.6,-0.06 -0.88,0 -1.58,0.48 -0.68,0.46 -1.06,1.38 v 6.8 z"
     style="stroke-width:0.620518"
     id="path2958" /><path
     d="m 644.52419,-129.65899 q -0.5,0 -0.86,-0.36 -0.36,-0.38 -0.36,-0.88 0,-0.5 0.36,-0.86 0.36,-0.38 0.86,-0.38 0.5,0 0.86,0.38 0.38,0.36 0.38,0.86 0,0.5 -0.38,0.88 -0.36,0.36 -0.86,0.36 z m 1,1.64 v 10.18 h -2 v -10.18 z"
     style="stroke-width:0.620518"
     id="path2960" /><path
     d="m 651.10416,-117.65899 q -1.66,0 -2.7,-0.86 -1.04,-0.86 -1.04,-2.24 0,-1.44 1.1,-2.26 1.1,-0.84 3.02,-0.84 0.74,0 1.44,0.16 0.7,0.14 1.34,0.4 v -1.08 q 0,-1.08 -0.64,-1.62 -0.64,-0.54 -1.84,-0.54 -0.7,0 -1.46,0.22 -0.76,0.2 -1.7,0.64 l -0.74,-1.5 q 1.14,-0.54 2.16,-0.78 1.02,-0.26 2.02,-0.26 1.98,0 3.06,0.96 1.1,0.94 1.1,2.68 v 6.74 h -1.96 v -0.88 q -0.68,0.54 -1.46,0.8 -0.78,0.26 -1.7,0.26 z m -1.82,-3.14 q 0,0.74 0.62,1.2 0.64,0.46 1.66,0.46 0.8,0 1.48,-0.24 0.68,-0.24 1.22,-0.72 v -1.76 q -0.58,-0.32 -1.22,-0.46 -0.64,-0.16 -1.4,-0.16 -1.08,0 -1.72,0.46 -0.64,0.46 -0.64,1.22 z"
     style="stroke-width:0.620518"
     id="path2962" /><path
     d="m 668.76415,-122.93899 q 0,1.1 -0.4,2.08 -0.4,0.96 -1.1,1.66 -0.68,0.7 -1.64,1.12 -0.96,0.4 -2.04,0.4 -0.86,0 -1.64,-0.26 -0.78,-0.26 -1.44,-0.76 v 0.86 h -1.98 v -14 l 2,-0.44 v 5.22 q 0.62,-0.54 1.42,-0.82 0.8,-0.3 1.68,-0.3 1.08,0 2.02,0.42 0.94,0.4 1.62,1.1 0.7,0.7 1.1,1.66 0.4,0.96 0.4,2.06 z m -5.4,-3.5 q -0.86,0 -1.6,0.32 -0.74,0.32 -1.24,0.9 v 4.6 q 0.48,0.56 1.22,0.88 0.76,0.32 1.62,0.32 1.46,0 2.44,-1 1,-1 1,-2.5 0,-1.5 -1,-2.5 -1,-1.02 -2.44,-1.02 z"
     style="stroke-width:0.620518"
     id="path2964" /><path
     d="m 672.66412,-132.27899 v 14.44 h -2 v -14 z"
     style="stroke-width:0.620518"
     id="path2966" /><path
     d="m 683.84409,-118.99899 q -0.88,0.68 -1.84,1.02 -0.96,0.32 -2.1,0.32 -1.12,0 -2.1,-0.4 -0.98,-0.42 -1.7,-1.12 -0.72,-0.7 -1.14,-1.66 -0.4,-0.98 -0.4,-2.1 0,-1.1 0.4,-2.06 0.4,-0.96 1.08,-1.66 0.68,-0.7 1.62,-1.1 0.94,-0.42 2,-0.42 1.04,0 1.94,0.42 0.92,0.4 1.56,1.12 0.66,0.7 1.04,1.68 0.38,0.98 0.38,2.1 v 0.58 h -8.04 q 0.2,1.26 1.16,2.1 0.96,0.82 2.28,0.82 0.74,0 1.42,-0.24 0.68,-0.24 1.16,-0.66 z m -4.22,-7.5 q -1.14,0 -2,0.76 -0.84,0.76 -1.06,1.96 h 6.04 q -0.22,-1.16 -1.06,-1.94 -0.82,-0.78 -1.92,-0.78 z"
     style="stroke-width:0.620518"
     id="path2968" /></g>
<g
   aria-label="volume"
   transform="scale(1,-1)"
   id="text3980"
   style="font-style:normal;font-variant:normal;font-weight:500;font-stretch:normal;font-size:20px;line-height:1.25;font-family:'Red Hat Display';-inkscape-font-specification:'Red Hat Display, Medium';font-variant-ligatures:normal;font-variant-caps:normal;font-variant-numeric:normal;font-feature-settings:normal;text-align:start;letter-spacing:0px;word-spacing:0px;writing-mode:lr-tb;text-anchor:start;fill:#000000;fill-opacity:1;stroke:none;stroke-width:0.620518"><path
     d="m 615.92429,-93.877121 -4.4,-10.179999 h 2.2 l 3.18,7.619999 3.18,-7.619999 h 2.14 l -4.4,10.179999 z"
     style="stroke-width:0.620518"
     id="path2971" /><path
     d="m 622.60425,-98.977121 q 0,-1.099999 0.4,-2.059999 0.42,-0.98 1.14,-1.68 0.72,-0.72 1.68,-1.12 0.98,-0.42 2.08,-0.42 1.1,0 2.06,0.42 0.98,0.4 1.68,1.12 0.72,0.7 1.12,1.68 0.42,0.96 0.42,2.059999 0,1.12 -0.42,2.1 -0.4,0.96 -1.12,1.68 -0.7,0.7 -1.68,1.12 -0.96,0.4 -2.06,0.4 -1.1,0 -2.08,-0.4 -0.96,-0.42 -1.68,-1.12 -0.72,-0.72 -1.14,-1.68 -0.4,-0.98 -0.4,-2.1 z m 5.3,3.54 q 1.38,0 2.34,-1.02 0.98,-1.04 0.98,-2.52 0,-1.479999 -0.98,-2.499999 -0.96,-1.02 -2.34,-1.02 -1.38,0 -2.36,1.02 -0.98,1.02 -0.98,2.499999 0,1.48 0.96,2.52 0.98,1.02 2.38,1.02 z"
     style="stroke-width:0.620518"
     id="path2973" /><path
     d="m 637.08425,-108.31712 v 14.439999 h -2 v -13.999999 z"
     style="stroke-width:0.620518"
     id="path2975" /><path
     d="m 641.40422,-104.05712 v 6.039999 q 0,1.2 0.68,1.9 0.7,0.7 1.84,0.7 0.8,0 1.44,-0.34 0.64,-0.36 1.06,-1 v -7.299999 h 2 v 10.179999 h -2 v -1.02 q -0.6,0.6 -1.38,0.92 -0.76,0.3 -1.68,0.3 -1.74,0 -2.86,-1.12 -1.1,-1.12 -1.1,-2.88 v -6.379999 z"
     style="stroke-width:0.620518"
     id="path2977" /><path
     d="m 650.78421,-93.877121 v -10.179999 h 2 v 0.96 q 0.56,-0.56 1.28,-0.86 0.72,-0.3 1.58,-0.3 1.02,0 1.84,0.46 0.82,0.44 1.3,1.24 0.62,-0.84 1.48,-1.26 0.88,-0.44 1.96,-0.44 1.68,0 2.74,1.12 1.08,1.1 1.08,2.86 v 6.399999 h -2 v -6.06 q 0,-1.199999 -0.64,-1.879999 -0.62,-0.7 -1.7,-0.7 -0.74,0 -1.34,0.34 -0.6,0.34 -1.04,1.02 0.04,0.2 0.06,0.44 0.02,0.22 0.02,0.44 v 6.399999 h -1.98 v -6.06 q 0,-1.199999 -0.64,-1.879999 -0.62,-0.7 -1.7,-0.7 -0.72,0 -1.3,0.32 -0.58,0.3 -1,0.92 v 7.399999 z"
     style="stroke-width:0.620518"
     id="path2979" /><path
     d="m 677.16418,-95.037121 q -0.88,0.68 -1.84,1.02 -0.96,0.32 -2.1,0.32 -1.12,0 -2.1,-0.4 -0.98,-0.42 -1.7,-1.12 -0.72,-0.7 -1.14,-1.66 -0.4,-0.98 -0.4,-2.1 0,-1.099999 0.4,-2.059999 0.4,-0.96 1.08,-1.66 0.68,-0.7 1.62,-1.1 0.94,-0.42 2,-0.42 1.04,0 1.94,0.42 0.92,0.4 1.56,1.12 0.66,0.7 1.04,1.68 0.38,0.98 0.38,2.099999 v 0.58 h -8.04 q 0.2,1.26 1.16,2.1 0.96,0.82 2.28,0.82 0.74,0 1.42,-0.24 0.68,-0.24 1.16,-0.66 z m -4.22,-7.499999 q -1.14,0 -2,0.76 -0.84,0.76 -1.06,1.959999 h 6.04 q -0.22,-1.159999 -1.06,-1.939999 -0.82,-0.78 -1.92,-0.78 z"
     style="stroke-width:0.620518"
     id="path2981" /></g>
</g><g
   id="g4021"
   transform="matrix(1.2086678,0,0,1.2086678,-238.39907,48.734895)"
   style="stroke-width:0.827357"><g
   aria-label="LN2"
   transform="scale(1,-1)"
   id="text3992"
   style="font-style:normal;font-variant:normal;font-weight:500;font-stretch:normal;font-size:20px;line-height:1.25;font-family:'Red Hat Display';-inkscape-font-specification:'Red Hat Display, Medium';font-variant-ligatures:normal;font-variant-caps:normal;font-variant-numeric:normal;font-feature-settings:normal;text-align:start;letter-spacing:0px;word-spacing:0px;writing-mode:lr-tb;text-anchor:start;fill:#000000;fill-opacity:1;stroke:none;stroke-width:0.620518"><path
     d="m 746.78023,-175.04237 v -14 h 2.1 v 12.14 h 8.06 v 1.86 z"
     style="stroke-width:0.620518"
     id="path2938" /><path
     d="m 759.0602,-189.04237 h 2.06 l 7.8,10.38 v -10.38 h 1.98 v 14 h -1.84 l -8.02,-10.72 v 10.72 h -1.98 z"
     style="stroke-width:0.620518"
     id="path2940" /><path
     d="m 772.82117,-171.04237 v -0.936 l 3.51,-3.263 q 0.78,-0.741 1.079,-1.235 0.312,-0.494 0.312,-1.04 0,-0.702 -0.546,-1.157 -0.533,-0.468 -1.352,-0.468 -0.663,0 -1.235,0.26 -0.572,0.26 -1.248,0.858 l -0.741,-0.884 q 0.754,-0.676 1.573,-1.014 0.819,-0.338 1.677,-0.338 0.689,0 1.261,0.195 0.585,0.195 0.988,0.559 0.416,0.351 0.65,0.845 0.234,0.481 0.234,1.066 0,0.78 -0.39,1.443 -0.377,0.663 -1.43,1.638 l -2.561,2.366 h 4.524 v 1.105 z"
     style="font-size:65%;baseline-shift:sub;stroke-width:0.620518"
     id="path2942" /></g>
<g
   aria-label="trap"
   transform="scale(1,-1)"
   id="text3996"
   style="font-style:normal;font-variant:normal;font-weight:500;font-stretch:normal;font-size:20px;line-height:1.25;font-family:'Red Hat Display';-inkscape-font-specification:'Red Hat Display, Medium';font-variant-ligatures:normal;font-variant-caps:normal;font-variant-numeric:normal;font-feature-settings:normal;text-align:start;letter-spacing:0px;word-spacing:0px;writing-mode:lr-tb;text-anchor:start;fill:#000000;fill-opacity:1;stroke:none;stroke-width:0.620518"><path
     d="m 748.94025,-155.11323 v -5.98 h -2.16 v -1.68 h 2.16 v -2.6 l 1.98,-0.48 v 3.08 h 3 v 1.68 h -3 v 5.52 q 0,0.78 0.34,1.1 0.36,0.32 1.16,0.32 0.42,0 0.74,-0.04 0.34,-0.06 0.72,-0.2 v 1.68 q -0.4,0.14 -0.94,0.22 -0.52,0.08 -0.96,0.08 -1.48,0 -2.26,-0.68 -0.78,-0.7 -0.78,-2.02 z"
     style="stroke-width:0.620518"
     id="path2945" /><path
     d="m 755.40025,-152.59323 v -10.18 h 2 v 1.3 q 0.46,-0.74 1.18,-1.12 0.72,-0.4 1.62,-0.4 0.32,0 0.56,0.04 0.24,0.04 0.46,0.12 v 1.8 q -0.28,-0.1 -0.58,-0.16 -0.3,-0.06 -0.6,-0.06 -0.88,0 -1.58,0.48 -0.68,0.46 -1.06,1.38 v 6.8 z"
     style="stroke-width:0.620518"
     id="path2947" /><path
     d="m 765.62018,-152.41323 q -1.66,0 -2.7,-0.86 -1.04,-0.86 -1.04,-2.24 0,-1.44 1.1,-2.26 1.1,-0.84 3.02,-0.84 0.74,0 1.44,0.16 0.7,0.14 1.34,0.4 v -1.08 q 0,-1.08 -0.64,-1.62 -0.64,-0.54 -1.84,-0.54 -0.7,0 -1.46,0.22 -0.76,0.2 -1.7,0.64 l -0.74,-1.5 q 1.14,-0.54 2.16,-0.78 1.02,-0.26 2.02,-0.26 1.98,0 3.06,0.96 1.1,0.94 1.1,2.68 v 6.74 h -1.96 v -0.88 q -0.68,0.54 -1.46,0.8 -0.78,0.26 -1.7,0.26 z m -1.82,-3.14 q 0,0.74 0.62,1.2 0.64,0.46 1.66,0.46 0.8,0 1.48,-0.24 0.68,-0.24 1.22,-0.72 v -1.76 q -0.58,-0.32 -1.22,-0.46 -0.64,-0.16 -1.4,-0.16 -1.08,0 -1.72,0.46 -0.64,0.46 -0.64,1.22 z"
     style="stroke-width:0.620518"
     id="path2949" /><path
     d="m 773.04017,-148.45323 v -14.32 h 1.98 v 0.98 q 0.62,-0.56 1.42,-0.84 0.8,-0.3 1.7,-0.3 1.08,0 2.02,0.42 0.94,0.4 1.62,1.1 0.7,0.7 1.1,1.66 0.4,0.96 0.4,2.06 0,1.1 -0.4,2.08 -0.4,0.96 -1.1,1.66 -0.68,0.7 -1.64,1.12 -0.96,0.4 -2.04,0.4 -0.84,0 -1.64,-0.26 -0.78,-0.26 -1.42,-0.74 v 4.98 z m 4.84,-12.74 q -0.86,0 -1.6,0.32 -0.74,0.32 -1.24,0.9 v 4.6 q 0.48,0.56 1.22,0.88 0.76,0.32 1.62,0.32 1.46,0 2.44,-1 1,-1 1,-2.5 0,-1.5 -1,-2.5 -1,-1.02 -2.44,-1.02 z"
     style="stroke-width:0.620518"
     id="path2951" /></g>
</g></g></svg>
