<?xml version="1.0" encoding="UTF-8" standalone="no"?>
<svg
   xmlns:dc="http://purl.org/dc/elements/1.1/"
   xmlns:cc="http://creativecommons.org/ns#"
   xmlns:rdf="http://www.w3.org/1999/02/22-rdf-syntax-ns#"
   xmlns:svg="http://www.w3.org/2000/svg"
   xmlns="http://www.w3.org/2000/svg"
   xmlns:sodipodi="http://sodipodi.sourceforge.net/DTD/sodipodi-0.dtd"
   xmlns:inkscape="http://www.inkscape.org/namespaces/inkscape"
   width="11in"
   height="4in"
   viewBox="0 0 279.39999 101.6"
   version="1.1"
   id="svg8"
   inkscape:version="1.0.2 (1.0.2+r75+1)"
   sodipodi:docname="inlet_flow_diag.svg"
   inkscape:export-filename="/home/brett/Projects/HybridGIS/doc/SNEAP2021/images/inlet_flow_diag.png"
   inkscape:export-xdpi="96"
   inkscape:export-ydpi="96">
  <defs
     id="defs2">
    <marker
       style="overflow:visible"
       id="marker1326"
       refX="0"
       refY="0"
       orient="auto"
       inkscape:stockid="Arrow1Mend"
       inkscape:isstock="true">
      <path
         transform="matrix(-0.4,0,0,-0.4,-4,0)"
         style="fill:#000000;fill-opacity:1;fill-rule:evenodd;stroke:#000000;stroke-width:1pt;stroke-opacity:1"
         d="M 0,0 5,-5 -12.5,0 5,5 Z"
         id="path1324" />
    </marker>
    <marker
       style="overflow:visible"
       id="marker1316"
       refX="0"
       refY="0"
       orient="auto"
       inkscape:stockid="Arrow1Mend"
       inkscape:isstock="true">
      <path
         transform="matrix(-0.4,0,0,-0.4,-4,0)"
         style="fill:#000000;fill-opacity:1;fill-rule:evenodd;stroke:#000000;stroke-width:1pt;stroke-opacity:1"
         d="M 0,0 5,-5 -12.5,0 5,5 Z"
         id="path1314" />
    </marker>
    <marker
       style="overflow:visible"
       id="marker1262"
       refX="0"
       refY="0"
       orient="auto"
       inkscape:stockid="Arrow1Send"
       inkscape:isstock="true">
      <path
         transform="matrix(-0.2,0,0,-0.2,-1.2,0)"
         style="fill:#000000;fill-opacity:1;fill-rule:evenodd;stroke:#000000;stroke-width:1pt;stroke-opacity:1"
         d="M 0,0 5,-5 -12.5,0 5,5 Z"
         id="path1260" />
    </marker>
    <marker
       style="overflow:visible"
       id="marker1252"
       refX="0"
       refY="0"
       orient="auto"
       inkscape:stockid="Arrow1Send"
       inkscape:isstock="true">
      <path
         transform="matrix(-0.2,0,0,-0.2,-1.2,0)"
         style="fill:#000000;fill-opacity:1;fill-rule:evenodd;stroke:#000000;stroke-width:1pt;stroke-opacity:1"
         d="M 0,0 5,-5 -12.5,0 5,5 Z"
         id="path1250" />
    </marker>
    <rect
       x="79.547813"
       y="90.295761"
       width="3.2037289"
       height="7.2630782"
       id="rect900" />
    <g
       id="g9415">
      <symbol
         overflow="visible"
         id="symbol3644">
        <path
           style="stroke:none"
           d=""
           id="path774" />
      </symbol>
      <symbol
         overflow="visible"
         id="symbol7848">
        <path
           style="stroke:none"
           d="m 0.84375,-0.4375 c -0.015625,0.09375 -0.0625,0.265625 -0.0625,0.28125 0,0.15625 0.125,0.21875 0.234375,0.21875 0.125,0 0.234375,-0.078125 0.28125,-0.140625 0.03125,-0.0625 0.078125,-0.296875 0.125,-0.4375 0.03125,-0.125 0.109375,-0.453125 0.140625,-0.625 0.046875,-0.15625 0.09375,-0.3125 0.125,-0.46875 0.078125,-0.28125 0.09375,-0.34375 0.296875,-0.625 C 2.171875,-2.515625 2.5,-2.875 3.03125,-2.875 c 0.390625,0 0.40625,0.359375 0.40625,0.484375 0,0.421875 -0.296875,1.1875 -0.40625,1.484375 -0.078125,0.203125 -0.109375,0.265625 -0.109375,0.375 0,0.375 0.296875,0.59375 0.65625,0.59375 0.703125,0 1,-0.953125 1,-1.0625 0,-0.09375 -0.078125,-0.09375 -0.109375,-0.09375 -0.09375,0 -0.09375,0.046875 -0.125,0.125 C 4.1875,-0.40625 3.875,-0.125 3.609375,-0.125 c -0.15625,0 -0.1875,-0.09375 -0.1875,-0.25 0,-0.15625 0.046875,-0.25 0.171875,-0.5625 0.078125,-0.21875 0.359375,-0.953125 0.359375,-1.34375 0,-0.671875 -0.53125,-0.796875 -0.90625,-0.796875 -0.578125,0 -0.96875,0.359375 -1.171875,0.640625 -0.046875,-0.484375 -0.453125,-0.640625 -0.75,-0.640625 -0.296875,0 -0.453125,0.21875 -0.546875,0.375 -0.15625,0.265625 -0.25,0.65625 -0.25,0.703125 0,0.078125 0.09375,0.078125 0.125,0.078125 0.09375,0 0.09375,-0.015625 0.140625,-0.203125 0.109375,-0.40625 0.25,-0.75 0.515625,-0.75 0.1875,0 0.234375,0.15625 0.234375,0.34375 0,0.125 -0.0625,0.390625 -0.125,0.578125 -0.046875,0.1875 -0.109375,0.46875 -0.140625,0.625 z m 0,0"
           id="path5924" />
      </symbol>
      <symbol
         overflow="visible"
         id="symbol4120">
        <path
           style="stroke:none"
           d="m 4.984375,-3.9375 c 0.25,-0.375 0.484375,-0.546875 0.859375,-0.578125 0.078125,0 0.15625,0 0.15625,-0.140625 0,-0.03125 -0.015625,-0.109375 -0.09375,-0.109375 -0.171875,0 -0.390625,0.03125 -0.5625,0.03125 -0.21875,0 -0.515625,-0.03125 -0.71875,-0.03125 -0.0625,0 -0.140625,0.03125 -0.140625,0.15625 0,0.09375 0.09375,0.09375 0.125,0.09375 0.21875,0.015625 0.28125,0.109375 0.28125,0.203125 0,0.109375 -0.046875,0.171875 -0.125,0.28125 l -2.28125,3.375 -0.640625,-3.5625 c -0.015625,-0.0625 -0.015625,-0.078125 -0.015625,-0.109375 0,-0.1875 0.390625,-0.1875 0.4375,-0.1875 0.125,0 0.21875,0 0.21875,-0.140625 0,-0.015625 -0.015625,-0.109375 -0.125,-0.109375 -0.203125,0 -0.6875,0.03125 -0.890625,0.03125 -0.171875,0 -0.609375,-0.03125 -0.78125,-0.03125 -0.0625,0 -0.140625,0.03125 -0.140625,0.15625 0,0.09375 0.09375,0.09375 0.171875,0.09375 0.390625,0 0.40625,0.046875 0.4375,0.234375 l 0.765625,4.234375 c 0.015625,0.140625 0.03125,0.1875 0.15625,0.1875 0.140625,0 0.171875,-0.046875 0.25,-0.15625 z m 0,0"
           id="path3280" />
      </symbol>
      <symbol
         overflow="visible"
         id="symbol7507">
        <path
           style="stroke:none"
           d=""
           id="path9541" />
      </symbol>
      <symbol
         overflow="visible"
         id="symbol4757">
        <path
           style="stroke:none"
           d="m 6.84375,-3.265625 c 0.15625,0 0.34375,0 0.34375,-0.1875 C 7.1875,-3.65625 7,-3.65625 6.859375,-3.65625 h -5.96875 c -0.140625,0 -0.328125,0 -0.328125,0.203125 0,0.1875 0.1875,0.1875 0.328125,0.1875 z m 0.015625,1.9375 c 0.140625,0 0.328125,0 0.328125,-0.203125 0,-0.1875 -0.1875,-0.1875 -0.34375,-0.1875 H 0.890625 c -0.140625,0 -0.328125,0 -0.328125,0.1875 0,0.203125 0.1875,0.203125 0.328125,0.203125 z m 0,0"
           id="path7410" />
      </symbol>
      <symbol
         overflow="visible"
         id="symbol7177">
        <path
           style="stroke:none"
           d=""
           id="path5076" />
      </symbol>
      <symbol
         overflow="visible"
         id="symbol2488">
        <path
           style="stroke:none"
           d="M 3.015625,-3.15625 H 4.71875 c 1.40625,0 2.796875,-1.03125 2.796875,-2.140625 0,-0.78125 -0.65625,-1.515625 -1.96875,-1.515625 h -3.21875 c -0.1875,0 -0.296875,0 -0.296875,0.1875 0,0.125 0.078125,0.125 0.28125,0.125 0.125,0 0.3125,0.015625 0.421875,0.015625 0.171875,0.03125 0.21875,0.046875 0.21875,0.171875 0,0.03125 0,0.0625 -0.03125,0.1875 l -1.34375,5.34375 c -0.09375,0.390625 -0.109375,0.46875 -0.90625,0.46875 -0.15625,0 -0.265625,0 -0.265625,0.1875 C 0.40625,0 0.515625,0 0.546875,0 0.828125,0 1.53125,-0.03125 1.8125,-0.03125 c 0.21875,0 0.4375,0.015625 0.640625,0.015625 0.21875,0 0.4375,0.015625 0.640625,0.015625 0.078125,0 0.203125,0 0.203125,-0.203125 0,-0.109375 -0.09375,-0.109375 -0.28125,-0.109375 -0.359375,0 -0.640625,0 -0.640625,-0.171875 0,-0.0625 0.015625,-0.109375 0.03125,-0.171875 z M 3.734375,-6.125 C 3.828125,-6.46875 3.84375,-6.5 4.28125,-6.5 h 0.953125 c 0.828125,0 1.359375,0.265625 1.359375,0.953125 0,0.390625 -0.203125,1.25 -0.59375,1.609375 -0.5,0.453125 -1.09375,0.53125 -1.53125,0.53125 H 3.0625 Z m 0,0"
           id="path6904" />
      </symbol>
    </g>
    <g
       id="g9172">
      <symbol
         overflow="visible"
         id="symbol4702">
        <path
           style="stroke:none"
           d=""
           id="path8095" />
      </symbol>
      <symbol
         overflow="visible"
         id="symbol1092">
        <path
           style="stroke:none"
           d="M 3.015625,-3.15625 H 4.71875 c 1.40625,0 2.796875,-1.03125 2.796875,-2.140625 0,-0.78125 -0.65625,-1.515625 -1.96875,-1.515625 h -3.21875 c -0.1875,0 -0.296875,0 -0.296875,0.1875 0,0.125 0.078125,0.125 0.28125,0.125 0.125,0 0.3125,0.015625 0.421875,0.015625 0.171875,0.03125 0.21875,0.046875 0.21875,0.171875 0,0.03125 0,0.0625 -0.03125,0.1875 l -1.34375,5.34375 c -0.09375,0.390625 -0.109375,0.46875 -0.90625,0.46875 -0.15625,0 -0.265625,0 -0.265625,0.1875 C 0.40625,0 0.515625,0 0.546875,0 0.828125,0 1.53125,-0.03125 1.8125,-0.03125 c 0.21875,0 0.4375,0.015625 0.640625,0.015625 0.21875,0 0.4375,0.015625 0.640625,0.015625 0.078125,0 0.203125,0 0.203125,-0.203125 0,-0.109375 -0.09375,-0.109375 -0.28125,-0.109375 -0.359375,0 -0.640625,0 -0.640625,-0.171875 0,-0.0625 0.015625,-0.109375 0.03125,-0.171875 z M 3.734375,-6.125 C 3.828125,-6.46875 3.84375,-6.5 4.28125,-6.5 h 0.953125 c 0.828125,0 1.359375,0.265625 1.359375,0.953125 0,0.390625 -0.203125,1.25 -0.59375,1.609375 -0.5,0.453125 -1.09375,0.53125 -1.53125,0.53125 H 3.0625 Z m 0,0"
           id="path7734" />
      </symbol>
      <symbol
         overflow="visible"
         id="symbol7638">
        <path
           style="stroke:none"
           d=""
           id="path3649" />
      </symbol>
      <symbol
         overflow="visible"
         id="symbol8906">
        <path
           style="stroke:none"
           d="m 6.84375,-3.265625 c 0.15625,0 0.34375,0 0.34375,-0.1875 C 7.1875,-3.65625 7,-3.65625 6.859375,-3.65625 h -5.96875 c -0.140625,0 -0.328125,0 -0.328125,0.203125 0,0.1875 0.1875,0.1875 0.328125,0.1875 z m 0.015625,1.9375 c 0.140625,0 0.328125,0 0.328125,-0.203125 0,-0.1875 -0.1875,-0.1875 -0.34375,-0.1875 H 0.890625 c -0.140625,0 -0.328125,0 -0.328125,0.1875 0,0.203125 0.1875,0.203125 0.328125,0.203125 z m 0,0"
           id="path5643" />
      </symbol>
      <symbol
         overflow="visible"
         id="symbol4357">
        <path
           style="stroke:none"
           d="m 4.578125,-3.1875 c 0,-0.796875 -0.046875,-1.59375 -0.390625,-2.328125 -0.453125,-0.96875 -1.28125,-1.125 -1.6875,-1.125 -0.609375,0 -1.328125,0.265625 -1.75,1.1875 -0.3125,0.6875 -0.359375,1.46875 -0.359375,2.265625 0,0.75 0.03125,1.640625 0.453125,2.40625 0.421875,0.796875 1.15625,1 1.640625,1 0.53125,0 1.296875,-0.203125 1.734375,-1.15625 0.3125,-0.6875 0.359375,-1.46875 0.359375,-2.25 z M 2.484375,0 C 2.09375,0 1.5,-0.25 1.328125,-1.203125 1.21875,-1.796875 1.21875,-2.71875 1.21875,-3.3125 c 0,-0.640625 0,-1.296875 0.078125,-1.828125 0.1875,-1.1875 0.9375,-1.28125 1.1875,-1.28125 0.328125,0 0.984375,0.1875 1.171875,1.171875 0.109375,0.5625 0.109375,1.3125 0.109375,1.9375 0,0.75 0,1.421875 -0.109375,2.0625 C 3.5,-0.296875 2.9375,0 2.484375,0 Z m 0,0"
           id="path9465" />
      </symbol>
    </g>
  </defs>
  <sodipodi:namedview
     id="base"
     pagecolor="#ffffff"
     bordercolor="#666666"
     borderopacity="1.0"
     inkscape:pageopacity="0.0"
     inkscape:pageshadow="2"
     inkscape:zoom="1"
     inkscape:cx="586.22068"
     inkscape:cy="264.75116"
     inkscape:document-units="in"
     inkscape:current-layer="g987"
     inkscape:document-rotation="0"
     showgrid="false"
     inkscape:snap-smooth-nodes="true"
     inkscape:window-width="1920"
     inkscape:window-height="1136"
     inkscape:window-x="0"
     inkscape:window-y="27"
     inkscape:window-maximized="1"
     fit-margin-top="10"
     fit-margin-right="10"
     fit-margin-left="10"
     fit-margin-bottom="10"
     units="in"
     lock-margins="false">
    <inkscape:grid
       type="xygrid"
       id="grid852"
       originx="-46.394182"
       originy="-70.890472" />
  </sodipodi:namedview>
  <metadata
     id="metadata5">
    <rdf:RDF>
      <cc:Work
         rdf:about="">
        <dc:format>image/svg+xml</dc:format>
        <dc:type
           rdf:resource="http://purl.org/dc/dcmitype/StillImage" />
        <dc:title />
      </cc:Work>
    </rdf:RDF>
  </metadata>
  <g
     inkscape:label="Layer 1"
     inkscape:groupmode="layer"
     id="layer1"
     transform="translate(-46.394186,-70.890474)">
    <text
       xml:space="preserve"
       id="text898"
       style="font-style:normal;font-variant:normal;font-weight:500;font-stretch:normal;font-size:7.05556px;line-height:1.25;font-family:'Red Hat Display';-inkscape-font-specification:'Red Hat Display, Medium';font-variant-ligatures:normal;font-variant-caps:normal;font-variant-numeric:normal;font-feature-settings:normal;text-align:start;letter-spacing:0px;word-spacing:0px;writing-mode:lr-tb;white-space:pre;shape-inside:url(#rect900);fill:#000000;fill-opacity:1;stroke:none;" />
    <g
       id="g987"
       transform="matrix(1.3293166,0,0,1.3405086,-18.920834,-19.186887)"
       style="stroke-width:0.749119">
      <path
         id="rect833"
         style="opacity:0.996;fill:#00a9e0;stroke:#00a9e0;stroke-width:2.24736;stroke-linejoin:round;paint-order:stroke markers fill"
         d="m 106.20131,89.843018 h 35.25374 v 35.253742 h -35.25374 z" />
      <path
         id="rect846"
         style="opacity:0.996;fill:#00a9e0;stroke:#00a9e0;stroke-width:2.24736;stroke-linejoin:round;paint-order:stroke markers fill"
         d="m 106.20131,89.843018 h 35.25374 v 35.253742 h -35.25374 z" />
      <path
         id="rect848"
         style="opacity:0.996;fill:#00a9e0;stroke:#00a9e0;stroke-width:2.24736;stroke-linejoin:round;paint-order:stroke markers fill"
         d="m 212.84778,89.843018 h 35.25374 v 35.253742 h -35.25374 z" />
      <path
         style="fill:none;stroke:#000000;stroke-width:0.792815;stroke-linecap:butt;stroke-linejoin:miter;stroke-miterlimit:4;stroke-dasharray:none;stroke-opacity:1"
         d="m 142.94852,106.95929 h 68.39946"
         id="path850"
         sodipodi:nodetypes="cc" />
      <path
         id="path854"
         style="opacity:0.996;fill:#00a9e0;stroke:#00a9e0;stroke-width:2.24736;stroke-linejoin:round;stroke-miterlimit:4;stroke-dasharray:none;paint-order:stroke markers fill"
         d="m 72.797929,95.039902 a 7.050386,7.050386 0 0 1 -7.050386,7.050388 7.050386,7.050386 0 0 1 -7.050386,-7.050388 7.050386,7.050386 0 0 1 7.050386,-7.050386 7.050386,7.050386 0 0 1 7.050386,7.050386 z" />
      <path
         id="circle856"
         style="opacity:0.996;fill:#00a9e0;stroke:#00a9e0;stroke-width:2.24736;stroke-linejoin:round;stroke-miterlimit:4;stroke-dasharray:none;paint-order:stroke markers fill"
         d="m 71.994958,121.1204 a 7.050386,7.050386 0 0 1 -7.050386,7.05039 7.050386,7.050386 0 0 1 -7.050386,-7.05039 7.050386,7.050386 0 0 1 7.050386,-7.05039 7.050386,7.050386 0 0 1 7.050386,7.05039 z" />
      <path
         style="fill:none;stroke:#000000;stroke-width:0.792568;stroke-linecap:butt;stroke-linejoin:miter;stroke-miterlimit:4;stroke-dasharray:none;stroke-opacity:1;marker-end:url(#marker1316)"
         d="m 74.21499,94.782221 h 28.46185"
         id="path858"
         sodipodi:nodetypes="cc" />
      <path
         style="fill:none;stroke:#000000;stroke-width:0.792568;stroke-linecap:butt;stroke-linejoin:miter;stroke-miterlimit:4;stroke-dasharray:none;stroke-opacity:1;marker-end:url(#marker1326)"
         d="M 73.479251,121.15598 H 102.63841"
         id="path860"
         sodipodi:nodetypes="cc" />
      <g
         aria-label="Source"
         id="text864"
         style="font-style:normal;font-variant:normal;font-weight:500;font-stretch:normal;font-size:7.05556px;line-height:1.25;font-family:'Red Hat Display';-inkscape-font-specification:'Red Hat Display, Medium';font-variant-ligatures:normal;font-variant-caps:normal;font-variant-numeric:normal;font-feature-settings:normal;text-align:start;letter-spacing:0px;word-spacing:0px;writing-mode:lr-tb;text-anchor:start;fill:#000000;fill-opacity:1;stroke:none;stroke-width:0.198204">
        <path
           d="m 212.34973,85.159086 0.45156,-0.522111 q 0.40217,0.388056 0.81844,0.585612 0.42334,0.1905 0.88195,0.1905 0.52917,0 0.86078,-0.232834 0.33866,-0.232833 0.33866,-0.592667 0,-0.324556 -0.23283,-0.500945 -0.23283,-0.183444 -0.76905,-0.275167 l -0.82551,-0.134055 q -0.67733,-0.112889 -1.016,-0.430389 -0.33161,-0.324556 -0.33161,-0.853723 0,-0.642056 0.50095,-1.030112 0.50094,-0.388056 1.31939,-0.388056 0.52916,0 1.05128,0.176389 0.52211,0.169334 0.93839,0.49389 l -0.40923,0.564444 q -0.40216,-0.303389 -0.80433,-0.451556 -0.40217,-0.155222 -0.81139,-0.155222 -0.47978,0 -0.77611,0.204611 -0.29634,0.204612 -0.29634,0.529167 0,0.30339 0.20462,0.465667 0.20461,0.155223 0.67733,0.232834 l 0.79728,0.127 q 0.77611,0.127 1.143,0.465667 0.37394,0.331611 0.37394,0.903112 0,0.338666 -0.14111,0.620889 -0.14111,0.282222 -0.40217,0.479778 -0.254,0.197556 -0.62088,0.310445 -0.36689,0.105833 -0.80434,0.105833 -0.59267,0 -1.143,-0.232833 -0.55033,-0.232834 -0.97367,-0.656168 z"
           style="stroke-width:0.198204"
           id="path1226" />
        <path
           d="m 216.94288,84.178364 q 0,-0.388056 0.14112,-0.726723 0.14816,-0.345723 0.40216,-0.592667 0.254,-0.254 0.59267,-0.395112 0.34572,-0.148166 0.73378,-0.148166 0.38805,0 0.72672,0.148166 0.34572,0.141112 0.59267,0.395112 0.254,0.246944 0.39511,0.592667 0.14817,0.338667 0.14817,0.726723 0,0.395111 -0.14817,0.740833 -0.14111,0.338667 -0.39511,0.592667 -0.24695,0.246945 -0.59267,0.395112 -0.33867,0.141111 -0.72672,0.141111 -0.38806,0 -0.73378,-0.141111 -0.33867,-0.148167 -0.59267,-0.395112 -0.254,-0.254 -0.40216,-0.592667 -0.14112,-0.345722 -0.14112,-0.740833 z m 1.86973,1.248834 q 0.48683,0 0.8255,-0.359834 0.34572,-0.366889 0.34572,-0.889 0,-0.522112 -0.34572,-0.881945 -0.33867,-0.359834 -0.8255,-0.359834 -0.48684,0 -0.83256,0.359834 -0.34572,0.359833 -0.34572,0.881945 0,0.522111 0.33867,0.889 0.34572,0.359834 0.83961,0.359834 z"
           style="stroke-width:0.198204"
           id="path1228" />
        <path
           d="m 222.037,82.386251 v 2.130779 q 0,0.423334 0.23989,0.670279 0.24694,0.246944 0.64911,0.246944 0.28222,0 0.508,-0.119944 0.22578,-0.127 0.37394,-0.352778 v -2.57528 h 0.70556 v 3.59128 h -0.70556 v -0.359833 q -0.21166,0.211667 -0.48683,0.324556 -0.26811,0.105833 -0.59267,0.105833 -0.61383,0 -1.00894,-0.395111 -0.38806,-0.395112 -0.38806,-1.016001 v -2.250724 z"
           style="stroke-width:0.198204"
           id="path1230" />
        <path
           d="m 225.34605,85.977531 v -3.59128 h 0.70556 v 0.458612 q 0.16228,-0.261056 0.41628,-0.395112 0.254,-0.141111 0.5715,-0.141111 0.11288,0 0.19755,0.01411 0.0847,0.01411 0.16228,0.04233 v 0.635 q -0.0988,-0.03528 -0.20461,-0.05644 -0.10584,-0.02117 -0.21167,-0.02117 -0.31044,0 -0.55739,0.169333 -0.23989,0.162278 -0.37394,0.486834 v 2.39889 z"
           style="stroke-width:0.198204"
           id="path1232" />
        <path
           d="m 229.45943,85.420142 q 0.26811,0 0.508,-0.105833 0.23989,-0.112889 0.45861,-0.331612 l 0.42334,0.458612 q -0.28223,0.282222 -0.64912,0.4445 -0.36688,0.155222 -0.76905,0.155222 -0.38806,0 -0.72672,-0.141111 -0.33867,-0.148166 -0.58562,-0.395111 -0.24694,-0.246945 -0.39511,-0.585612 -0.14111,-0.345722 -0.14111,-0.740833 0,-0.388056 0.14111,-0.726723 0.14817,-0.345723 0.39511,-0.592667 0.24695,-0.254 0.58562,-0.395112 0.33866,-0.148166 0.72672,-0.148166 0.40217,0 0.78317,0.162278 0.381,0.155222 0.66322,0.437444 l -0.4445,0.479778 q -0.20461,-0.218722 -0.45861,-0.331611 -0.254,-0.119944 -0.52917,-0.119944 -0.48683,0 -0.8255,0.359833 -0.33867,0.359834 -0.33867,0.87489 0,0.529167 0.33867,0.889 0.34572,0.352778 0.83961,0.352778 z"
           style="stroke-width:0.198204"
           id="path1234" />
        <path
           d="m 234.39126,85.568309 q -0.31044,0.239889 -0.64911,0.359834 -0.33866,0.112888 -0.74083,0.112888 -0.39511,0 -0.74084,-0.141111 -0.34572,-0.148166 -0.59972,-0.395111 -0.254,-0.246945 -0.40217,-0.585612 -0.14111,-0.345722 -0.14111,-0.740833 0,-0.388056 0.14111,-0.726723 0.14112,-0.338667 0.38101,-0.585612 0.23988,-0.246944 0.5715,-0.388055 0.33161,-0.148167 0.70555,-0.148167 0.36689,0 0.68439,0.148167 0.32456,0.141111 0.55033,0.395111 0.23284,0.246945 0.36689,0.592667 0.13406,0.345722 0.13406,0.740834 v 0.204611 h -2.83634 q 0.0706,0.4445 0.40923,0.740834 0.33866,0.289278 0.80433,0.289278 0.26106,0 0.50095,-0.08467 0.23988,-0.08467 0.40922,-0.232833 z m -1.48872,-2.645835 q -0.40217,0 -0.70556,0.268111 -0.29633,0.268111 -0.37394,0.691445 h 2.13078 q -0.0776,-0.409222 -0.37395,-0.684389 -0.28927,-0.275167 -0.67733,-0.275167 z"
           style="stroke-width:0.198204"
           id="path1236" />
      </g>
      <g
         aria-label="Inlet"
         id="text868"
         style="font-style:normal;font-variant:normal;font-weight:500;font-stretch:normal;font-size:7.05556px;line-height:1.25;font-family:'Red Hat Display';-inkscape-font-specification:'Red Hat Display, Medium';font-variant-ligatures:normal;font-variant-caps:normal;font-variant-numeric:normal;font-feature-settings:normal;text-align:start;letter-spacing:0px;word-spacing:0px;writing-mode:lr-tb;text-anchor:start;fill:#000000;fill-opacity:1;stroke:none;stroke-width:0.198204">
        <path
           d="m 106.43332,85.984589 v -4.938892 h 0.74083 v 4.938892 z"
           style="stroke-width:0.198204"
           id="path1239" />
        <path
           d="m 108.09842,85.984589 v -3.59128 h 0.70556 v 0.359833 q 0.21167,-0.211667 0.47978,-0.3175 0.27517,-0.112889 0.59972,-0.112889 0.61383,0 1.00895,0.395111 0.39511,0.388056 0.39511,1.008945 v 2.25778 h -0.70556 v -2.137835 q 0,-0.423334 -0.24694,-0.663223 -0.23989,-0.246944 -0.64206,-0.246944 -0.28222,0 -0.51506,0.119944 -0.22577,0.119945 -0.37394,0.345723 v 2.582335 z"
           style="stroke-width:0.198204"
           id="path1241" />
        <path
           d="m 112.80448,80.890474 v 5.094115 h -0.70556 v -4.938892 z"
           style="stroke-width:0.198204"
           id="path1243" />
        <path
           d="m 116.74853,85.575366 q -0.31045,0.239889 -0.64911,0.359834 -0.33867,0.112889 -0.74084,0.112889 -0.39511,0 -0.74083,-0.141112 -0.34573,-0.148166 -0.59973,-0.395111 -0.254,-0.246945 -0.40216,-0.585611 -0.14111,-0.345723 -0.14111,-0.740834 0,-0.388056 0.14111,-0.726723 0.14111,-0.338667 0.381,-0.585611 0.23989,-0.246945 0.5715,-0.388056 0.33161,-0.148167 0.70555,-0.148167 0.36689,0 0.68439,0.148167 0.32456,0.141111 0.55034,0.395111 0.23283,0.246945 0.36689,0.592667 0.13405,0.345723 0.13405,0.740834 v 0.204611 h -2.83633 q 0.0705,0.444501 0.40922,0.740834 0.33867,0.289278 0.80433,0.289278 0.26106,0 0.50095,-0.08467 0.23989,-0.08467 0.40922,-0.232833 z m -1.48873,-2.645835 q -0.40216,0 -0.70555,0.268111 -0.29634,0.268112 -0.37395,0.691445 h 2.13078 q -0.0776,-0.409222 -0.37394,-0.684389 -0.28928,-0.275167 -0.67734,-0.275167 z"
           style="stroke-width:0.198204"
           id="path1245" />
        <path
           d="m 118.00441,85.095588 v -2.109612 h -0.762 v -0.592667 h 0.762 v -0.917223 l 0.6985,-0.169334 v 1.086557 h 1.05834 v 0.592667 h -1.05834 v 1.947334 q 0,0.275167 0.11995,0.388056 0.127,0.112889 0.40922,0.112889 0.14817,0 0.26106,-0.01411 0.11994,-0.02117 0.254,-0.07056 v 0.592667 q -0.14111,0.04939 -0.33161,0.07761 -0.18345,0.02822 -0.33867,0.02822 -0.52211,0 -0.79728,-0.239889 -0.27517,-0.246945 -0.27517,-0.712612 z"
           style="stroke-width:0.198204"
           id="path1247" />
      </g>
      <g
         aria-label="He"
         id="text876"
         style="font-style:normal;font-variant:normal;font-weight:500;font-stretch:normal;font-size:7.05556px;line-height:1.25;font-family:'Red Hat Display';-inkscape-font-specification:'Red Hat Display, Medium';font-variant-ligatures:normal;font-variant-caps:normal;font-variant-numeric:normal;font-feature-settings:normal;text-align:start;letter-spacing:0px;word-spacing:0px;writing-mode:lr-tb;text-anchor:start;fill:#000000;fill-opacity:1;stroke:none;stroke-width:0.198204">
        <path
           d="m 60.742995,123.55811 v -4.93889 h 0.740834 v 2.11667 h 2.624668 v -2.11667 h 0.740834 v 4.93889 h -0.740834 v -2.15194 h -2.624668 v 2.15194 z"
           style="stroke-width:0.198204"
           id="path1251" />
        <path
           d="m 68.8851,123.14889 q -0.310444,0.23989 -0.649111,0.35983 -0.338667,0.11289 -0.740834,0.11289 -0.395111,0 -0.740834,-0.14111 -0.345722,-0.14816 -0.599722,-0.39511 -0.254001,-0.24694 -0.402167,-0.58561 -0.141112,-0.34572 -0.141112,-0.74083 0,-0.38806 0.141112,-0.72673 0.141111,-0.33866 0.381,-0.58561 0.239889,-0.24694 0.5715,-0.38805 0.331612,-0.14817 0.705556,-0.14817 0.366889,0 0.68439,0.14817 0.324555,0.14111 0.550333,0.39511 0.232834,0.24694 0.366889,0.59266 0.134056,0.34573 0.134056,0.74084 v 0.20461 h -2.836335 q 0.07056,0.4445 0.409222,0.74083 0.338667,0.28928 0.804334,0.28928 0.261056,0 0.500945,-0.0847 0.239889,-0.0847 0.409223,-0.23283 z m -1.488723,-2.64583 q -0.402167,0 -0.705556,0.26811 -0.296333,0.26811 -0.373945,0.69144 h 2.13078 q -0.07761,-0.40922 -0.373945,-0.68439 -0.289278,-0.27516 -0.677334,-0.27516 z"
           style="stroke-width:0.198204"
           id="path1253" />
      </g>
      <g
         aria-label="Flow ≈ ΔPressure"
         id="text880"
         style="font-style:normal;font-variant:normal;font-weight:500;font-stretch:normal;font-size:7.05556px;line-height:1.25;font-family:'Red Hat Display';-inkscape-font-specification:'Red Hat Display, Medium';font-variant-ligatures:normal;font-variant-caps:normal;font-variant-numeric:normal;font-feature-settings:normal;text-align:start;letter-spacing:0px;word-spacing:0px;writing-mode:lr-tb;text-anchor:start;fill:#000000;fill-opacity:1;stroke:none;stroke-width:0.198204">
        <path
           d="m 149.01221,104.26847 v -4.938891 h 3.64772 v 0.649111 h -2.90689 v 1.51695 h 1.91911 v 0.635 h -1.91911 v 2.13783 z"
           style="stroke-width:0.198204"
           id="path1256" />
        <path
           d="m 153.86642,99.174356 v 5.094114 h -0.70556 v -4.938891 z"
           style="stroke-width:0.198204"
           id="path1258" />
        <path
           d="m 154.53669,102.4693 q 0,-0.38805 0.14111,-0.72672 0.14817,-0.34572 0.40217,-0.59267 0.254,-0.254 0.59266,-0.39511 0.34573,-0.14816 0.73378,-0.14816 0.38806,0 0.72672,0.14816 0.34573,0.14111 0.59267,0.39511 0.254,0.24695 0.39511,0.59267 0.14817,0.33867 0.14817,0.72672 0,0.39511 -0.14817,0.74084 -0.14111,0.33866 -0.39511,0.59266 -0.24694,0.24695 -0.59267,0.39512 -0.33866,0.14111 -0.72672,0.14111 -0.38805,0 -0.73378,-0.14111 -0.33866,-0.14817 -0.59266,-0.39512 -0.254,-0.254 -0.40217,-0.59266 -0.14111,-0.34573 -0.14111,-0.74084 z m 1.86972,1.24884 q 0.48684,0 0.8255,-0.35984 0.34572,-0.36689 0.34572,-0.889 0,-0.52211 -0.34572,-0.88194 -0.33866,-0.35984 -0.8255,-0.35984 -0.48683,0 -0.83255,0.35984 -0.34573,0.35983 -0.34573,0.88194 0,0.52211 0.33867,0.889 0.34572,0.35984 0.83961,0.35984 z"
           style="stroke-width:0.198204"
           id="path1261" />
        <path
           d="m 160.22347,104.26847 h -0.68439 l -1.00189,-3.59128 h 0.68439 l 0.69144,2.63878 0.8255,-2.63878 h 0.60678 l 0.81845,2.63878 0.6985,-2.63878 h 0.66322 l -1.00895,3.59128 h -0.67733 l -0.80433,-2.63172 z"
           style="stroke-width:0.198204"
           id="path1263" />
        <path
           d="m 170.24894,102.12217 v 0.61668 q -0.36174,0.26872 -0.67179,0.38929 -0.30662,0.11714 -0.64079,0.11714 -0.37896,0 -0.88195,-0.20326 -0.0344,-0.0138 -0.0586,-0.0241 -0.0207,-0.007 -0.0724,-0.0276 -0.53399,-0.21015 -0.85783,-0.21015 -0.30317,0 -0.59945,0.13091 -0.29628,0.13092 -0.6339,0.4203 v -0.61667 q 0.36174,-0.26872 0.66835,-0.38585 0.31006,-0.12058 0.64424,-0.12058 0.37896,0 0.88539,0.20326 0.0379,0.0172 0.0551,0.0241 0.0207,0.007 0.0723,0.0276 0.534,0.21015 0.85783,0.21015 0.29628,0 0.58567,-0.12747 0.29283,-0.13091 0.64768,-0.42375 z m 0,-1.34014 v 0.61323 q -0.36174,0.27216 -0.67179,0.39274 -0.30662,0.11713 -0.64079,0.11713 -0.37896,0 -0.88195,-0.20326 -0.0344,-0.0138 -0.0586,-0.0241 -0.0207,-0.007 -0.0724,-0.0276 -0.53399,-0.21015 -0.85783,-0.21015 -0.30317,0 -0.59945,0.13091 -0.29628,0.13091 -0.6339,0.41686 v -0.61323 q 0.36174,-0.26872 0.66835,-0.38585 0.31006,-0.12058 0.64424,-0.12058 0.37896,0 0.88539,0.20326 0.0344,0.0138 0.0517,0.0207 0.0241,0.0103 0.0758,0.031 0.534,0.21015 0.85783,0.21015 0.29628,0 0.58567,-0.12747 0.29283,-0.13091 0.64768,-0.42375 z"
           style="stroke-width:0.198204"
           id="path1265" />
        <path
           d="m 175.65085,99.810514 -1.41249,3.879176 h 2.82843 z m -2.35644,4.457956 1.9637,-5.14353 h 0.78893 l 1.96026,5.14353 z"
           style="stroke-width:0.198204"
           id="path1267" />
        <path
           d="m 178.56681,104.26847 v -4.938891 h 2.286 q 0.71967,0 1.16417,0.416278 0.45156,0.409223 0.45156,1.065393 0,0.64911 -0.45156,1.05833 -0.45156,0.40922 -1.16417,0.40922 h -1.54516 v 1.98967 z m 2.20839,-4.28978 h -1.46755 v 1.67217 h 1.46755 q 0.43039,0 0.68439,-0.22578 0.26106,-0.23283 0.26106,-0.61383 0,-0.381 -0.26106,-0.60678 -0.254,-0.22578 -0.68439,-0.22578 z"
           style="stroke-width:0.198204"
           id="path1269" />
        <path
           d="m 183.14587,104.26847 v -3.59128 h 0.70555 v 0.45861 q 0.16228,-0.26105 0.41628,-0.39511 0.254,-0.14111 0.5715,-0.14111 0.11289,0 0.19756,0.0141 0.0847,0.0141 0.16227,0.0423 v 0.635 q -0.0988,-0.0353 -0.20461,-0.0564 -0.10583,-0.0212 -0.21166,-0.0212 -0.31045,0 -0.55739,0.16934 -0.23989,0.16227 -0.37395,0.48683 v 2.39889 z"
           style="stroke-width:0.198204"
           id="path1271" />
        <path
           d="m 188.65624,103.85925 q -0.31044,0.23989 -0.64911,0.35983 -0.33866,0.11289 -0.74083,0.11289 -0.39511,0 -0.74084,-0.14111 -0.34572,-0.14817 -0.59972,-0.39511 -0.254,-0.24695 -0.40216,-0.58561 -0.14112,-0.34573 -0.14112,-0.74084 0,-0.38805 0.14112,-0.72672 0.14111,-0.33867 0.381,-0.58561 0.23988,-0.24695 0.5715,-0.38806 0.33161,-0.14816 0.70555,-0.14816 0.36689,0 0.68439,0.14816 0.32456,0.14111 0.55033,0.39511 0.23284,0.24695 0.36689,0.59267 0.13406,0.34572 0.13406,0.74084 v 0.20461 h -2.83634 q 0.0706,0.4445 0.40923,0.74083 0.33866,0.28928 0.80433,0.28928 0.26106,0 0.50095,-0.0847 0.23988,-0.0847 0.40922,-0.23283 z m -1.48872,-2.64584 q -0.40217,0 -0.70556,0.26811 -0.29633,0.26812 -0.37394,0.69145 h 2.13078 q -0.0776,-0.40922 -0.37395,-0.68439 -0.28927,-0.27517 -0.67733,-0.27517 z"
           style="stroke-width:0.198204"
           id="path1273" />
        <path
           d="m 189.28418,103.8028 0.381,-0.46566 q 0.28223,0.21872 0.57151,0.33866 0.29633,0.11289 0.59972,0.11289 0.381,0 0.62089,-0.14816 0.23989,-0.14817 0.23989,-0.38806 0,-0.1905 -0.14111,-0.30339 -0.14112,-0.11289 -0.43745,-0.15522 l -0.64911,-0.0917 q -0.52917,-0.0776 -0.80434,-0.32456 -0.26811,-0.254 -0.26811,-0.67028 0,-0.48683 0.38806,-0.78316 0.38806,-0.30339 1.016,-0.30339 0.39511,0 0.74789,0.11289 0.35983,0.11288 0.6985,0.34572 l -0.35983,0.46566 q -0.29634,-0.19755 -0.57856,-0.28222 -0.27517,-0.0917 -0.55739,-0.0917 -0.32455,0 -0.52211,0.13406 -0.19756,0.13405 -0.19756,0.35277 0,0.19756 0.13406,0.30339 0.14111,0.0988 0.45861,0.14817 l 0.64911,0.0917 q 0.52917,0.0776 0.80434,0.33161 0.28222,0.254 0.28222,0.67028 0,0.23989 -0.11995,0.45156 -0.11288,0.20461 -0.3175,0.35278 -0.19755,0.14816 -0.47272,0.23988 -0.27517,0.0847 -0.59267,0.0847 -0.46566,0 -0.87488,-0.13405 -0.40217,-0.13406 -0.69851,-0.39512 z"
           style="stroke-width:0.198204"
           id="path1275" />
        <path
           d="m 192.60733,103.8028 0.381,-0.46566 q 0.28222,0.21872 0.5715,0.33866 0.29633,0.11289 0.59972,0.11289 0.381,0 0.62089,-0.14816 0.23989,-0.14817 0.23989,-0.38806 0,-0.1905 -0.14111,-0.30339 -0.14111,-0.11289 -0.43745,-0.15522 l -0.64911,-0.0917 q -0.52917,-0.0776 -0.80433,-0.32456 -0.26811,-0.254 -0.26811,-0.67028 0,-0.48683 0.38805,-0.78316 0.38806,-0.30339 1.016,-0.30339 0.39511,0 0.74789,0.11289 0.35984,0.11288 0.6985,0.34572 l -0.35983,0.46566 q -0.29633,-0.19755 -0.57856,-0.28222 -0.27516,-0.0917 -0.55739,-0.0917 -0.32455,0 -0.52211,0.13406 -0.19755,0.13405 -0.19755,0.35277 0,0.19756 0.13405,0.30339 0.14111,0.0988 0.45861,0.14817 l 0.64912,0.0917 q 0.52916,0.0776 0.80433,0.33161 0.28222,0.254 0.28222,0.67028 0,0.23989 -0.11994,0.45156 -0.11289,0.20461 -0.3175,0.35278 -0.19756,0.14816 -0.47273,0.23988 -0.27516,0.0847 -0.59266,0.0847 -0.46567,0 -0.87489,-0.13405 -0.40217,-0.13406 -0.6985,-0.39512 z"
           style="stroke-width:0.198204"
           id="path1277" />
        <path
           d="m 196.91827,100.67719 v 2.13078 q 0,0.42333 0.23989,0.67028 0.24694,0.24694 0.64911,0.24694 0.28222,0 0.508,-0.11994 0.22577,-0.127 0.37394,-0.35278 v -2.57528 h 0.70556 v 3.59128 h -0.70556 v -0.35983 q -0.21167,0.21166 -0.48683,0.32455 -0.26811,0.10584 -0.59267,0.10584 -0.61383,0 -1.00894,-0.39512 -0.38806,-0.39511 -0.38806,-1.016 v -2.25072 z"
           style="stroke-width:0.198204"
           id="path1279" />
        <path
           d="m 200.22732,104.26847 v -3.59128 h 0.70555 v 0.45861 q 0.16228,-0.26105 0.41628,-0.39511 0.254,-0.14111 0.5715,-0.14111 0.11289,0 0.19756,0.0141 0.0847,0.0141 0.16228,0.0423 v 0.635 q -0.0988,-0.0353 -0.20462,-0.0564 -0.10583,-0.0212 -0.21166,-0.0212 -0.31045,0 -0.55739,0.16934 -0.23989,0.16227 -0.37395,0.48683 v 2.39889 z"
           style="stroke-width:0.198204"
           id="path1281" />
        <path
           d="m 205.7377,103.85925 q -0.31045,0.23989 -0.64911,0.35983 -0.33867,0.11289 -0.74084,0.11289 -0.39511,0 -0.74083,-0.14111 -0.34572,-0.14817 -0.59972,-0.39511 -0.254,-0.24695 -0.40217,-0.58561 -0.14111,-0.34573 -0.14111,-0.74084 0,-0.38805 0.14111,-0.72672 0.14111,-0.33867 0.381,-0.58561 0.23989,-0.24695 0.5715,-0.38806 0.33161,-0.14816 0.70556,-0.14816 0.36689,0 0.68439,0.14816 0.32455,0.14111 0.55033,0.39511 0.23283,0.24695 0.36689,0.59267 0.13405,0.34572 0.13405,0.74084 v 0.20461 h -2.83633 q 0.0706,0.4445 0.40922,0.74083 0.33867,0.28928 0.80434,0.28928 0.26105,0 0.50094,-0.0847 0.23989,-0.0847 0.40922,-0.23283 z m -1.48872,-2.64584 q -0.40217,0 -0.70556,0.26811 -0.29633,0.26812 -0.37394,0.69145 h 2.13077 q -0.0776,-0.40922 -0.37394,-0.68439 -0.28928,-0.27517 -0.67733,-0.27517 z"
           style="stroke-width:0.198204"
           id="path1283" />
      </g>
      <g
         aria-label="CO2"
         id="text906"
         style="font-style:normal;font-variant:normal;font-weight:500;font-stretch:normal;font-size:7.05556px;line-height:1.25;font-family:'Red Hat Display';-inkscape-font-specification:'Red Hat Display, Medium';font-variant-ligatures:normal;font-variant-caps:normal;font-variant-numeric:normal;font-feature-settings:normal;text-align:start;letter-spacing:0px;word-spacing:0px;writing-mode:lr-tb;text-anchor:start;fill:#000000;fill-opacity:1;stroke:none;stroke-width:0.198204">
        <path
           d="m 61.975298,96.23582 q 0.423333,0 0.811389,-0.169334 0.388056,-0.176389 0.656167,-0.493889 l 0.486834,0.493889 q -0.359834,0.395112 -0.889001,0.627945 -0.522111,0.225778 -1.086556,0.225778 -0.543278,0 -1.023056,-0.197556 -0.472723,-0.197555 -0.818445,-0.536222 -0.345723,-0.345723 -0.550334,-0.81139 -0.197556,-0.472722 -0.197556,-1.001889 0,-0.536223 0.197556,-1.00189 0.204611,-0.465667 0.550334,-0.804333 0.345722,-0.345723 0.818445,-0.543279 0.479778,-0.197555 1.023056,-0.197555 0.578556,0 1.107723,0.232833 0.536222,0.225778 0.881945,0.620889 l -0.493889,0.508001 q -0.282223,-0.324556 -0.677334,-0.500945 -0.395112,-0.176389 -0.818445,-0.176389 -0.388056,0 -0.726723,0.141111 -0.338667,0.141111 -0.585611,0.395112 -0.239889,0.246944 -0.381001,0.592667 -0.141111,0.338667 -0.141111,0.733778 0,0.395111 0.141111,0.740834 0.141112,0.338667 0.388056,0.585611 0.246945,0.246945 0.585612,0.395112 0.345722,0.141111 0.740834,0.141111 z"
           style="stroke-width:0.198204"
           id="path1286" />
        <path
           d="m 69.447127,94.373152 q 0,0.529167 -0.204611,1.001889 -0.197556,0.465667 -0.543278,0.81139 -0.345722,0.338667 -0.818445,0.536222 -0.472722,0.197556 -1.008945,0.197556 -0.536223,0 -1.008945,-0.197556 -0.472723,-0.197555 -0.818445,-0.536222 -0.338667,-0.345723 -0.543278,-0.81139 -0.197556,-0.472722 -0.197556,-1.001889 0,-0.529167 0.197556,-0.994834 0.204611,-0.472723 0.543278,-0.811389 0.345722,-0.345723 0.818445,-0.543279 0.472722,-0.197555 1.008945,-0.197555 0.536223,0 1.008945,0.197555 0.472723,0.197556 0.818445,0.543279 0.345722,0.338666 0.543278,0.811389 0.204611,0.465667 0.204611,0.994834 z m -0.754945,0 q 0,-0.395111 -0.141111,-0.733778 -0.141111,-0.345723 -0.388056,-0.592667 -0.239889,-0.254001 -0.578555,-0.395112 -0.331612,-0.141111 -0.712612,-0.141111 -0.381,0 -0.712612,0.141111 -0.331611,0.141111 -0.578556,0.395112 -0.239889,0.246944 -0.381,0.592667 -0.141111,0.338667 -0.141111,0.733778 0,0.395111 0.141111,0.740834 0.141111,0.338667 0.381,0.585611 0.246945,0.246945 0.578556,0.395112 0.331612,0.141111 0.712612,0.141111 0.381,0 0.712612,-0.141111 0.338666,-0.148167 0.578555,-0.395112 0.246945,-0.246944 0.388056,-0.585611 0.141111,-0.345723 0.141111,-0.740834 z"
           style="stroke-width:0.198204"
           id="path1288" />
        <path
           d="m 69.906084,98.25371 v -0.3302 l 1.238251,-1.151115 q 0.275167,-0.261408 0.380647,-0.435681 0.110067,-0.174272 0.110067,-0.366889 0,-0.24765 -0.192617,-0.408164 -0.188031,-0.1651 -0.476956,-0.1651 -0.233892,0 -0.435681,0.09172 -0.201789,0.09172 -0.440266,0.302684 L 69.82812,95.479111 q 0.265995,-0.238478 0.55492,-0.357717 0.288925,-0.119239 0.591609,-0.119239 0.243064,0 0.444853,0.06879 0.206375,0.06879 0.348544,0.197203 0.146756,0.123825 0.229306,0.298097 0.08255,0.169686 0.08255,0.376062 0,0.275166 -0.137583,0.509058 -0.132998,0.233892 -0.504473,0.577851 l -0.903464,0.834672 h 1.595967 v 0.38982 z"
           style="font-size:65%;baseline-shift:sub;stroke-width:0.198204"
           id="path1290" />
      </g>
      <g
         inkscape:label=""
         transform="matrix(0.87035524,0,0,0.87035524,30.414382,37.623662)"
         id="g950"
         style="stroke-width:0.860708">
        <g
           id="g5682"
           style="stroke-width:0.860708">
          <g
             style="fill:#000000;fill-opacity:1;stroke-width:0.860708"
             id="g2613">
            <g
               id="use9561"
               style="stroke-width:0.860708"
               transform="translate(93.869003,78.040001)">
              <path
                 style="stroke:none"
                 d="m 0.84375,-0.4375 c -0.015625,0.09375 -0.0625,0.265625 -0.0625,0.28125 0,0.15625 0.125,0.21875 0.234375,0.21875 0.125,0 0.234375,-0.078125 0.28125,-0.140625 0.03125,-0.0625 0.078125,-0.296875 0.125,-0.4375 0.03125,-0.125 0.109375,-0.453125 0.140625,-0.625 0.046875,-0.15625 0.09375,-0.3125 0.125,-0.46875 0.078125,-0.28125 0.09375,-0.34375 0.296875,-0.625 C 2.171875,-2.515625 2.5,-2.875 3.03125,-2.875 c 0.390625,0 0.40625,0.359375 0.40625,0.484375 0,0.421875 -0.296875,1.1875 -0.40625,1.484375 -0.078125,0.203125 -0.109375,0.265625 -0.109375,0.375 0,0.375 0.296875,0.59375 0.65625,0.59375 0.703125,0 1,-0.953125 1,-1.0625 0,-0.09375 -0.078125,-0.09375 -0.109375,-0.09375 -0.09375,0 -0.09375,0.046875 -0.125,0.125 C 4.1875,-0.40625 3.875,-0.125 3.609375,-0.125 c -0.15625,0 -0.1875,-0.09375 -0.1875,-0.25 0,-0.15625 0.046875,-0.25 0.171875,-0.5625 0.078125,-0.21875 0.359375,-0.953125 0.359375,-1.34375 0,-0.671875 -0.53125,-0.796875 -0.90625,-0.796875 -0.578125,0 -0.96875,0.359375 -1.171875,0.640625 -0.046875,-0.484375 -0.453125,-0.640625 -0.75,-0.640625 -0.296875,0 -0.453125,0.21875 -0.546875,0.375 -0.15625,0.265625 -0.25,0.65625 -0.25,0.703125 0,0.078125 0.09375,0.078125 0.125,0.078125 0.09375,0 0.09375,-0.015625 0.140625,-0.203125 0.109375,-0.40625 0.25,-0.75 0.515625,-0.75 0.1875,0 0.234375,0.15625 0.234375,0.34375 0,0.125 -0.0625,0.390625 -0.125,0.578125 -0.046875,0.1875 -0.109375,0.46875 -0.140625,0.625 z m 0,0"
                 id="path1181" />
            </g>
          </g>
          <path
             style="fill:none;stroke:#000000;stroke-width:0.342561;stroke-linecap:butt;stroke-linejoin:miter;stroke-miterlimit:10;stroke-opacity:1"
             d="M 9.375e-5,-6.5625e-4 H 6.418063"
             transform="matrix(1,0,0,-1,93.121,79.472)"
             id="path7610" />
          <g
             style="fill:#000000;fill-opacity:1;stroke-width:0.860708"
             id="g90">
            <g
               id="use1465"
               style="stroke-width:0.860708"
               transform="translate(93.121002,85.398003)">
              <path
                 style="stroke:none"
                 d="m 4.984375,-3.9375 c 0.25,-0.375 0.484375,-0.546875 0.859375,-0.578125 0.078125,0 0.15625,0 0.15625,-0.140625 0,-0.03125 -0.015625,-0.109375 -0.09375,-0.109375 -0.171875,0 -0.390625,0.03125 -0.5625,0.03125 -0.21875,0 -0.515625,-0.03125 -0.71875,-0.03125 -0.0625,0 -0.140625,0.03125 -0.140625,0.15625 0,0.09375 0.09375,0.09375 0.125,0.09375 0.21875,0.015625 0.28125,0.109375 0.28125,0.203125 0,0.109375 -0.046875,0.171875 -0.125,0.28125 l -2.28125,3.375 -0.640625,-3.5625 c -0.015625,-0.0625 -0.015625,-0.078125 -0.015625,-0.109375 0,-0.1875 0.390625,-0.1875 0.4375,-0.1875 0.125,0 0.21875,0 0.21875,-0.140625 0,-0.015625 -0.015625,-0.109375 -0.125,-0.109375 -0.203125,0 -0.6875,0.03125 -0.890625,0.03125 -0.171875,0 -0.609375,-0.03125 -0.78125,-0.03125 -0.0625,0 -0.140625,0.03125 -0.140625,0.15625 0,0.09375 0.09375,0.09375 0.171875,0.09375 0.390625,0 0.40625,0.046875 0.4375,0.234375 l 0.765625,4.234375 c 0.015625,0.140625 0.03125,0.1875 0.15625,0.1875 0.140625,0 0.171875,-0.046875 0.25,-0.15625 z m 0,0"
                 id="path1185" />
            </g>
          </g>
          <g
             style="fill:#000000;fill-opacity:1;stroke-width:0.860708"
             id="g5757">
            <g
               id="use8521"
               style="stroke-width:0.860708"
               transform="translate(103.504,81.962997)">
              <path
                 style="stroke:none"
                 d="m 6.84375,-3.265625 c 0.15625,0 0.34375,0 0.34375,-0.1875 C 7.1875,-3.65625 7,-3.65625 6.859375,-3.65625 h -5.96875 c -0.140625,0 -0.328125,0 -0.328125,0.203125 0,0.1875 0.1875,0.1875 0.328125,0.1875 z m 0.015625,1.9375 c 0.140625,0 0.328125,0 0.328125,-0.203125 0,-0.1875 -0.1875,-0.1875 -0.34375,-0.1875 H 0.890625 c -0.140625,0 -0.328125,0 -0.328125,0.1875 0,0.203125 0.1875,0.203125 0.328125,0.203125 z m 0,0"
                 id="path1189" />
            </g>
          </g>
          <g
             style="fill:#000000;fill-opacity:1;stroke-width:0.860708"
             id="g1164">
            <g
               id="use9220"
               style="stroke-width:0.860708"
               transform="translate(114.02,81.962997)">
              <path
                 style="stroke:none"
                 d="M 3.015625,-3.15625 H 4.71875 c 1.40625,0 2.796875,-1.03125 2.796875,-2.140625 0,-0.78125 -0.65625,-1.515625 -1.96875,-1.515625 h -3.21875 c -0.1875,0 -0.296875,0 -0.296875,0.1875 0,0.125 0.078125,0.125 0.28125,0.125 0.125,0 0.3125,0.015625 0.421875,0.015625 0.171875,0.03125 0.21875,0.046875 0.21875,0.171875 0,0.03125 0,0.0625 -0.03125,0.1875 l -1.34375,5.34375 c -0.09375,0.390625 -0.109375,0.46875 -0.90625,0.46875 -0.15625,0 -0.265625,0 -0.265625,0.1875 C 0.40625,0 0.515625,0 0.546875,0 0.828125,0 1.53125,-0.03125 1.8125,-0.03125 c 0.21875,0 0.4375,0.015625 0.640625,0.015625 0.21875,0 0.4375,0.015625 0.640625,0.015625 0.078125,0 0.203125,0 0.203125,-0.203125 0,-0.109375 -0.09375,-0.109375 -0.28125,-0.109375 -0.359375,0 -0.640625,0 -0.640625,-0.171875 0,-0.0625 0.015625,-0.109375 0.03125,-0.171875 z M 3.734375,-6.125 C 3.828125,-6.46875 3.84375,-6.5 4.28125,-6.5 h 0.953125 c 0.828125,0 1.359375,0.265625 1.359375,0.953125 0,0.390625 -0.203125,1.25 -0.59375,1.609375 -0.5,0.453125 -1.09375,0.53125 -1.53125,0.53125 H 3.0625 Z m 0,0"
                 id="path1193" />
            </g>
          </g>
        </g>
      </g>
      <g
         inkscape:label=""
         transform="matrix(0.87268145,0,0,0.87268145,138.88678,38.819423)"
         id="g1059"
         style="fill:#000000;fill-opacity:1;stroke:none;stroke-width:0.858408;stroke-miterlimit:4;stroke-dasharray:none;stroke-opacity:1">
        <g
           id="g9822"
           style="fill:#000000;fill-opacity:1;stroke:none;stroke-width:0.858408;stroke-miterlimit:4;stroke-dasharray:none;stroke-opacity:1">
          <g
             style="fill:#000000;fill-opacity:1;stroke:none;stroke-width:0.858408;stroke-miterlimit:4;stroke-dasharray:none;stroke-opacity:1"
             id="g3122">
            <g
               id="use2541"
               style="fill:#000000;fill-opacity:1;stroke:none;stroke-width:0.858408;stroke-miterlimit:4;stroke-dasharray:none;stroke-opacity:1"
               transform="translate(91.925003,81.962997)">
              <path
                 style="stroke:none"
                 d="M 3.015625,-3.15625 H 4.71875 c 1.40625,0 2.796875,-1.03125 2.796875,-2.140625 0,-0.78125 -0.65625,-1.515625 -1.96875,-1.515625 h -3.21875 c -0.1875,0 -0.296875,0 -0.296875,0.1875 0,0.125 0.078125,0.125 0.28125,0.125 0.125,0 0.3125,0.015625 0.421875,0.015625 0.171875,0.03125 0.21875,0.046875 0.21875,0.171875 0,0.03125 0,0.0625 -0.03125,0.1875 l -1.34375,5.34375 c -0.09375,0.390625 -0.109375,0.46875 -0.90625,0.46875 -0.15625,0 -0.265625,0 -0.265625,0.1875 C 0.40625,0 0.515625,0 0.546875,0 0.828125,0 1.53125,-0.03125 1.8125,-0.03125 c 0.21875,0 0.4375,0.015625 0.640625,0.015625 0.21875,0 0.4375,0.015625 0.640625,0.015625 0.078125,0 0.203125,0 0.203125,-0.203125 0,-0.109375 -0.09375,-0.109375 -0.28125,-0.109375 -0.359375,0 -0.640625,0 -0.640625,-0.171875 0,-0.0625 0.015625,-0.109375 0.03125,-0.171875 z M 3.734375,-6.125 C 3.828125,-6.46875 3.84375,-6.5 4.28125,-6.5 h 0.953125 c 0.828125,0 1.359375,0.265625 1.359375,0.953125 0,0.390625 -0.203125,1.25 -0.59375,1.609375 -0.5,0.453125 -1.09375,0.53125 -1.53125,0.53125 H 3.0625 Z m 0,0"
                 id="path1197" />
            </g>
          </g>
          <g
             style="fill:#000000;fill-opacity:1;stroke:none;stroke-width:0.858408;stroke-miterlimit:4;stroke-dasharray:none;stroke-opacity:1"
             id="g3782">
            <g
               id="use6038"
               style="fill:#000000;fill-opacity:1;stroke:none;stroke-width:0.858408;stroke-miterlimit:4;stroke-dasharray:none;stroke-opacity:1"
               transform="translate(102.472,81.962997)">
              <path
                 style="stroke:none"
                 d="m 6.84375,-3.265625 c 0.15625,0 0.34375,0 0.34375,-0.1875 C 7.1875,-3.65625 7,-3.65625 6.859375,-3.65625 h -5.96875 c -0.140625,0 -0.328125,0 -0.328125,0.203125 0,0.1875 0.1875,0.1875 0.328125,0.1875 z m 0.015625,1.9375 c 0.140625,0 0.328125,0 0.328125,-0.203125 0,-0.1875 -0.1875,-0.1875 -0.34375,-0.1875 H 0.890625 c -0.140625,0 -0.328125,0 -0.328125,0.1875 0,0.203125 0.1875,0.203125 0.328125,0.203125 z m 0,0"
                 id="path1201" />
            </g>
          </g>
          <g
             style="fill:#000000;fill-opacity:1;stroke:none;stroke-width:0.858408;stroke-miterlimit:4;stroke-dasharray:none;stroke-opacity:1"
             id="g6801">
            <g
               id="use7231"
               style="fill:#000000;fill-opacity:1;stroke:none;stroke-width:0.858408;stroke-miterlimit:4;stroke-dasharray:none;stroke-opacity:1"
               transform="translate(112.99052,81.962997)">
              <path
                 style="stroke:none"
                 d="m 4.578125,-3.1875 c 0,-0.796875 -0.046875,-1.59375 -0.390625,-2.328125 -0.453125,-0.96875 -1.28125,-1.125 -1.6875,-1.125 -0.609375,0 -1.328125,0.265625 -1.75,1.1875 -0.3125,0.6875 -0.359375,1.46875 -0.359375,2.265625 0,0.75 0.03125,1.640625 0.453125,2.40625 0.421875,0.796875 1.15625,1 1.640625,1 0.53125,0 1.296875,-0.203125 1.734375,-1.15625 0.3125,-0.6875 0.359375,-1.46875 0.359375,-2.25 z M 2.484375,0 C 2.09375,0 1.5,-0.25 1.328125,-1.203125 1.21875,-1.796875 1.21875,-2.71875 1.21875,-3.3125 c 0,-0.640625 0,-1.296875 0.078125,-1.828125 0.1875,-1.1875 0.9375,-1.28125 1.1875,-1.28125 0.328125,0 0.984375,0.1875 1.171875,1.171875 0.109375,0.5625 0.109375,1.3125 0.109375,1.9375 0,0.75 0,1.421875 -0.109375,2.0625 C 3.5,-0.296875 2.9375,0 2.484375,0 Z m 0,0"
                 id="path1205" />
            </g>
          </g>
        </g>
      </g>
    </g>
  </g>
</svg>
