<?xml version="1.0" encoding="UTF-8" standalone="no"?>
<svg
   xmlns:dc="http://purl.org/dc/elements/1.1/"
   xmlns:cc="http://creativecommons.org/ns#"
   xmlns:rdf="http://www.w3.org/1999/02/22-rdf-syntax-ns#"
   xmlns:svg="http://www.w3.org/2000/svg"
   xmlns="http://www.w3.org/2000/svg"
   xmlns:xlink="http://www.w3.org/1999/xlink"
   xmlns:sodipodi="http://sodipodi.sourceforge.net/DTD/sodipodi-0.dtd"
   xmlns:inkscape="http://www.inkscape.org/namespaces/inkscape"
   width="11in"
   height="4in"
   viewBox="0 0 279.39999 101.6"
   version="1.1"
   id="svg8"
   inkscape:version="1.0.2 (1.0.2+r75+1)"
   sodipodi:docname="inlet_flow_diag.svg"
   inkscape:export-filename="/home/brett/Projects/HybridGIS/doc/SNEAP2021/images/inlet_flow_diag.png"
   inkscape:export-xdpi="96"
   inkscape:export-ydpi="96">
  <defs
     id="defs2">
    <marker
       style="overflow:visible"
       id="marker1326"
       refX="0"
       refY="0"
       orient="auto"
       inkscape:stockid="Arrow1Mend"
       inkscape:isstock="true">
      <path
         transform="matrix(-0.4,0,0,-0.4,-4,0)"
         style="fill:#000000;fill-opacity:1;fill-rule:evenodd;stroke:#000000;stroke-width:1pt;stroke-opacity:1"
         d="M 0,0 5,-5 -12.5,0 5,5 Z"
         id="path1324" />
    </marker>
    <marker
       style="overflow:visible"
       id="marker1316"
       refX="0"
       refY="0"
       orient="auto"
       inkscape:stockid="Arrow1Mend"
       inkscape:isstock="true">
      <path
         transform="matrix(-0.4,0,0,-0.4,-4,0)"
         style="fill:#000000;fill-opacity:1;fill-rule:evenodd;stroke:#000000;stroke-width:1pt;stroke-opacity:1"
         d="M 0,0 5,-5 -12.5,0 5,5 Z"
         id="path1314" />
    </marker>
    <marker
       style="overflow:visible"
       id="marker1262"
       refX="0"
       refY="0"
       orient="auto"
       inkscape:stockid="Arrow1Send"
       inkscape:isstock="true">
      <path
         transform="matrix(-0.2,0,0,-0.2,-1.2,0)"
         style="fill:#000000;fill-opacity:1;fill-rule:evenodd;stroke:#000000;stroke-width:1pt;stroke-opacity:1"
         d="M 0,0 5,-5 -12.5,0 5,5 Z"
         id="path1260" />
    </marker>
    <marker
       style="overflow:visible"
       id="marker1252"
       refX="0"
       refY="0"
       orient="auto"
       inkscape:stockid="Arrow1Send"
       inkscape:isstock="true">
      <path
         transform="matrix(-0.2,0,0,-0.2,-1.2,0)"
         style="fill:#000000;fill-opacity:1;fill-rule:evenodd;stroke:#000000;stroke-width:1pt;stroke-opacity:1"
         d="M 0,0 5,-5 -12.5,0 5,5 Z"
         id="path1250" />
    </marker>
    <rect
       x="79.547813"
       y="90.295761"
       width="3.2037289"
       height="7.2630782"
       id="rect900" />
    <g
       id="g9415">
      <symbol
         overflow="visible"
         id="symbol3644">
        <path
           style="stroke:none"
           d=""
           id="path774" />
      </symbol>
      <symbol
         overflow="visible"
         id="symbol7848">
        <path
           style="stroke:none"
           d="m 0.84375,-0.4375 c -0.015625,0.09375 -0.0625,0.265625 -0.0625,0.28125 0,0.15625 0.125,0.21875 0.234375,0.21875 0.125,0 0.234375,-0.078125 0.28125,-0.140625 0.03125,-0.0625 0.078125,-0.296875 0.125,-0.4375 0.03125,-0.125 0.109375,-0.453125 0.140625,-0.625 0.046875,-0.15625 0.09375,-0.3125 0.125,-0.46875 0.078125,-0.28125 0.09375,-0.34375 0.296875,-0.625 C 2.171875,-2.515625 2.5,-2.875 3.03125,-2.875 c 0.390625,0 0.40625,0.359375 0.40625,0.484375 0,0.421875 -0.296875,1.1875 -0.40625,1.484375 -0.078125,0.203125 -0.109375,0.265625 -0.109375,0.375 0,0.375 0.296875,0.59375 0.65625,0.59375 0.703125,0 1,-0.953125 1,-1.0625 0,-0.09375 -0.078125,-0.09375 -0.109375,-0.09375 -0.09375,0 -0.09375,0.046875 -0.125,0.125 C 4.1875,-0.40625 3.875,-0.125 3.609375,-0.125 c -0.15625,0 -0.1875,-0.09375 -0.1875,-0.25 0,-0.15625 0.046875,-0.25 0.171875,-0.5625 0.078125,-0.21875 0.359375,-0.953125 0.359375,-1.34375 0,-0.671875 -0.53125,-0.796875 -0.90625,-0.796875 -0.578125,0 -0.96875,0.359375 -1.171875,0.640625 -0.046875,-0.484375 -0.453125,-0.640625 -0.75,-0.640625 -0.296875,0 -0.453125,0.21875 -0.546875,0.375 -0.15625,0.265625 -0.25,0.65625 -0.25,0.703125 0,0.078125 0.09375,0.078125 0.125,0.078125 0.09375,0 0.09375,-0.015625 0.140625,-0.203125 0.109375,-0.40625 0.25,-0.75 0.515625,-0.75 0.1875,0 0.234375,0.15625 0.234375,0.34375 0,0.125 -0.0625,0.390625 -0.125,0.578125 -0.046875,0.1875 -0.109375,0.46875 -0.140625,0.625 z m 0,0"
           id="path5924" />
      </symbol>
      <symbol
         overflow="visible"
         id="symbol4120">
        <path
           style="stroke:none"
           d="m 4.984375,-3.9375 c 0.25,-0.375 0.484375,-0.546875 0.859375,-0.578125 0.078125,0 0.15625,0 0.15625,-0.140625 0,-0.03125 -0.015625,-0.109375 -0.09375,-0.109375 -0.171875,0 -0.390625,0.03125 -0.5625,0.03125 -0.21875,0 -0.515625,-0.03125 -0.71875,-0.03125 -0.0625,0 -0.140625,0.03125 -0.140625,0.15625 0,0.09375 0.09375,0.09375 0.125,0.09375 0.21875,0.015625 0.28125,0.109375 0.28125,0.203125 0,0.109375 -0.046875,0.171875 -0.125,0.28125 l -2.28125,3.375 -0.640625,-3.5625 c -0.015625,-0.0625 -0.015625,-0.078125 -0.015625,-0.109375 0,-0.1875 0.390625,-0.1875 0.4375,-0.1875 0.125,0 0.21875,0 0.21875,-0.140625 0,-0.015625 -0.015625,-0.109375 -0.125,-0.109375 -0.203125,0 -0.6875,0.03125 -0.890625,0.03125 -0.171875,0 -0.609375,-0.03125 -0.78125,-0.03125 -0.0625,0 -0.140625,0.03125 -0.140625,0.15625 0,0.09375 0.09375,0.09375 0.171875,0.09375 0.390625,0 0.40625,0.046875 0.4375,0.234375 l 0.765625,4.234375 c 0.015625,0.140625 0.03125,0.1875 0.15625,0.1875 0.140625,0 0.171875,-0.046875 0.25,-0.15625 z m 0,0"
           id="path3280" />
      </symbol>
      <symbol
         overflow="visible"
         id="symbol7507">
        <path
           style="stroke:none"
           d=""
           id="path9541" />
      </symbol>
      <symbol
         overflow="visible"
         id="symbol4757">
        <path
           style="stroke:none"
           d="m 6.84375,-3.265625 c 0.15625,0 0.34375,0 0.34375,-0.1875 C 7.1875,-3.65625 7,-3.65625 6.859375,-3.65625 h -5.96875 c -0.140625,0 -0.328125,0 -0.328125,0.203125 0,0.1875 0.1875,0.1875 0.328125,0.1875 z m 0.015625,1.9375 c 0.140625,0 0.328125,0 0.328125,-0.203125 0,-0.1875 -0.1875,-0.1875 -0.34375,-0.1875 H 0.890625 c -0.140625,0 -0.328125,0 -0.328125,0.1875 0,0.203125 0.1875,0.203125 0.328125,0.203125 z m 0,0"
           id="path7410" />
      </symbol>
      <symbol
         overflow="visible"
         id="symbol7177">
        <path
           style="stroke:none"
           d=""
           id="path5076" />
      </symbol>
      <symbol
         overflow="visible"
         id="symbol2488">
        <path
           style="stroke:none"
           d="M 3.015625,-3.15625 H 4.71875 c 1.40625,0 2.796875,-1.03125 2.796875,-2.140625 0,-0.78125 -0.65625,-1.515625 -1.96875,-1.515625 h -3.21875 c -0.1875,0 -0.296875,0 -0.296875,0.1875 0,0.125 0.078125,0.125 0.28125,0.125 0.125,0 0.3125,0.015625 0.421875,0.015625 0.171875,0.03125 0.21875,0.046875 0.21875,0.171875 0,0.03125 0,0.0625 -0.03125,0.1875 l -1.34375,5.34375 c -0.09375,0.390625 -0.109375,0.46875 -0.90625,0.46875 -0.15625,0 -0.265625,0 -0.265625,0.1875 C 0.40625,0 0.515625,0 0.546875,0 0.828125,0 1.53125,-0.03125 1.8125,-0.03125 c 0.21875,0 0.4375,0.015625 0.640625,0.015625 0.21875,0 0.4375,0.015625 0.640625,0.015625 0.078125,0 0.203125,0 0.203125,-0.203125 0,-0.109375 -0.09375,-0.109375 -0.28125,-0.109375 -0.359375,0 -0.640625,0 -0.640625,-0.171875 0,-0.0625 0.015625,-0.109375 0.03125,-0.171875 z M 3.734375,-6.125 C 3.828125,-6.46875 3.84375,-6.5 4.28125,-6.5 h 0.953125 c 0.828125,0 1.359375,0.265625 1.359375,0.953125 0,0.390625 -0.203125,1.25 -0.59375,1.609375 -0.5,0.453125 -1.09375,0.53125 -1.53125,0.53125 H 3.0625 Z m 0,0"
           id="path6904" />
      </symbol>
    </g>
    <g
       id="g9172">
      <symbol
         overflow="visible"
         id="symbol4702">
        <path
           style="stroke:none"
           d=""
           id="path8095" />
      </symbol>
      <symbol
         overflow="visible"
         id="symbol1092">
        <path
           style="stroke:none"
           d="M 3.015625,-3.15625 H 4.71875 c 1.40625,0 2.796875,-1.03125 2.796875,-2.140625 0,-0.78125 -0.65625,-1.515625 -1.96875,-1.515625 h -3.21875 c -0.1875,0 -0.296875,0 -0.296875,0.1875 0,0.125 0.078125,0.125 0.28125,0.125 0.125,0 0.3125,0.015625 0.421875,0.015625 0.171875,0.03125 0.21875,0.046875 0.21875,0.171875 0,0.03125 0,0.0625 -0.03125,0.1875 l -1.34375,5.34375 c -0.09375,0.390625 -0.109375,0.46875 -0.90625,0.46875 -0.15625,0 -0.265625,0 -0.265625,0.1875 C 0.40625,0 0.515625,0 0.546875,0 0.828125,0 1.53125,-0.03125 1.8125,-0.03125 c 0.21875,0 0.4375,0.015625 0.640625,0.015625 0.21875,0 0.4375,0.015625 0.640625,0.015625 0.078125,0 0.203125,0 0.203125,-0.203125 0,-0.109375 -0.09375,-0.109375 -0.28125,-0.109375 -0.359375,0 -0.640625,0 -0.640625,-0.171875 0,-0.0625 0.015625,-0.109375 0.03125,-0.171875 z M 3.734375,-6.125 C 3.828125,-6.46875 3.84375,-6.5 4.28125,-6.5 h 0.953125 c 0.828125,0 1.359375,0.265625 1.359375,0.953125 0,0.390625 -0.203125,1.25 -0.59375,1.609375 -0.5,0.453125 -1.09375,0.53125 -1.53125,0.53125 H 3.0625 Z m 0,0"
           id="path7734" />
      </symbol>
      <symbol
         overflow="visible"
         id="symbol7638">
        <path
           style="stroke:none"
           d=""
           id="path3649" />
      </symbol>
      <symbol
         overflow="visible"
         id="symbol8906">
        <path
           style="stroke:none"
           d="m 6.84375,-3.265625 c 0.15625,0 0.34375,0 0.34375,-0.1875 C 7.1875,-3.65625 7,-3.65625 6.859375,-3.65625 h -5.96875 c -0.140625,0 -0.328125,0 -0.328125,0.203125 0,0.1875 0.1875,0.1875 0.328125,0.1875 z m 0.015625,1.9375 c 0.140625,0 0.328125,0 0.328125,-0.203125 0,-0.1875 -0.1875,-0.1875 -0.34375,-0.1875 H 0.890625 c -0.140625,0 -0.328125,0 -0.328125,0.1875 0,0.203125 0.1875,0.203125 0.328125,0.203125 z m 0,0"
           id="path5643" />
      </symbol>
      <symbol
         overflow="visible"
         id="symbol4357">
        <path
           style="stroke:none"
           d="m 4.578125,-3.1875 c 0,-0.796875 -0.046875,-1.59375 -0.390625,-2.328125 -0.453125,-0.96875 -1.28125,-1.125 -1.6875,-1.125 -0.609375,0 -1.328125,0.265625 -1.75,1.1875 -0.3125,0.6875 -0.359375,1.46875 -0.359375,2.265625 0,0.75 0.03125,1.640625 0.453125,2.40625 0.421875,0.796875 1.15625,1 1.640625,1 0.53125,0 1.296875,-0.203125 1.734375,-1.15625 0.3125,-0.6875 0.359375,-1.46875 0.359375,-2.25 z M 2.484375,0 C 2.09375,0 1.5,-0.25 1.328125,-1.203125 1.21875,-1.796875 1.21875,-2.71875 1.21875,-3.3125 c 0,-0.640625 0,-1.296875 0.078125,-1.828125 0.1875,-1.1875 0.9375,-1.28125 1.1875,-1.28125 0.328125,0 0.984375,0.1875 1.171875,1.171875 0.109375,0.5625 0.109375,1.3125 0.109375,1.9375 0,0.75 0,1.421875 -0.109375,2.0625 C 3.5,-0.296875 2.9375,0 2.484375,0 Z m 0,0"
           id="path9465" />
      </symbol>
    </g>
  </defs>
  <sodipodi:namedview
     id="base"
     pagecolor="#ffffff"
     bordercolor="#666666"
     borderopacity="1.0"
     inkscape:pageopacity="0.0"
     inkscape:pageshadow="2"
     inkscape:zoom="1"
     inkscape:cx="586.22068"
     inkscape:cy="264.75116"
     inkscape:document-units="in"
     inkscape:current-layer="layer1"
     inkscape:document-rotation="0"
     showgrid="false"
     inkscape:snap-smooth-nodes="true"
     inkscape:window-width="1920"
     inkscape:window-height="1136"
     inkscape:window-x="0"
     inkscape:window-y="27"
     inkscape:window-maximized="1"
     fit-margin-top="10"
     fit-margin-right="10"
     fit-margin-left="10"
     fit-margin-bottom="10"
     units="in"
     lock-margins="false">
    <inkscape:grid
       type="xygrid"
       id="grid852"
       originx="-46.394182"
       originy="-70.890472" />
  </sodipodi:namedview>
  <metadata
     id="metadata5">
    <rdf:RDF>
      <cc:Work
         rdf:about="">
        <dc:format>image/svg+xml</dc:format>
        <dc:type
           rdf:resource="http://purl.org/dc/dcmitype/StillImage" />
        <dc:title></dc:title>
      </cc:Work>
    </rdf:RDF>
  </metadata>
  <g
     inkscape:label="Layer 1"
     inkscape:groupmode="layer"
     id="layer1"
     transform="translate(-46.394186,-70.890474)">
    <text
       xml:space="preserve"
       id="text898"
       style="font-style:normal;font-variant:normal;font-weight:500;font-stretch:normal;font-size:7.05556px;line-height:1.25;font-family:'Red Hat Display';-inkscape-font-specification:'Red Hat Display, Medium';font-variant-ligatures:normal;font-variant-caps:normal;font-variant-numeric:normal;font-feature-settings:normal;text-align:start;letter-spacing:0px;word-spacing:0px;writing-mode:lr-tb;white-space:pre;shape-inside:url(#rect900);fill:#000000;fill-opacity:1;stroke:none;" />
    <g
       id="g987"
       transform="matrix(1.3293166,0,0,1.3405086,-18.920834,-19.186887)"
       style="stroke-width:0.749119">
      <rect
         style="opacity:0.996;fill:#00a9e0;stroke:#00a9e0;stroke-width:2.24736;stroke-linejoin:round;paint-order:stroke markers fill"
         id="rect833"
         width="35.253742"
         height="35.253742"
         x="106.20131"
         y="89.843018" />
      <rect
         style="opacity:0.996;fill:#00a9e0;stroke:#00a9e0;stroke-width:2.24736;stroke-linejoin:round;paint-order:stroke markers fill"
         id="rect846"
         width="35.253742"
         height="35.253742"
         x="106.20131"
         y="89.843018" />
      <rect
         style="opacity:0.996;fill:#00a9e0;stroke:#00a9e0;stroke-width:2.24736;stroke-linejoin:round;paint-order:stroke markers fill"
         id="rect848"
         width="35.253742"
         height="35.253742"
         x="212.84778"
         y="89.843018" />
      <path
         style="fill:none;stroke:#000000;stroke-width:0.792815;stroke-linecap:butt;stroke-linejoin:miter;stroke-miterlimit:4;stroke-dasharray:none;stroke-opacity:1"
         d="m 142.94852,106.95929 h 68.39946"
         id="path850"
         sodipodi:nodetypes="cc" />
      <circle
         style="opacity:0.996;fill:#00a9e0;stroke:#00a9e0;stroke-width:2.24736;stroke-linejoin:round;stroke-miterlimit:4;stroke-dasharray:none;paint-order:stroke markers fill"
         id="path854"
         cx="65.747543"
         cy="95.039902"
         r="7.050386" />
      <circle
         style="opacity:0.996;fill:#00a9e0;stroke:#00a9e0;stroke-width:2.24736;stroke-linejoin:round;stroke-miterlimit:4;stroke-dasharray:none;paint-order:stroke markers fill"
         id="circle856"
         cx="64.944572"
         cy="121.1204"
         r="7.050386" />
      <path
         style="fill:none;stroke:#000000;stroke-width:0.792568;stroke-linecap:butt;stroke-linejoin:miter;stroke-miterlimit:4;stroke-dasharray:none;stroke-opacity:1;marker-end:url(#marker1316)"
         d="m 74.21499,94.782221 h 28.46185"
         id="path858"
         sodipodi:nodetypes="cc" />
      <path
         style="fill:none;stroke:#000000;stroke-width:0.792568;stroke-linecap:butt;stroke-linejoin:miter;stroke-miterlimit:4;stroke-dasharray:none;stroke-opacity:1;marker-end:url(#marker1326)"
         d="M 73.479251,121.15598 H 102.63841"
         id="path860"
         sodipodi:nodetypes="cc" />
      <text
         xml:space="preserve"
         style="font-style:normal;font-variant:normal;font-weight:500;font-stretch:normal;font-size:7.05556px;line-height:1.25;font-family:'Red Hat Display';-inkscape-font-specification:'Red Hat Display, Medium';font-variant-ligatures:normal;font-variant-caps:normal;font-variant-numeric:normal;font-feature-settings:normal;text-align:start;letter-spacing:0px;word-spacing:0px;writing-mode:lr-tb;text-anchor:start;fill:#000000;fill-opacity:1;stroke:none;stroke-width:0.198204"
         x="212.29329"
         y="85.977531"
         id="text864"><tspan
           sodipodi:role="line"
           id="tspan862"
           x="212.29329"
           y="85.977531"
           style="stroke-width:0.198204">Source</tspan></text>
      <text
         xml:space="preserve"
         style="font-style:normal;font-variant:normal;font-weight:500;font-stretch:normal;font-size:7.05556px;line-height:1.25;font-family:'Red Hat Display';-inkscape-font-specification:'Red Hat Display, Medium';font-variant-ligatures:normal;font-variant-caps:normal;font-variant-numeric:normal;font-feature-settings:normal;text-align:start;letter-spacing:0px;word-spacing:0px;writing-mode:lr-tb;text-anchor:start;fill:#000000;fill-opacity:1;stroke:none;stroke-width:0.198204"
         x="105.93237"
         y="85.984589"
         id="text868"><tspan
           sodipodi:role="line"
           id="tspan866"
           x="105.93237"
           y="85.984589"
           style="stroke-width:0.198204">Inlet</tspan></text>
      <text
         xml:space="preserve"
         style="font-style:normal;font-variant:normal;font-weight:500;font-stretch:normal;font-size:7.05556px;line-height:1.25;font-family:'Red Hat Display';-inkscape-font-specification:'Red Hat Display, Medium';font-variant-ligatures:normal;font-variant-caps:normal;font-variant-numeric:normal;font-feature-settings:normal;text-align:start;letter-spacing:0px;word-spacing:0px;writing-mode:lr-tb;text-anchor:start;fill:#000000;fill-opacity:1;stroke:none;stroke-width:0.198204"
         x="60.24205"
         y="123.55811"
         id="text876"><tspan
           sodipodi:role="line"
           id="tspan874"
           x="60.24205"
           y="123.55811"
           style="stroke-width:0.198204">He</tspan></text>
      <text
         xml:space="preserve"
         style="font-style:normal;font-variant:normal;font-weight:500;font-stretch:normal;font-size:7.05556px;line-height:1.25;font-family:'Red Hat Display';-inkscape-font-specification:'Red Hat Display, Medium';font-variant-ligatures:normal;font-variant-caps:normal;font-variant-numeric:normal;font-feature-settings:normal;text-align:start;letter-spacing:0px;word-spacing:0px;writing-mode:lr-tb;text-anchor:start;fill:#000000;fill-opacity:1;stroke:none;stroke-width:0.198204"
         x="148.51126"
         y="104.26847"
         id="text880"><tspan
           sodipodi:role="line"
           id="tspan878"
           x="148.51126"
           y="104.26847"
           style="stroke-width:0.198204">Flow ≈ ΔPressure</tspan></text>
      <text
         xml:space="preserve"
         style="font-style:normal;font-variant:normal;font-weight:500;font-stretch:normal;font-size:7.05556px;line-height:1.25;font-family:'Red Hat Display';-inkscape-font-specification:'Red Hat Display, Medium';font-variant-ligatures:normal;font-variant-caps:normal;font-variant-numeric:normal;font-feature-settings:normal;text-align:start;letter-spacing:0px;word-spacing:0px;writing-mode:lr-tb;text-anchor:start;fill:#000000;fill-opacity:1;stroke:none;stroke-width:0.198204"
         x="59.075462"
         y="96.842598"
         id="text906"><tspan
           sodipodi:role="line"
           id="tspan904"
           x="59.075462"
           y="96.842598"
           style="stroke-width:0.198204">CO<tspan
   style="font-size:65%;baseline-shift:sub;stroke-width:0.198204"
   id="tspan908">2</tspan></tspan></text>
      <g
         inkscape:label=""
         transform="matrix(0.87035524,0,0,0.87035524,30.414382,37.623662)"
         id="g950"
         style="stroke-width:0.860708">
        <g
           id="g5682"
           style="stroke-width:0.860708">
          <g
             style="fill:#000000;fill-opacity:1;stroke-width:0.860708"
             id="g2613">
            <use
               xlink:href="#symbol7848"
               x="93.869003"
               y="78.040001"
               id="use9561"
               width="100%"
               height="100%"
               style="stroke-width:0.860708" />
          </g>
          <path
             style="fill:none;stroke:#000000;stroke-width:0.342561;stroke-linecap:butt;stroke-linejoin:miter;stroke-miterlimit:10;stroke-opacity:1"
             d="M 9.375e-5,-6.5625e-4 H 6.418063"
             transform="matrix(1,0,0,-1,93.121,79.472)"
             id="path7610" />
          <g
             style="fill:#000000;fill-opacity:1;stroke-width:0.860708"
             id="g90">
            <use
               xlink:href="#symbol4120"
               x="93.121002"
               y="85.398003"
               id="use1465"
               width="100%"
               height="100%"
               style="stroke-width:0.860708" />
          </g>
          <g
             style="fill:#000000;fill-opacity:1;stroke-width:0.860708"
             id="g5757">
            <use
               xlink:href="#symbol4757"
               x="103.504"
               y="81.962997"
               id="use8521"
               width="100%"
               height="100%"
               style="stroke-width:0.860708" />
          </g>
          <g
             style="fill:#000000;fill-opacity:1;stroke-width:0.860708"
             id="g1164">
            <use
               xlink:href="#symbol2488"
               x="114.02"
               y="81.962997"
               id="use9220"
               width="100%"
               height="100%"
               style="stroke-width:0.860708" />
          </g>
        </g>
      </g>
      <g
         inkscape:label=""
         transform="matrix(0.87268145,0,0,0.87268145,138.88678,38.819423)"
         id="g1059"
         style="fill:#000000;fill-opacity:1;stroke:none;stroke-width:0.858408;stroke-miterlimit:4;stroke-dasharray:none;stroke-opacity:1">
        <g
           id="g9822"
           style="fill:#000000;fill-opacity:1;stroke:none;stroke-width:0.858408;stroke-miterlimit:4;stroke-dasharray:none;stroke-opacity:1">
          <g
             style="fill:#000000;fill-opacity:1;stroke:none;stroke-width:0.858408;stroke-miterlimit:4;stroke-dasharray:none;stroke-opacity:1"
             id="g3122">
            <use
               xlink:href="#symbol1092"
               x="91.925003"
               y="81.962997"
               id="use2541"
               width="100%"
               height="100%"
               style="fill:#000000;fill-opacity:1;stroke:none;stroke-width:0.858408;stroke-miterlimit:4;stroke-dasharray:none;stroke-opacity:1" />
          </g>
          <g
             style="fill:#000000;fill-opacity:1;stroke:none;stroke-width:0.858408;stroke-miterlimit:4;stroke-dasharray:none;stroke-opacity:1"
             id="g3782">
            <use
               xlink:href="#symbol8906"
               x="102.472"
               y="81.962997"
               id="use6038"
               width="100%"
               height="100%"
               style="fill:#000000;fill-opacity:1;stroke:none;stroke-width:0.858408;stroke-miterlimit:4;stroke-dasharray:none;stroke-opacity:1" />
          </g>
          <g
             style="fill:#000000;fill-opacity:1;stroke:none;stroke-width:0.858408;stroke-miterlimit:4;stroke-dasharray:none;stroke-opacity:1"
             id="g6801">
            <use
               xlink:href="#symbol4357"
               x="112.99052"
               y="81.962997"
               id="use7231"
               width="100%"
               height="100%"
               style="fill:#000000;fill-opacity:1;stroke:none;stroke-width:0.858408;stroke-miterlimit:4;stroke-dasharray:none;stroke-opacity:1" />
          </g>
        </g>
      </g>
    </g>
  </g>
</svg>
