<?xml version="1.0" encoding="utf-8"?>
<!-- Generator: Adobe Illustrator 24.1.3, SVG Export Plug-In . SVG Version: 6.00 Build 0)  -->
<svg version="1.1" id="Layer_1" xmlns="http://www.w3.org/2000/svg" xmlns:xlink="http://www.w3.org/1999/xlink" x="0px" y="0px"
	 viewBox="0 0 3452.41 612" style="enable-background:new 0 0 3452.41 612;" xml:space="preserve">
<style type="text/css">
	.st0{fill:#00B7BD;}
	.st1{fill:#00A9E0;}
	.st2{fill:#0069B1;}
	.st3{fill:#041E42;}
</style>
<g>
	<path class="st0" d="M236.44,197.63c-4.68,0.2-9.28,0.71-13.78,1.48c-11.1,55.24-42.18,103.32-85.38,136.35
		c1.28,4.47,2.83,8.82,4.66,13.03C190.46,312.7,225.17,259.21,236.44,197.63z"/>
	<path class="st0" d="M208.21,202.63c-5.27,1.68-10.36,3.76-15.24,6.2c-10.57,37.41-31.66,70.41-59.89,95.63
		c0,0.37-0.03,0.74-0.03,1.11c0,5.21,0.39,10.32,1.1,15.33C170.65,291.25,197.25,249.91,208.21,202.63z"/>
	<path class="st0" d="M135.23,283.87c17.42-18.29,31.24-40.03,40.23-64.12C155.17,235.31,140.53,257.89,135.23,283.87z"/>
</g>
<g>
	<path class="st1" d="M340.29,348.49c1.82-4.21,3.38-8.56,4.66-13.03c-43.2-33.03-74.28-81.11-85.38-136.35
		c-4.51-0.78-9.1-1.28-13.78-1.48C257.05,259.21,291.76,312.7,340.29,348.49z"/>
	<path class="st1" d="M306.75,219.75c8.99,24.09,22.81,45.83,40.23,64.12C341.69,257.89,327.06,235.31,306.75,219.75z"/>
	<path class="st1" d="M348.07,320.9c0.71-5.01,1.1-10.12,1.1-15.33c0-0.37-0.02-0.74-0.03-1.11
		c-28.23-25.22-49.33-58.22-59.89-95.63c-4.88-2.43-9.97-4.52-15.24-6.2C284.98,249.91,311.57,291.25,348.07,320.9z"/>
</g>
<g>
	<g>
		<path class="st2" d="M276.83,406.51c-14.64,0-27.67-1.92-35.72-8.05c-8.05,6.13-21.08,8.05-35.72,8.05h-2.86
			c11.99,4.58,24.98,7.12,38.58,7.12s26.59-2.54,38.58-7.12H276.83z"/>
	</g>
	<g>
		<path class="st2" d="M327.41,357.02h-19.23c-4.32,0-8.5-0.44-12.45-1.43c-9.36-2.49-17.54-8.16-23.13-16.01
			c-4.58,6.42-10.88,11.37-18.14,14.33h-0.06c-5.41,2.21-11.38,3.1-17.65,3.11h-21.3v0h-69.39c2.39,4.41,5.1,8.64,8.06,12.65h70.07
			c14.64,0,27.67-0.03,35.72-10.4c8.05,10.37,21.08,10.4,35.72,10.4h32.44c2.97-4.02,5.67-8.24,8.06-12.65h-5.61L327.41,357.02z"/>
	</g>
	<g>
		<path class="st2" d="M295.65,382.32c-14.64,0-27.67-2.29-35.72-10.23c-8.05,7.93-21.08,10.23-35.72,10.23h-59.14
			c4.71,4.67,9.84,8.9,15.34,12.64h24.96c14.64,0,27.67-1.77,35.72-7.42c8.05,5.65,21.08,7.42,35.72,7.42h25.01
			c5.5-3.74,10.63-7.98,15.34-12.64H295.65z"/>
	</g>
</g>
<g>
	<path class="st3" d="M1365.58,350.92c27.73,0,46.3-18.57,46.3-44.73c0-27.12-20.26-44.37-46.42-44.37
		c-26.4,0-46.66,17.48-46.66,44.61C1318.79,333.2,1338.57,350.92,1365.58,350.92z M1365.45,280.63c15.07,0,24.23,11.09,24.23,25.68
		c0,14.22-8.68,25.68-24.11,25.68c-15.31,0-24.6-11.22-24.6-25.68C1340.98,291.48,1350.63,280.63,1365.45,280.63z"/>
	<path class="st3" d="M1500.76,342.85l-7.48-17.24c-5.67,3.49-12.18,5.43-19.05,5.43c-13.99,0-27.25-7.96-27.25-25.08
		c0-17,13.38-25.44,27.25-25.68c7.35-0.12,13.98,2.05,19.17,4.94l6.88-17.48c-5.79-2.65-15.56-6.27-27.98-6.15
		c-26.28,0.24-47.5,17.72-47.5,44.49c0,28.45,23.75,43.88,48.59,43.77C1484.85,349.84,1494.13,346.34,1500.76,342.85z"/>
	<polygon class="st3" points="1580.81,282.2 1580.81,263.51 1517.4,263.51 1517.4,347.91 1583.47,347.91 1583.47,329.22 
		1539.34,329.22 1539.34,314.03 1570.68,314.03 1570.68,297.03 1539.34,297.03 1539.34,282.2 	"/>
	<polygon class="st3" points="1760.37,314.87 1722.15,263.51 1700.57,263.51 1700.57,347.91 1722.27,347.91 1722.27,296.79 
		1761.09,347.91 1782.07,347.91 1782.07,263.51 1760.37,263.51 	"/>
	<path class="st3" d="M1844.41,350.92c27.73,0,46.3-18.57,46.3-44.73c0-27.12-20.26-44.37-46.42-44.37
		c-26.4,0-46.66,17.48-46.66,44.61C1797.63,333.2,1817.4,350.92,1844.41,350.92z M1844.29,280.63c15.07,0,24.23,11.09,24.23,25.68
		c0,14.22-8.68,25.68-24.11,25.68c-15.31,0-24.6-11.22-24.6-25.68C1819.81,291.48,1829.46,280.63,1844.29,280.63z"/>
	<path class="st3" d="M1990.42,299.8h-38.7v17.36h18.93v10.49c-3.98,2.05-9.52,3.98-16.28,3.98c-15.43,0-28.21-10.01-28.21-25.56
		c0-15.43,12.66-25.93,28.09-26.28c8.32-0.24,15.43,2.53,20.62,5.78l6.51-17.96c-6.75-3.14-16.76-6.39-28.69-6.27
		c-28.7,0.12-48.47,19.89-48.59,44.97c0,26.16,21.1,44.12,49.31,44.12c17,0,29.78-6.39,37.01-11.21V299.8z"/>
	<path class="st3" d="M2067.09,318.97c7.59-5.43,12.78-13.51,12.78-24.6c0-18.69-14.83-31.22-39.3-31.35
		c-10.13,0-20.38,0.24-30.86,0.48v84.4h21.94v-21.34c2.17,0.12,7.36,0.12,11.33,0c1.21,0,2.53-0.12,3.86-0.24l9.89,21.58h24.83
		L2067.09,318.97z M2042.49,307.76c-3.62,0.36-7.23,0.36-10.97,0.24v-26.4c3.25-0.12,6.63-0.12,10.25,0.12
		c8.44,0.6,16.15,4.59,16.15,12.9C2057.92,301.73,2052.98,306.8,2042.49,307.76z"/>
	<path class="st3" d="M2226.47,262.79c-4.46,0-17.24,0.24-26.64,0.72v84.4h22.06v-20.49c3.86,0,10.12-0.12,14.71-0.48
		c16.4-1.33,34.72-9.77,34.72-32.91C2271.32,271.83,2254.56,262.79,2226.47,262.79z M2233.46,308.48c-3.38,0.24-7.6,0.24-11.57,0.24
		v-27.73c4.58,0,8.07,0,11.45,0.12c9.77,0.6,16.04,5.78,16.04,13.98C2249.37,303.3,2242.98,307.76,2233.46,308.48z"/>
	<polygon class="st3" points="2345.25,297.15 2309.32,297.15 2309.32,263.51 2287.38,263.51 2287.38,347.91 2309.32,347.91 
		2309.32,315.84 2345.25,315.84 2345.25,347.91 2367.19,347.91 2367.19,263.51 2345.25,263.51 	"/>
	<rect x="2387.53" y="263.51" class="st3" width="21.46" height="84.4"/>
	<path class="st3" d="M2494.21,325.6c-5.67,3.49-12.18,5.43-19.05,5.43c-13.99,0-27.25-7.96-27.25-25.08
		c0-17,13.38-25.44,27.25-25.68c7.35-0.12,13.98,2.05,19.17,4.94l6.88-17.48c-5.79-2.65-15.55-6.27-27.98-6.15
		c-26.28,0.24-47.5,17.72-47.5,44.49c0,28.45,23.75,43.88,48.59,43.77c11.46,0,20.74-3.5,27.37-6.99L2494.21,325.6z"/>
	<path class="st3" d="M1659.04,332.35l6.15,15.56h22.79l-36.65-84.4h-21.94l-36.41,84.4h22.91l6.03-15.56l0.96-2.5
		c11.47,3.44,23.72,3.42,35.19-0.01L1659.04,332.35z M1629.67,312.2l10.69-27.47l10.82,27.52
		C1644.13,314.08,1636.72,314.06,1629.67,312.2z"/>
	<path class="st3" d="M2127.84,263.27l-36.41,84.4h22.91l6.03-15.56l0.96-2.5c11.47,3.44,23.72,3.42,35.19-0.01l0.98,2.51
		l6.15,15.56h22.79l-36.65-84.4H2127.84z M2128.13,311.96l10.69-27.47l10.82,27.52C2142.59,313.84,2135.18,313.82,2128.13,311.96z"
		/>
	<polygon class="st3" points="484.73,334.03 459.53,263.5 450.6,263.5 426.73,334.15 404.07,263.5 393.7,263.5 421.67,347.9 
		431.55,347.9 455.19,278.69 480.26,347.9 490.03,347.9 516.07,263.5 505.7,263.5 	"/>
	<path class="st3" d="M566.88,262.17c-25.2,0-44.37,17.72-44.37,43.89c0,25.56,18.33,44.12,44.49,44.12
		c26.77,0,44.13-19.29,44.13-44.12C611.13,280.02,592.2,262.17,566.88,262.17z M567,340.79c-20.62,0-34.12-14.59-34.12-34.72
		c0-20.62,13.99-34.6,33.88-34.6c20.25,0,34,14.35,34,34.6C600.76,325.47,587.98,340.79,567,340.79z"/>
	<path class="st3" d="M669.1,262.17c-25.2,0-44.37,17.72-44.37,43.89c0,25.56,18.33,44.12,44.49,44.12
		c26.77,0,44.12-19.29,44.12-44.12C713.35,280.02,694.42,262.17,669.1,262.17z M669.22,340.79c-20.62,0-34.12-14.59-34.12-34.72
		c0-20.62,13.99-34.6,33.88-34.6c20.25,0,34,14.35,34,34.6C702.98,325.47,690.2,340.79,669.22,340.79z"/>
	<path class="st3" d="M749.88,263.38c-4.1,0-15.67,0-18.81,0.12v84.4c4.46,0.24,16.76,0.24,19.05,0.24
		c32.67,0,53.17-14.71,53.17-42.92C803.29,274.59,779.18,263.38,749.88,263.38z M751.81,338.74c-1.81,0-8.92,0-10.61-0.12v-65.83
		c2.53-0.12,8.2,0,10.12,0c21.1,0,41.72,7.72,41.72,32.67C793.04,328,776.41,338.37,751.81,338.74z"/>
	<path class="st3" d="M855.17,299.55c-13.27-3.01-24.6-4.58-24.72-14.23c-0.24-8.92,8.8-13.74,20.62-13.74
		c9.52,0,18.32,3.25,24.47,6.27l3.14-8.92c-6.03-2.89-16.03-6.63-27.61-6.63c-16.16,0-31.35,7.23-31.11,23.51
		c0.12,14.47,12.54,18.81,27.37,22.31c15.07,3.38,27.13,5.91,27.01,16.51c-0.12,9.28-9.04,15.31-22.54,15.56
		c-12.42,0.12-23.99-4.82-30.99-9.16l-3.86,8.56c7.12,4.34,20.25,10.25,35.57,10.01c17.96-0.24,32.43-8.8,32.31-25.56
		C884.71,308.47,872.04,303.53,855.17,299.55z"/>
	<polygon class="st3" points="1005.02,301.96 953.18,301.96 953.18,263.5 942.92,263.5 942.92,347.9 953.18,347.9 953.18,311.37 
		1005.02,311.37 1005.02,347.9 1015.26,347.9 1015.26,263.5 1005.02,263.5 	"/>
	<path class="st3" d="M1075.15,262.17c-25.2,0-44.37,17.72-44.37,43.89c0,25.56,18.33,44.12,44.49,44.12
		c26.77,0,44.13-19.29,44.13-44.12C1119.4,280.02,1100.47,262.17,1075.15,262.17z M1075.27,340.79c-20.62,0-34.12-14.59-34.12-34.72
		c0-20.62,13.99-34.6,33.88-34.6c20.25,0,34,14.35,34,34.6C1109.03,325.47,1096.25,340.79,1075.27,340.79z"/>
	<polygon class="st3" points="1145.16,263.5 1134.92,263.5 1134.92,347.9 1192.42,347.9 1192.42,338.5 1145.16,338.5 	"/>
	<polygon class="st3" points="1215.81,338.5 1215.81,309.56 1251.37,309.56 1251.37,300.75 1215.81,300.75 1215.81,272.78 
		1262.22,272.78 1262.22,263.5 1205.55,263.5 1205.55,347.9 1265.23,347.9 1265.23,338.5 	"/>
	<rect x="2559.68" y="263.49" class="st3" width="10.01" height="84.4"/>
	<polygon class="st3" points="2655.39,330.89 2602.1,263.49 2591.85,263.49 2591.85,347.89 2602.1,347.89 2602.1,279.53 
		2656.36,347.89 2665.76,347.89 2665.76,263.49 2655.39,263.49 	"/>
	<path class="st3" d="M2722.47,299.54c-13.26-3.01-24.6-4.58-24.72-14.23c-0.24-8.92,8.8-13.74,20.62-13.74
		c9.52,0,18.32,3.25,24.47,6.27l3.14-8.92c-6.03-2.89-16.03-6.63-27.61-6.63c-16.16,0-31.35,7.23-31.11,23.51
		c0.12,14.47,12.54,18.81,27.37,22.31c15.07,3.38,27.13,5.91,27.01,16.51c-0.12,9.28-9.04,15.31-22.54,15.56
		c-12.42,0.12-23.99-4.82-30.99-9.16l-3.86,8.56c7.12,4.34,20.25,10.25,35.57,10.01c17.96-0.24,32.43-8.8,32.31-25.56
		C2752.01,308.46,2739.35,303.52,2722.47,299.54z"/>
	<polygon class="st3" points="2763.48,272.78 2794.82,272.78 2794.82,347.89 2805.07,347.89 2805.07,272.78 2836.42,272.78 
		2836.42,263.49 2763.48,263.49 	"/>
	<rect x="2855.92" y="263.49" class="st3" width="10.01" height="84.4"/>
	<polygon class="st3" points="2885.43,272.78 2916.78,272.78 2916.78,347.89 2927.03,347.89 2927.03,272.78 2958.37,272.78 
		2958.37,263.49 2885.43,263.49 	"/>
	<path class="st3" d="M3040.45,311.36c0,18.09-10.85,29.42-27.13,29.42c-16.27,0-27.01-11.22-27.01-29.3v-47.99h-10.25v47.75
		c0,25.68,17.36,38.94,37.5,38.94c20.74,0,37.13-13.99,37.13-39.19v-47.5h-10.25V311.36z"/>
	<polygon class="st3" points="3068.5,272.78 3099.85,272.78 3099.85,347.89 3110.09,347.89 3110.09,272.78 3141.44,272.78 
		3141.44,263.49 3068.5,263.49 	"/>
	<rect x="3160.94" y="263.49" class="st3" width="10.01" height="84.4"/>
	<path class="st3" d="M3232.27,262.16c-25.2,0-44.37,17.72-44.37,43.89c0,25.56,18.33,44.12,44.49,44.12
		c26.77,0,44.13-19.29,44.13-44.12C3276.52,280.01,3257.59,262.16,3232.27,262.16z M3232.39,340.78
		c-20.62,0-34.12-14.59-34.12-34.72c0-20.62,13.99-34.61,33.88-34.61c20.25,0,34,14.35,34,34.61
		C3266.15,325.46,3253.37,340.78,3232.39,340.78z"/>
	<polygon class="st3" points="3357.02,330.89 3303.73,263.49 3293.48,263.49 3293.48,347.89 3303.73,347.89 3303.73,279.53 
		3357.99,347.89 3367.39,347.89 3367.39,263.49 3357.02,263.49 	"/>
</g>
</svg>
